  0
SECTION
  2
HEADER
  9
$ACADVER
  1
AC1027
  9
$ACADMAINTVER
 70
   125
  9
$DWGCODEPAGE
  3
ANSI_1252
  9
$LASTSAVEDBY
  1
kaley
  9
$REQUIREDVERSIONS
160
                 0
  9
$INSBASE
 10
0.0
 20
0.0
 30
0.0
  9
$EXTMIN
 10
-220.568138
 20
-375.724462
 30
0.0
  9
$EXTMAX
 10
617.799162
 20
711.977701
 30
0.0
  9
$LIMMIN
 10
0.0
 20
0.0
  9
$LIMMAX
 10
420.0
 20
297.0
  9
$ORTHOMODE
 70
     0
  9
$REGENMODE
 70
     1
  9
$FILLMODE
 70
     1
  9
$QTEXTMODE
 70
     0
  9
$MIRRTEXT
 70
     0
  9
$LTSCALE
 40
0.75
  9
$ATTMODE
 70
     1
  9
$TEXTSIZE
 40
3.5
  9
$TRACEWID
 40
1.0
  9
$TEXTSTYLE
  7
Standard
  9
$CLAYER
  8
0
  9
$CELTYPE
  6
ByLayer
  9
$CECOLOR
 62
   256
  9
$CELTSCALE
 40
1.0
  9
$DISPSILH
 70
     0
  9
$DIMSCALE
 40
1.0
  9
$DIMASZ
 40
3.5
  9
$DIMEXO
 40
2.1
  9
$DIMDLI
 40
10.5
  9
$DIMRND
 40
0.0
  9
$DIMDLE
 40
0.0
  9
$DIMEXE
 40
2.1
  9
$DIMTP
 40
0.1
  9
$DIMTM
 40
0.1
  9
$DIMTXT
 40
3.5
  9
$DIMCEN
 40
0.0
  9
$DIMTSZ
 40
0.0
  9
$DIMTOL
 70
     0
  9
$DIMLIM
 70
     0
  9
$DIMTIH
 70
     0
  9
$DIMTOH
 70
     0
  9
$DIMSE1
 70
     0
  9
$DIMSE2
 70
     0
  9
$DIMTAD
 70
     1
  9
$DIMZIN
 70
    12
  9
$DIMBLK
  1

  9
$DIMASO
 70
     1
  9
$DIMSHO
 70
     1
  9
$DIMPOST
  1

  9
$DIMAPOST
  1

  9
$DIMALT
 70
     0
  9
$DIMALTD
 70
     2
  9
$DIMALTF
 40
0.03937
  9
$DIMLFAC
 40
1.0
  9
$DIMTOFL
 70
     1
  9
$DIMTVP
 40
0.0
  9
$DIMTIX
 70
     0
  9
$DIMSOXD
 70
     0
  9
$DIMSAH
 70
     0
  9
$DIMBLK1
  1

  9
$DIMBLK2
  1

  9
$DIMSTYLE
  2
Dim-ISO-25
  9
$DIMCLRD
 70
     0
  9
$DIMCLRE
 70
     0
  9
$DIMCLRT
 70
     0
  9
$DIMTFAC
 40
0.714286
  9
$DIMGAP
 40
1.4
  9
$DIMJUST
 70
     0
  9
$DIMSD1
 70
     0
  9
$DIMSD2
 70
     0
  9
$DIMTOLJ
 70
     0
  9
$DIMTZIN
 70
    12
  9
$DIMALTZ
 70
    12
  9
$DIMALTTZ
 70
    12
  9
$DIMUPT
 70
     0
  9
$DIMDEC
 70
     2
  9
$DIMTDEC
 70
     2
  9
$DIMALTU
 70
     2
  9
$DIMALTTD
 70
     2
  9
$DIMTXSTY
  7
Standard
  9
$DIMAUNIT
 70
     0
  9
$DIMADEC
 70
     2
  9
$DIMALTRND
 40
0.0
  9
$DIMAZIN
 70
     3
  9
$DIMDSEP
 70
    46
  9
$DIMATFIT
 70
     3
  9
$DIMFRAC
 70
     0
  9
$DIMLDRBLK
  1

  9
$DIMLUNIT
 70
     2
  9
$DIMLWD
 70
    -2
  9
$DIMLWE
 70
    -2
  9
$DIMTMOVE
 70
     0
  9
$DIMFXL
 40
1.0
  9
$DIMFXLON
 70
     0
  9
$DIMJOGANG
 40
0.785398
  9
$DIMTFILL
 70
     0
  9
$DIMTFILLCLR
 70
     0
  9
$DIMARCSYM
 70
     0
  9
$DIMLTYPE
  6

  9
$DIMLTEX1
  6

  9
$DIMLTEX2
  6

  9
$DIMTXTDIRECTION
 70
     0
  9
$LUNITS
 70
     2
  9
$LUPREC
 70
     4
  9
$SKETCHINC
 40
1.0
  9
$FILLETRAD
 40
0.0
  9
$AUNITS
 70
     0
  9
$AUPREC
 70
     0
  9
$MENU
  1
.
  9
$ELEVATION
 40
0.0
  9
$PELEVATION
 40
0.0
  9
$THICKNESS
 40
0.0
  9
$LIMCHECK
 70
     0
  9
$CHAMFERA
 40
0.0
  9
$CHAMFERB
 40
0.0
  9
$CHAMFERC
 40
0.0
  9
$CHAMFERD
 40
0.0
  9
$SKPOLY
 70
     0
  9
$TDCREATE
 40
2461179.539409722
  9
$TDUCREATE
 40
2461179.456076389
  9
$TDUPDATE
 40
2461179.539409722
  9
$TDUUPDATE
 40
2461179.456076389
  9
$TDINDWG
 40
0.0000000000
  9
$TDUSRTIMER
 40
0.0000000000
  9
$USRTIMER
 70
     1
  9
$ANGBASE
 50
0.0
  9
$ANGDIR
 70
     0
  9
$PDMODE
 70
     0
  9
$PDSIZE
 40
0.0
  9
$PLINEWID
 40
0.0
  9
$SPLFRAME
 70
     0
  9
$SPLINETYPE
 70
     6
  9
$SPLINESEGS
 70
     8
  9
$HANDSEED
  5
40C
  9
$SURFTAB1
 70
     6
  9
$SURFTAB2
 70
     6
  9
$SURFTYPE
 70
     6
  9
$SURFU
 70
     6
  9
$SURFV
 70
     6
  9
$UCSBASE
  2

  9
$UCSNAME
  2

  9
$UCSORG
 10
0.0
 20
0.0
 30
0.0
  9
$UCSXDIR
 10
1.0
 20
0.0
 30
0.0
  9
$UCSYDIR
 10
0.0
 20
1.0
 30
0.0
  9
$UCSORTHOREF
  2

  9
$UCSORTHOVIEW
 70
     0
  9
$UCSORGTOP
 10
0.0
 20
0.0
 30
0.0
  9
$UCSORGBOTTOM
 10
0.0
 20
0.0
 30
0.0
  9
$UCSORGLEFT
 10
0.0
 20
0.0
 30
0.0
  9
$UCSORGRIGHT
 10
0.0
 20
0.0
 30
0.0
  9
$UCSORGFRONT
 10
0.0
 20
0.0
 30
0.0
  9
$UCSORGBACK
 10
0.0
 20
0.0
 30
0.0
  9
$PUCSBASE
  2

  9
$PUCSNAME
  2

  9
$PUCSORG
 10
0.0
 20
0.0
 30
0.0
  9
$PUCSXDIR
 10
1.0
 20
0.0
 30
0.0
  9
$PUCSYDIR
 10
0.0
 20
1.0
 30
0.0
  9
$PUCSORTHOREF
  2

  9
$PUCSORTHOVIEW
 70
     0
  9
$PUCSORGTOP
 10
0.0
 20
0.0
 30
0.0
  9
$PUCSORGBOTTOM
 10
0.0
 20
0.0
 30
0.0
  9
$PUCSORGLEFT
 10
0.0
 20
0.0
 30
0.0
  9
$PUCSORGRIGHT
 10
0.0
 20
0.0
 30
0.0
  9
$PUCSORGFRONT
 10
0.0
 20
0.0
 30
0.0
  9
$PUCSORGBACK
 10
0.0
 20
0.0
 30
0.0
  9
$USERI1
 70
     0
  9
$USERI2
 70
     0
  9
$USERI3
 70
     0
  9
$USERI4
 70
     0
  9
$USERI5
 70
     0
  9
$USERR1
 40
0.0
  9
$USERR2
 40
0.0
  9
$USERR3
 40
0.0
  9
$USERR4
 40
0.0
  9
$USERR5
 40
0.0
  9
$WORLDVIEW
 70
     1
  9
$SHADEDGE
 70
     3
  9
$SHADEDIF
 70
    70
  9
$TILEMODE
 70
     1
  9
$MAXACTVP
 70
    64
  9
$PINSBASE
 10
0.0
 20
0.0
 30
0.0
  9
$PLIMCHECK
 70
     0
  9
$PEXTMIN
 10
1.000000E+20
 20
1.000000E+20
 30
1.000000E+20
  9
$PEXTMAX
 10
-1.000000E+20
 20
-1.000000E+20
 30
-1.000000E+20
  9
$PLIMMIN
 10
0.0
 20
0.0
  9
$PLIMMAX
 10
12.0
 20
9.0
  9
$UNITMODE
 70
     0
  9
$VISRETAIN
 70
     1
  9
$PLINEGEN
 70
     0
  9
$PSLTSCALE
 70
     1
  9
$TREEDEPTH
 70
  3020
  9
$CMLSTYLE
  2
Standard
  9
$CMLJUST
 70
     0
  9
$CMLSCALE
 40
20.0
  9
$PROXYGRAPHICS
 70
     1
  9
$MEASUREMENT
 70
     1
  9
$CELWEIGHT
370
    -1
  9
$ENDCAPS
280
     0
  9
$JOINSTYLE
280
     0
  9
$LWDISPLAY
290
     0
  9
$INSUNITS
 70
     4
  9
$HYPERLINKBASE
  1

  9
$STYLESHEET
  1

  9
$XEDIT
290
     1
  9
$CEPSNTYPE
380
     0
  9
$PSTYLEMODE
290
     1
  9
$FINGERPRINTGUID
  2
{9E9C4139-4160-3441-8DAF-A517A9674091}
  9
$VERSIONGUID
  2
{20FA471E-0A7E-4E4B-AFE8-3FC2E0995037}
  9
$EXTNAMES
290
     1
  9
$PSVPSCALE
 40
0.0
  9
$OLESTARTUP
290
     0
  9
$SORTENTS
280
   127
  9
$INDEXCTL
280
     0
  9
$HIDETEXT
280
     1
  9
$XCLIPFRAME
280
     0
  9
$HALOGAP
280
     0
  9
$OBSCOLOR
 70
   257
  9
$OBSLTYPE
280
     0
  9
$INTERSECTIONDISPLAY
280
     0
  9
$INTERSECTIONCOLOR
 70
   257
  9
$DIMASSOC
280
     2
  9
$PROJECTNAME
  1

  9
$CAMERADISPLAY
290
     0
  9
$LENSLENGTH
 40
50.0
  9
$CAMERAHEIGHT
 40
0.0
  9
$STEPSPERSEC
 40
2.0
  9
$STEPSIZE
 40
6.0
  9
$3DDWFPREC
 40
2.0
  9
$PSOLWIDTH
 40
5.0
  9
$PSOLHEIGHT
 40
80.0
  9
$LOFTANG1
 40
1.570796
  9
$LOFTANG2
 40
1.570796
  9
$LOFTMAG1
 40
0.0
  9
$LOFTMAG2
 40
0.0
  9
$LOFTPARAM
 70
     7
  9
$LOFTNORMALS
280
     1
  9
$LATITUDE
 40
37.795
  9
$LONGITUDE
 40
-122.394
  9
$NORTHDIRECTION
 40
0.0
  9
$TIMEZONE
 70
 -8000
  9
$LIGHTGLYPHDISPLAY
280
     1
  9
$TILEMODELIGHTSYNCH
280
     1
  9
$CMATERIAL
347
11
  9
$SOLIDHIST
280
     0
  9
$SHOWHIST
280
     1
  9
$DWFFRAME
280
     2
  9
$DGNFRAME
280
     0
  9
$REALWORLDSCALE
290
     1
  9
$INTERFERECOLOR
 62
     1
  9
$INTERFEREOBJVS
345
33
  9
$INTERFEREVPVS
346
30
  9
$CSHADOW
280
     0
  9
$SHADOWPLANELOCATION
 40
0.0
  0
ENDSEC
  0
SECTION
  2
CLASSES
  0
CLASS
  1
ACDBDICTIONARYWDFLT
  2
AcDbDictionaryWithDefault
  3
ObjectDBX Classes
 90
        0
 91
        1
280
     0
281
     0
  0
CLASS
  1
MATERIAL
  2
AcDbMaterial
  3
ObjectDBX Classes
 90
     1153
 91
        3
280
     0
281
     0
  0
CLASS
  1
VISUALSTYLE
  2
AcDbVisualStyle
  3
ObjectDBX Classes
 90
     4095
 91
       24
280
     0
281
     0
  0
CLASS
  1
SCALE
  2
AcDbScale
  3
ObjectDBX Classes
 90
     1153
 91
       17
280
     0
281
     0
  0
CLASS
  1
TABLESTYLE
  2
AcDbTableStyle
  3
ObjectDBX Classes
 90
     4095
 91
        1
280
     0
281
     0
  0
CLASS
  1
MLEADERSTYLE
  2
AcDbMLeaderStyle
  3
ACDB_MLEADERSTYLE_CLASS
 90
     4095
 91
        1
280
     0
281
     0
  0
CLASS
  1
ACDBSECTIONVIEWSTYLE
  2
AcDbSectionViewStyle
  3
ObjectDBX Classes
 90
     1025
 91
        1
280
     0
281
     0
  0
CLASS
  1
ACDBDETAILVIEWSTYLE
  2
AcDbDetailViewStyle
  3
ObjectDBX Classes
 90
     1025
 91
        1
280
     0
281
     0
  0
CLASS
  1
ACMESCOPE
  2
AcMeScope
  3
AcMeServices
 90
     1024
 91
        1
280
     0
281
     0
  0
CLASS
  1
ACMECOMMANDHISTORY
  2
AcMeCommandHistory
  3
AcMeServices
 90
     1024
 91
        1
280
     0
281
     0
  0
CLASS
  1
ACIMSYSVARMAN
  2
AcImSysVarManager
  3
AcMeServices
 90
     1024
 91
        1
280
     0
281
     0
  0
CLASS
  1
ACIMINTSYSVAR
  2
AcImIntSysVar
  3
AcMeServices
 90
     1024
 91
        1
280
     0
281
     0
  0
CLASS
  1
ACMESTATEMGR
  2
AcMeStateMgr
  3
AcMeServices
 90
     1024
 91
        1
280
     0
281
     0
  0
CLASS
  1
ACGREFMASTER
  2
AcGrefMaster
  3
AcAttribServices
 90
     1024
 91
        1
280
     0
281
     0
  0
CLASS
  1
SORTENTSTABLE
  2
AcDbSortentsTable
  3
ObjectDBX Classes
 90
        0
 91
        1
280
     0
281
     0
  0
CLASS
  1
DICTIONARYVAR
  2
AcDbDictionaryVar
  3
ObjectDBX Classes
 90
        0
 91
        6
280
     0
281
     0
  0
CLASS
  1
CELLSTYLEMAP
  2
AcDbCellStyleMap
  3
ObjectDBX Classes
 90
     1152
 91
        1
280
     0
281
     0
  0
ENDSEC
  0
SECTION
  2
TABLES
  0
TABLE
  2
VPORT
  5
8
330
0
100
AcDbSymbolTable
 70
     1
1001
ACAD
1000
DbSaveVer
1071
      428
  0
VPORT
  5
57
330
8
100
AcDbSymbolTableRecord
100
AcDbViewportTableRecord
  2
*Active
 70
     0
 10
0.0
 20
0.0
 11
1.0
 21
1.0
 12
198.615512
 22
168.126619
 13
0.0
 23
0.0
 14
0.5
 24
0.5
 15
0.0
 25
0.0
 16
0.0
 26
0.0
 36
1.0
 17
0.0
 27
0.0
 37
0.0
 40
1087.702163
 41
1.580042
 42
50.0
 43
0.0
 44
0.0
 50
0.0
 51
0.0
 71
     0
 72
 20000
 73
     1
 74
     0
 75
     0
 76
     0
 77
     0
 78
     0
281
     0
 65
     1
110
0.0
120
0.0
130
0.0
111
1.0
121
0.0
131
0.0
112
0.0
122
1.0
132
0.0
 79
     0
146
0.0
348
2F
 60
     3
 61
     5
292
     1
282
     1
141
0.0
142
0.0
 63
   250
421
  3355443
  0
ENDTAB
  0
TABLE
  2
LTYPE
  5
5
330
0
100
AcDbSymbolTable
 70
    14
  0
LTYPE
  5
5B
330
5
100
AcDbSymbolTableRecord
100
AcDbLinetypeTableRecord
  2
ByBlock
 70
     0
  3

 72
    65
 73
     0
 40
0.0
  0
LTYPE
  5
5C
330
5
100
AcDbSymbolTableRecord
100
AcDbLinetypeTableRecord
  2
ByLayer
 70
     0
  3

 72
    65
 73
     0
 40
0.0
  0
LTYPE
  5
5D
330
5
100
AcDbSymbolTableRecord
100
AcDbLinetypeTableRecord
  2
Continuous
 70
     0
  3
Solid line
 72
    65
 73
     0
 40
0.0
  0
LTYPE
  5
81
330
5
100
AcDbSymbolTableRecord
100
AcDbLinetypeTableRecord
  2
HIDDEN
 70
     0
  3
Hidden __ __ __ __ __ __ __ __ __ __ __ __ __ _
 72
    65
 73
     2
 40
9.525
 49
6.35
 74
     0
 49
-3.175
 74
     0
  0
LTYPE
  5
82
330
5
100
AcDbSymbolTableRecord
100
AcDbLinetypeTableRecord
  2
PHANTOM2
 70
     0
  3
Phantom (.5x) ___ _ _ ___ _ _ ___ _ _ ___ _ _
 72
    65
 73
     6
 40
31.75
 49
15.875
 74
     0
 49
-3.175
 74
     0
 49
3.175
 74
     0
 49
-3.175
 74
     0
 49
3.175
 74
     0
 49
-3.175
 74
     0
  0
LTYPE
  5
83
330
5
100
AcDbSymbolTableRecord
100
AcDbLinetypeTableRecord
  2
CENTER
 70
     0
  3
Center ____ _ ____ _ ____ _ ____ _ ____ _ ____
 72
    65
 73
     4
 40
50.8
 49
31.75
 74
     0
 49
-6.35
 74
     0
 49
6.35
 74
     0
 49
-6.35
 74
     0
  0
LTYPE
  5
96
330
5
100
AcDbSymbolTableRecord
100
AcDbLinetypeTableRecord
  2
AM_ISO02W050
 70
     0
  3
__ __ __ __ __ __ __ __ __ __ __ __ __ __ __
 72
    65
 73
     2
 40
7.5
 49
6.0
 74
     0
 49
-1.5
 74
     0
  0
LTYPE
  5
97
330
5
100
AcDbSymbolTableRecord
100
AcDbLinetypeTableRecord
  2
AM_ISO08W050
 70
     0
  3
____ . ____ . ____ . ____ . ____ . ____ . ____
 72
    65
 73
     4
 40
18.0
 49
12.0
 74
     0
 49
-1.5
 74
     0
 49
3.0
 74
     0
 49
-1.5
 74
     0
  0
LTYPE
  5
98
330
5
100
AcDbSymbolTableRecord
100
AcDbLinetypeTableRecord
  2
AM_ISO09W050
 70
     0
  3
_____ . . _____ . . _____ . . ____ .. ____
 72
    65
 73
     6
 40
22.5
 49
12.0
 74
     0
 49
-1.5
 74
     0
 49
3.0
 74
     0
 49
-1.5
 74
     0
 49
3.0
 74
     0
 49
-1.5
 74
     0
  0
LTYPE
  5
99
330
5
100
AcDbSymbolTableRecord
100
AcDbLinetypeTableRecord
  2
Amconstr
 70
     0
  3
_______________________
 72
    65
 73
     2
 40
9999.0
 49
9999.0
 74
     0
 49
0.0
 74
     0
  0
LTYPE
  5
9A
330
5
100
AcDbSymbolTableRecord
100
AcDbLinetypeTableRecord
  2
AM_ISO08W050x2
 70
     0
  3
__ . __ . __ . __ . __ . __
 72
    65
 73
     4
 40
9.0
 49
6.0
 74
     0
 49
-0.75
 74
     0
 49
1.5
 74
     0
 49
-0.75
 74
     0
  0
LTYPE
  5
9B
330
5
100
AcDbSymbolTableRecord
100
AcDbLinetypeTableRecord
  2
AM_ISO02W050x2
 70
     0
  3
 _ _ _ _ _ _ _ _ _ _ _ _
 72
    65
 73
     2
 40
3.75
 49
3.0
 74
     0
 49
-0.75
 74
     0
  0
LTYPE
  5
9C
330
5
100
AcDbSymbolTableRecord
100
AcDbLinetypeTableRecord
  2
Amzigzag
 70
     0
  3
/\/-/\/-/\/-/\/-/\/-/\/
 72
    65
 73
     2
 40
11.0001
 49
0.0001
 74
     4
 75
   136
340
93
 46
0.04
 50
0.0
 44
0.0
 45
0.0
 49
-11.0
 74
     0
  0
LTYPE
  5
9D
330
5
100
AcDbSymbolTableRecord
100
AcDbLinetypeTableRecord
  2
ACISOWELD
 70
     0
  3
_ _ _ _ _
 72
    65
 73
     2
 40
2.0
 49
2.0
 74
     0
 49
-1.0
 74
     0
  0
LTYPE
  5
9E
330
5
100
AcDbSymbolTableRecord
100
AcDbLinetypeTableRecord
  2
ACISOTGL
 70
     0
  3
_ _ _ _ _
 72
    65
 73
     2
 40
3.0
 49
2.0
 74
     0
 49
-1.0
 74
     0
  0
LTYPE
  5
9F
330
5
100
AcDbSymbolTableRecord
100
AcDbLinetypeTableRecord
  2
ACISOTGB
 70
     0
  3
__ . . __ . .
 72
    65
 73
     6
 40
9.0
 49
4.0
 74
     0
 49
-1.0
 74
     0
 49
1.0
 74
     0
 49
-1.0
 74
     0
 49
1.0
 74
     0
 49
-1.0
 74
     0
  0
ENDTAB
  0
TABLE
  2
LAYER
  5
2
330
0
100
AcDbSymbolTable
 70
     4
  0
LAYER
  5
54
330
2
100
AcDbSymbolTableRecord
100
AcDbLayerTableRecord
  2
0
 70
     0
 62
     7
  6
Continuous
370
    -3
390
F
347
21
348
0
1001
AcAecLayerStandard
1000

1000

  0
LAYER
  5
79
330
2
100
AcDbSymbolTableRecord
100
AcDbLayerTableRecord
  2
Defpoints
 70
     0
 62
     7
  6
Continuous
290
     0
370
    -3
390
F
347
21
348
0
1001
AcAecLayerStandard
1000

1000

  0
LAYER
  5
AB
330
2
100
AcDbSymbolTableRecord
100
AcDbLayerTableRecord
  2
Visible
 70
     0
 62
     7
  6
Continuous
370
    50
390
F
347
21
348
0
  0
ENDTAB
  0
TABLE
  2
STYLE
  5
3
330
0
100
AcDbSymbolTable
 70
     5
  0
STYLE
  5
55
330
3
100
AcDbSymbolTableRecord
100
AcDbTextStyleTableRecord
  2
Standard
 70
     0
 40
0.0
 41
1.0
 50
0.0
 71
     0
 42
3.5
  3
arial.ttf
  4

1001
ACAD
1000
Arial
1071
       34
  0
STYLE
  5
5A
330
3
100
AcDbSymbolTableRecord
100
AcDbTextStyleTableRecord
  2
Annotative
 70
     0
 40
0.0
 41
1.0
 50
0.0
 71
     0
 42
0.2
  3
txt
  4

1001
AcadAnnotative
1000
AnnotativeData
1002
{
1070
     1
1070
     1
1002
}
  0
STYLE
  5
92
330
3
100
AcDbSymbolTableRecord
100
AcDbTextStyleTableRecord
  2
FusionTitle
 70
     0
 40
0.0
 41
1.0
 50
0.0
 71
     0
 42
2.5
  3
arial.ttf
  4

1001
ACAD
1000
Arial
1071
       34
  0
STYLE
  5
93
330
3
100
AcDbSymbolTableRecord
100
AcDbTextStyleTableRecord
  2

 70
     1
 40
0.0
 41
1.0
 50
0.0
 71
     0
 42
10.0
  3
genltshp.shx
  4

  0
STYLE
  5
94
330
3
100
AcDbSymbolTableRecord
100
AcDbTextStyleTableRecord
  2
ACISOGDT
 70
     0
 40
0.0
 41
1.0
 50
0.0
 71
     0
 42
10.0
  3
amgdt.shx
  4

  0
ENDTAB
  0
TABLE
  2
VIEW
  5
6
330
0
100
AcDbSymbolTable
 70
     0
  0
ENDTAB
  0
TABLE
  2
UCS
  5
7
330
0
100
AcDbSymbolTable
 70
     0
  0
ENDTAB
  0
TABLE
  2
APPID
  5
9
330
0
100
AcDbSymbolTable
 70
    19
  0
APPID
  5
56
330
9
100
AcDbSymbolTableRecord
100
AcDbRegAppTableRecord
  2
ACAD
 70
     0
  0
APPID
  5
5E
330
9
100
AcDbSymbolTableRecord
100
AcDbRegAppTableRecord
  2
AcadAnnotative
 70
     0
  0
APPID
  5
78
330
9
100
AcDbSymbolTableRecord
100
AcDbRegAppTableRecord
  2
ACAD_PSEXT
 70
     0
  0
APPID
  5
7A
330
9
100
AcDbSymbolTableRecord
100
AcDbRegAppTableRecord
  2
MCAD_NO_VIS
 70
     0
  0
APPID
  5
7B
330
9
100
AcDbSymbolTableRecord
100
AcDbRegAppTableRecord
  2
ACAD_TEMP_GRAPHIC
 70
     0
  0
APPID
  5
84
330
9
100
AcDbSymbolTableRecord
100
AcDbRegAppTableRecord
  2
ACAD_DSTYLE_DIMJAG
 70
     0
  0
APPID
  5
85
330
9
100
AcDbSymbolTableRecord
100
AcDbRegAppTableRecord
  2
ACAD_DSTYLE_DIMTALN
 70
     0
  0
APPID
  5
86
330
9
100
AcDbSymbolTableRecord
100
AcDbRegAppTableRecord
  2
ACAD_NAV_VCDISPLAY
 70
     0
  0
APPID
  5
87
330
9
100
AcDbSymbolTableRecord
100
AcDbRegAppTableRecord
  2
AcAecLayerStandard
 70
     0
  0
APPID
  5
88
330
9
100
AcDbSymbolTableRecord
100
AcDbRegAppTableRecord
  2
AcCmTransparency
 70
     0
  0
APPID
  5
89
330
9
100
AcDbSymbolTableRecord
100
AcDbRegAppTableRecord
  2
AcDbDynamicBlockGUID
 70
     0
  0
APPID
  5
8A
330
9
100
AcDbSymbolTableRecord
100
AcDbRegAppTableRecord
  2
ACAD_DSTYLE_DIMBREAK
 70
     0
  0
APPID
  5
8B
330
9
100
AcDbSymbolTableRecord
100
AcDbRegAppTableRecord
  2
FUSIONTITLEBLOCK
 70
     0
  0
APPID
  5
8C
330
9
100
AcDbSymbolTableRecord
100
AcDbRegAppTableRecord
  2
FUSIONCURRENTTITLEBLOCK
 70
     0
  0
APPID
  5
8D
330
9
100
AcDbSymbolTableRecord
100
AcDbRegAppTableRecord
  2
AcSynergy
 70
     0
  0
APPID
  5
8E
330
9
100
AcDbSymbolTableRecord
100
AcDbRegAppTableRecord
  2
GENIUS_GENSCREG_15
 70
     0
  0
APPID
  5
8F
330
9
100
AcDbSymbolTableRecord
100
AcDbRegAppTableRecord
  2
GENIUS_GENOBJ-N-SDF_13
 70
     0
  0
APPID
  5
90
330
9
100
AcDbSymbolTableRecord
100
AcDbRegAppTableRecord
  2
GENIUS_GENODEF_13
 70
     0
  0
APPID
  5
91
330
9
100
AcDbSymbolTableRecord
100
AcDbRegAppTableRecord
  2
ACATTRIBSERVICES
 70
     0
  0
ENDTAB
  0
TABLE
  2
DIMSTYLE
  5
A
330
0
100
AcDbSymbolTable
 70
     4
100
AcDbDimStyleTable
 71
     1
340
A3
  0
DIMSTYLE
105
58
330
A
100
AcDbSymbolTableRecord
100
AcDbDimStyleTableRecord
  2
Standard
 70
     0
 41
3.5
 42
2.1
 43
10.5
 44
2.1
 78
    12
 79
     3
140
3.5
143
0.03937
146
0.714286
147
1.4
179
     2
271
     2
272
     2
284
    12
340
55
  0
DIMSTYLE
105
59
330
A
100
AcDbSymbolTableRecord
100
AcDbDimStyleTableRecord
  2
Annotative
 70
     0
 40
0.0
 41
3.5
 42
2.1
 43
10.5
 44
2.1
 73
     0
 74
     0
 77
     1
 78
    12
 79
     3
140
3.5
141
2.5
143
0.03937
146
0.714286
147
1.4
171
     3
172
     1
179
     2
271
     2
272
     2
274
     3
278
    44
283
     0
284
    12
340
55
1001
AcadAnnotative
1000
AnnotativeData
1002
{
1070
     1
1070
     1
1002
}
  0
DIMSTYLE
105
A2
330
A
100
AcDbSymbolTableRecord
100
AcDbDimStyleTableRecord
  2
ISO-25
 70
     0
  4
in
 41
3.5
 42
2.1
 43
10.5
 44
2.1
 47
0.1
 48
0.1
 73
     0
 74
     0
 77
     1
 78
    12
 79
     3
140
3.5
141
0.0
143
0.03937
146
0.714286
147
1.4
171
     4
172
     1
176
   256
177
   256
178
   256
179
     2
271
     2
272
     2
274
     4
283
     0
284
    12
285
     8
340
55
1001
ACAD_DSTYLE_DIMJAG
1070
   388
1040
1.5
1001
ACAD_DSTYLE_DIMTALN
1070
   392
1070
     1
1001
ACAD_DSTYLE_DIMBREAK
1070
   391
1040
3.5
  0
DIMSTYLE
105
A3
330
A
100
AcDbSymbolTableRecord
100
AcDbDimStyleTableRecord
  2
Dim-ISO-25
 70
     0
 41
3.5
 42
2.1
 43
10.5
 44
2.1
 47
0.1
 48
0.1
 73
     0
 74
     0
 77
     1
 78
    12
 79
     3
140
3.5
141
0.0
143
0.03937
146
0.714286
147
1.4
172
     1
179
     2
271
     2
272
     2
283
     0
284
    12
285
    12
286
    12
340
55
1001
ACAD_DSTYLE_DIMJAG
1070
   388
1040
1.5
1001
ACAD_DSTYLE_DIMTALN
1070
   392
1070
     1
1001
ACAD_DSTYLE_DIMBREAK
1070
   391
1040
3.5
  0
ENDTAB
  0
TABLE
  2
BLOCK_RECORD
  5
1
330
0
100
AcDbSymbolTable
 70
     2
  0
BLOCK_RECORD
  5
70
102
{ACAD_XDICTIONARY
360
A4
102
}
330
1
100
AcDbSymbolTableRecord
100
AcDbBlockTableRecord
  2
*Model_Space
340
73
 70
     0
280
     1
281
     0
  0
BLOCK_RECORD
  5
6C
330
1
100
AcDbSymbolTableRecord
100
AcDbBlockTableRecord
  2
*Paper_Space
340
6F
 70
     0
280
     1
281
     0
  0
BLOCK_RECORD
  5
74
330
1
100
AcDbSymbolTableRecord
100
AcDbBlockTableRecord
  2
*Paper_Space0
340
77
 70
     0
280
     1
281
     0
  0
ENDTAB
  0
ENDSEC
  0
SECTION
  2
BLOCKS
  0
BLOCK
  5
71
330
70
100
AcDbEntity
  8
0
100
AcDbBlockBegin
  2
*Model_Space
 70
     0
 10
0.0
 20
0.0
 30
0.0
  3
*Model_Space
  1

  0
ENDBLK
  5
72
330
70
100
AcDbEntity
  8
0
100
AcDbBlockEnd
  0
BLOCK
  5
6D
330
6C
100
AcDbEntity
 67
     1
  8
0
100
AcDbBlockBegin
  2
*Paper_Space
 70
     0
 10
0.0
 20
0.0
 30
0.0
  3
*Paper_Space
  1

  0
ENDBLK
  5
6E
330
6C
100
AcDbEntity
 67
     1
  8
0
100
AcDbBlockEnd
  0
BLOCK
  5
75
330
74
100
AcDbEntity
 67
     1
  8
0
100
AcDbBlockBegin
  2
*Paper_Space0
 70
     0
 10
0.0
 20
0.0
 30
0.0
  3
*Paper_Space0
  1

  0
ENDBLK
  5
76
330
74
100
AcDbEntity
 67
     1
  8
0
100
AcDbBlockEnd
  0
ENDSEC
  0
SECTION
  2
ENTITIES
  0
CIRCLE
  5
255
330
70
100
AcDbEntity
  8
Visible
100
AcDbCircle
 10
-435.83064
 20
534.146482
 30
0.0
 40
20.0
210
-0.0000000000000002
220
0.0
230
-1.0
  0
CIRCLE
  5
256
330
70
100
AcDbEntity
  8
Visible
100
AcDbCircle
 10
-380.83064
 20
564.146482
 30
0.0
 40
20.0
210
-0.0000000000000002
220
0.0
230
-1.0
  0
CIRCLE
  5
257
330
70
100
AcDbEntity
  8
Visible
100
AcDbCircle
 10
-380.83064
 20
504.146482
 30
0.0
 40
20.0
210
-0.0000000000000002
220
0.0
230
-1.0
  0
CIRCLE
  5
258
330
70
100
AcDbEntity
  8
Visible
100
AcDbCircle
 10
-325.83064
 20
534.146482
 30
0.0
 40
20.0
210
-0.0000000000000002
220
0.0
230
-1.0
  0
CIRCLE
  5
259
330
70
100
AcDbEntity
  8
Visible
100
AcDbCircle
 10
-240.83064
 20
599.146482
 30
0.0
 40
8.000000000000115
210
-0.0000000000000002
220
0.0
230
-1.0
  0
LINE
  5
25A
330
70
100
AcDbEntity
  8
Visible
100
AcDbLine
 10
395.83064
 20
424.146482
 30
0.0
 11
425.83064
 21
424.146482
 31
0.0
210
0.0
220
1.0
230
0.0
  0
LINE
  5
25B
330
70
100
AcDbEntity
  8
Visible
100
AcDbLine
 10
395.83064
 20
418.146482
 30
0.0
 11
395.83064
 21
424.146482
 31
0.0
210
0.0
220
1.0
230
0.0
  0
LINE
  5
25C
330
70
100
AcDbEntity
  8
Visible
100
AcDbLine
 10
365.83064
 20
418.146482
 30
0.0
 11
395.83064
 21
418.146482
 31
0.0
210
0.0
220
1.0
230
0.0
  0
LINE
  5
25D
330
70
100
AcDbEntity
  8
Visible
100
AcDbLine
 10
365.83064
 20
424.146482
 30
0.0
 11
365.83064
 21
418.146482
 31
0.0
210
0.0
220
1.0
230
0.0
  0
LINE
  5
25E
330
70
100
AcDbEntity
  8
Visible
100
AcDbLine
 10
335.83064
 20
424.146482
 30
0.0
 11
365.83064
 21
424.146482
 31
0.0
210
0.0
220
1.0
230
0.0
  0
LINE
  5
25F
330
70
100
AcDbEntity
  8
Visible
100
AcDbLine
 10
335.83064
 20
418.146482
 30
0.0
 11
335.83064
 21
424.146482
 31
0.0
210
0.0
220
1.0
230
0.0
  0
LINE
  5
260
330
70
100
AcDbEntity
  8
Visible
100
AcDbLine
 10
305.83064
 20
418.146482
 30
0.0
 11
335.83064
 21
418.146482
 31
0.0
210
0.0
220
1.0
230
0.0
  0
LINE
  5
261
330
70
100
AcDbEntity
  8
Visible
100
AcDbLine
 10
305.83064
 20
424.146482
 30
0.0
 11
305.83064
 21
418.146482
 31
0.0
210
0.0
220
1.0
230
0.0
  0
LINE
  5
262
330
70
100
AcDbEntity
  8
Visible
100
AcDbLine
 10
275.83064
 20
424.146482
 30
0.0
 11
305.83064
 21
424.146482
 31
0.0
210
0.0
220
1.0
230
0.0
  0
LINE
  5
263
330
70
100
AcDbEntity
  8
Visible
100
AcDbLine
 10
275.83064
 20
418.146482
 30
0.0
 11
275.83064
 21
424.146482
 31
0.0
210
0.0
220
1.0
230
0.0
  0
LINE
  5
264
330
70
100
AcDbEntity
  8
Visible
100
AcDbLine
 10
245.83064
 20
418.146482
 30
0.0
 11
275.83064
 21
418.146482
 31
0.0
210
0.0
220
1.0
230
0.0
  0
LINE
  5
265
330
70
100
AcDbEntity
  8
Visible
100
AcDbLine
 10
245.83064
 20
424.146482
 30
0.0
 11
245.83064
 21
418.146482
 31
0.0
210
0.0
220
1.0
230
0.0
  0
LINE
  5
266
330
70
100
AcDbEntity
  8
Visible
100
AcDbLine
 10
215.83064
 20
424.146482
 30
0.0
 11
245.83064
 21
424.146482
 31
0.0
210
0.0
220
1.0
230
0.0
  0
LINE
  5
267
330
70
100
AcDbEntity
  8
Visible
100
AcDbLine
 10
215.83064
 20
446.146482
 30
0.0
 11
215.83064
 21
424.146482
 31
0.0
210
0.0
220
1.0
230
0.0
  0
LINE
  5
268
330
70
100
AcDbEntity
  8
Visible
100
AcDbLine
 10
209.83064
 20
446.146482
 30
0.0
 11
215.83064
 21
446.146482
 31
0.0
210
0.0
220
1.0
230
0.0
  0
LINE
  5
269
330
70
100
AcDbEntity
  8
Visible
100
AcDbLine
 10
209.83064
 20
468.646482
 30
0.0
 11
209.83064
 21
446.146482
 31
0.0
210
0.0
220
1.0
230
0.0
  0
LINE
  5
26A
330
70
100
AcDbEntity
  8
Visible
100
AcDbLine
 10
215.83064
 20
468.646482
 30
0.0
 11
209.83064
 21
468.646482
 31
0.0
210
0.0
220
1.0
230
0.0
  0
LINE
  5
26B
330
70
100
AcDbEntity
  8
Visible
100
AcDbLine
 10
215.83064
 20
490.646482
 30
0.0
 11
215.83064
 21
468.646482
 31
0.0
210
0.0
220
1.0
230
0.0
  0
LINE
  5
26C
330
70
100
AcDbEntity
  8
Visible
100
AcDbLine
 10
209.83064
 20
490.646482
 30
0.0
 11
215.83064
 21
490.646482
 31
0.0
210
0.0
220
1.0
230
0.0
  0
LINE
  5
26D
330
70
100
AcDbEntity
  8
Visible
100
AcDbLine
 10
209.83064
 20
513.146482
 30
0.0
 11
209.83064
 21
490.646482
 31
0.0
210
0.0
220
1.0
230
0.0
  0
LINE
  5
26E
330
70
100
AcDbEntity
  8
Visible
100
AcDbLine
 10
215.83064
 20
513.146482
 30
0.0
 11
209.83064
 21
513.146482
 31
0.0
210
0.0
220
1.0
230
0.0
  0
LINE
  5
26F
330
70
100
AcDbEntity
  8
Visible
100
AcDbLine
 10
215.83064
 20
535.146482
 30
0.0
 11
215.83064
 21
513.146482
 31
0.0
210
0.0
220
1.0
230
0.0
  0
LINE
  5
270
330
70
100
AcDbEntity
  8
Visible
100
AcDbLine
 10
209.83064
 20
535.146482
 30
0.0
 11
215.83064
 21
535.146482
 31
0.0
210
0.0
220
1.0
230
0.0
  0
LINE
  5
271
330
70
100
AcDbEntity
  8
Visible
100
AcDbLine
 10
209.83064
 20
557.646482
 30
0.0
 11
209.83064
 21
535.146482
 31
0.0
210
0.0
220
1.0
230
0.0
  0
LINE
  5
272
330
70
100
AcDbEntity
  8
Visible
100
AcDbLine
 10
215.83064
 20
557.646482
 30
0.0
 11
209.83064
 21
557.646482
 31
0.0
210
0.0
220
1.0
230
0.0
  0
LINE
  5
273
330
70
100
AcDbEntity
  8
Visible
100
AcDbLine
 10
215.83064
 20
579.646482
 30
0.0
 11
215.83064
 21
557.646482
 31
0.0
210
0.0
220
1.0
230
0.0
  0
LINE
  5
274
330
70
100
AcDbEntity
  8
Visible
100
AcDbLine
 10
209.83064
 20
579.646482
 30
0.0
 11
215.83064
 21
579.646482
 31
0.0
210
0.0
220
1.0
230
0.0
  0
LINE
  5
275
330
70
100
AcDbEntity
  8
Visible
100
AcDbLine
 10
209.83064
 20
602.146482
 30
0.0
 11
209.83064
 21
579.646482
 31
0.0
210
0.0
220
1.0
230
0.0
  0
LINE
  5
276
330
70
100
AcDbEntity
  8
Visible
100
AcDbLine
 10
215.83064
 20
602.146482
 30
0.0
 11
209.83064
 21
602.146482
 31
0.0
210
0.0
220
1.0
230
0.0
  0
LINE
  5
277
330
70
100
AcDbEntity
  8
Visible
100
AcDbLine
 10
215.83064
 20
624.146482
 30
0.0
 11
215.83064
 21
602.146482
 31
0.0
210
0.0
220
1.0
230
0.0
  0
LINE
  5
278
330
70
100
AcDbEntity
  8
Visible
100
AcDbLine
 10
545.83064
 20
624.146482
 30
0.0
 11
215.83064
 21
624.146482
 31
0.0
210
0.0
220
1.0
230
0.0
  0
LINE
  5
279
330
70
100
AcDbEntity
  8
Visible
100
AcDbLine
 10
545.83064
 20
602.207094
 30
0.0
 11
545.83064
 21
624.146482
 31
0.0
210
0.0
220
1.0
230
0.0
  0
LINE
  5
27A
330
70
100
AcDbEntity
  8
Visible
100
AcDbLine
 10
551.794632
 20
602.209285
 30
0.0
 11
545.83064
 21
602.207094
 31
0.0
210
0.0
220
1.0
230
0.0
  0
LINE
  5
27B
330
70
100
AcDbEntity
  8
Visible
100
AcDbLine
 10
551.802896
 20
579.709286
 30
0.0
 11
551.794632
 21
602.209285
 31
0.0
210
0.0
220
1.0
230
0.0
  0
LINE
  5
27C
330
70
100
AcDbEntity
  8
Visible
100
AcDbLine
 10
545.83064
 20
579.707093
 30
0.0
 11
551.802896
 21
579.709286
 31
0.0
210
0.0
220
1.0
230
0.0
  0
LINE
  5
27D
330
70
100
AcDbEntity
  8
Visible
100
AcDbLine
 10
545.83064
 20
557.873761
 30
0.0
 11
545.83064
 21
579.707093
 31
0.0
210
0.0
220
1.0
230
0.0
  0
LINE
  5
27E
330
70
100
AcDbEntity
  8
Visible
100
AcDbLine
 10
551.794632
 20
557.875951
 30
0.0
 11
545.83064
 21
557.873761
 31
0.0
210
0.0
220
1.0
230
0.0
  0
LINE
  5
27F
330
70
100
AcDbEntity
  8
Visible
100
AcDbLine
 10
551.802896
 20
535.375953
 30
0.0
 11
551.794632
 21
557.875951
 31
0.0
210
0.0
220
1.0
230
0.0
  0
LINE
  5
280
330
70
100
AcDbEntity
  8
Visible
100
AcDbLine
 10
545.83064
 20
535.373759
 30
0.0
 11
551.802896
 21
535.375953
 31
0.0
210
0.0
220
1.0
230
0.0
  0
LINE
  5
281
330
70
100
AcDbEntity
  8
Visible
100
AcDbLine
 10
545.83064
 20
513.540428
 30
0.0
 11
545.83064
 21
535.373759
 31
0.0
210
0.0
220
1.0
230
0.0
  0
LINE
  5
282
330
70
100
AcDbEntity
  8
Visible
100
AcDbLine
 10
551.794632
 20
513.542618
 30
0.0
 11
545.83064
 21
513.540428
 31
0.0
210
0.0
220
1.0
230
0.0
  0
LINE
  5
283
330
70
100
AcDbEntity
  8
Visible
100
AcDbLine
 10
551.802896
 20
491.04262
 30
0.0
 11
551.794632
 21
513.542618
 31
0.0
210
0.0
220
1.0
230
0.0
  0
LINE
  5
284
330
70
100
AcDbEntity
  8
Visible
100
AcDbLine
 10
545.83064
 20
491.040426
 30
0.0
 11
551.802896
 21
491.04262
 31
0.0
210
0.0
220
1.0
230
0.0
  0
LINE
  5
285
330
70
100
AcDbEntity
  8
Visible
100
AcDbLine
 10
545.83064
 20
469.207094
 30
0.0
 11
545.83064
 21
491.040426
 31
0.0
210
0.0
220
1.0
230
0.0
  0
LINE
  5
286
330
70
100
AcDbEntity
  8
Visible
100
AcDbLine
 10
551.794632
 20
469.209285
 30
0.0
 11
545.83064
 21
469.207094
 31
0.0
210
0.0
220
1.0
230
0.0
  0
LINE
  5
287
330
70
100
AcDbEntity
  8
Visible
100
AcDbLine
 10
551.802896
 20
446.709286
 30
0.0
 11
551.794632
 21
469.209285
 31
0.0
210
0.0
220
1.0
230
0.0
  0
LINE
  5
288
330
70
100
AcDbEntity
  8
Visible
100
AcDbLine
 10
545.83064
 20
446.707093
 30
0.0
 11
551.802896
 21
446.709286
 31
0.0
210
0.0
220
1.0
230
0.0
  0
LINE
  5
289
330
70
100
AcDbEntity
  8
Visible
100
AcDbLine
 10
545.83064
 20
424.146482
 30
0.0
 11
545.83064
 21
446.707093
 31
0.0
210
0.0
220
1.0
230
0.0
  0
LINE
  5
28A
330
70
100
AcDbEntity
  8
Visible
100
AcDbLine
 10
515.83064
 20
424.146482
 30
0.0
 11
545.83064
 21
424.146482
 31
0.0
210
0.0
220
1.0
230
0.0
  0
LINE
  5
28B
330
70
100
AcDbEntity
  8
Visible
100
AcDbLine
 10
515.83064
 20
418.146482
 30
0.0
 11
515.83064
 21
424.146482
 31
0.0
210
0.0
220
1.0
230
0.0
  0
LINE
  5
28C
330
70
100
AcDbEntity
  8
Visible
100
AcDbLine
 10
485.83064
 20
418.146482
 30
0.0
 11
515.83064
 21
418.146482
 31
0.0
210
0.0
220
1.0
230
0.0
  0
LINE
  5
28D
330
70
100
AcDbEntity
  8
Visible
100
AcDbLine
 10
485.83064
 20
424.146482
 30
0.0
 11
485.83064
 21
418.146482
 31
0.0
210
0.0
220
1.0
230
0.0
  0
LINE
  5
28E
330
70
100
AcDbEntity
  8
Visible
100
AcDbLine
 10
455.83064
 20
424.146482
 30
0.0
 11
485.83064
 21
424.146482
 31
0.0
210
0.0
220
1.0
230
0.0
  0
LINE
  5
28F
330
70
100
AcDbEntity
  8
Visible
100
AcDbLine
 10
455.83064
 20
418.146482
 30
0.0
 11
455.83064
 21
424.146482
 31
0.0
210
0.0
220
1.0
230
0.0
  0
LINE
  5
290
330
70
100
AcDbEntity
  8
Visible
100
AcDbLine
 10
425.83064
 20
418.146482
 30
0.0
 11
455.83064
 21
418.146482
 31
0.0
210
0.0
220
1.0
230
0.0
  0
LINE
  5
291
330
70
100
AcDbEntity
  8
Visible
100
AcDbLine
 10
425.83064
 20
424.146482
 30
0.0
 11
425.83064
 21
418.146482
 31
0.0
210
0.0
220
1.0
230
0.0
  0
CIRCLE
  5
292
330
70
100
AcDbEntity
  8
Visible
100
AcDbCircle
 10
-600.299162
 20
16.765133
 30
0.0
 40
10.0
210
-0.0000000000000002
220
0.0
230
-1.0
  0
LINE
  5
293
330
70
100
AcDbEntity
  8
Visible
100
AcDbLine
 10
607.799162
 20
-8.317063
 30
0.0
 11
617.799162
 21
-8.317063
 31
0.0
210
0.0
220
1.0
230
0.0
  0
LINE
  5
294
330
70
100
AcDbEntity
  8
Visible
100
AcDbLine
 10
607.799162
 20
-2.317063
 30
0.0
 11
607.799162
 21
-8.317063
 31
0.0
210
0.0
220
1.0
230
0.0
  0
LINE
  5
295
330
70
100
AcDbEntity
  8
Visible
100
AcDbLine
 10
592.799162
 20
-2.317063
 30
0.0
 11
607.799162
 21
-2.317063
 31
0.0
210
0.0
220
1.0
230
0.0
  0
LINE
  5
296
330
70
100
AcDbEntity
  8
Visible
100
AcDbLine
 10
592.799162
 20
-8.317063
 30
0.0
 11
592.799162
 21
-2.317063
 31
0.0
210
0.0
220
1.0
230
0.0
  0
LINE
  5
297
330
70
100
AcDbEntity
  8
Visible
100
AcDbLine
 10
582.799162
 20
-8.317063
 30
0.0
 11
592.799162
 21
-8.317063
 31
0.0
210
0.0
220
1.0
230
0.0
  0
LINE
  5
298
330
70
100
AcDbEntity
  8
Visible
100
AcDbLine
 10
582.799162
 20
333.682937
 30
0.0
 11
582.799162
 21
-8.317063
 31
0.0
210
0.0
220
1.0
230
0.0
  0
LINE
  5
299
330
70
100
AcDbEntity
  8
Visible
100
AcDbLine
 10
592.799162
 20
333.682937
 30
0.0
 11
582.799162
 21
333.682937
 31
0.0
210
0.0
220
1.0
230
0.0
  0
LINE
  5
29A
330
70
100
AcDbEntity
  8
Visible
100
AcDbLine
 10
592.799162
 20
327.682937
 30
0.0
 11
592.799162
 21
333.682937
 31
0.0
210
0.0
220
1.0
230
0.0
  0
LINE
  5
29B
330
70
100
AcDbEntity
  8
Visible
100
AcDbLine
 10
607.799162
 20
327.682937
 30
0.0
 11
592.799162
 21
327.682937
 31
0.0
210
0.0
220
1.0
230
0.0
  0
LINE
  5
29C
330
70
100
AcDbEntity
  8
Visible
100
AcDbLine
 10
607.799162
 20
333.682937
 30
0.0
 11
607.799162
 21
327.682937
 31
0.0
210
0.0
220
1.0
230
0.0
  0
LINE
  5
29D
330
70
100
AcDbEntity
  8
Visible
100
AcDbLine
 10
617.799162
 20
333.682937
 30
0.0
 11
607.799162
 21
333.682937
 31
0.0
210
0.0
220
1.0
230
0.0
  0
LINE
  5
29E
330
70
100
AcDbEntity
  8
Visible
100
AcDbLine
 10
617.799162
 20
-8.317063
 30
0.0
 11
617.799162
 21
333.682937
 31
0.0
210
0.0
220
1.0
230
0.0
  0
CIRCLE
  5
29F
330
70
100
AcDbEntity
  8
Visible
100
AcDbCircle
 10
49.568138
 20
75.095615
 30
0.0
 40
20.0
210
-0.0000000000000002
220
0.0
230
-1.0
  0
LINE
  5
2A0
330
70
100
AcDbEntity
  8
Visible
100
AcDbLine
 10
-214.568138
 20
5.732615
 30
0.0
 11
-214.568138
 21
-34.267385
 31
0.0
210
0.0
220
1.0
230
0.0
  0
LINE
  5
2A1
330
70
100
AcDbEntity
  8
Visible
100
AcDbLine
 10
-220.568138
 20
5.732615
 30
0.0
 11
-214.568138
 21
5.732615
 31
0.0
210
0.0
220
1.0
230
0.0
  0
LINE
  5
2A2
330
70
100
AcDbEntity
  8
Visible
100
AcDbLine
 10
-220.568138
 20
75.095615
 30
0.0
 11
-220.568138
 21
5.732615
 31
0.0
210
0.0
220
1.0
230
0.0
  0
LINE
  5
2A3
330
70
100
AcDbEntity
  8
Visible
100
AcDbLine
 10
-214.568138
 20
75.095615
 30
0.0
 11
-220.568138
 21
75.095615
 31
0.0
210
0.0
220
1.0
230
0.0
  0
LINE
  5
2A4
330
70
100
AcDbEntity
  8
Visible
100
AcDbLine
 10
-214.568138
 20
115.095615
 30
0.0
 11
-214.568138
 21
75.095615
 31
0.0
210
0.0
220
1.0
230
0.0
  0
LINE
  5
2A5
330
70
100
AcDbEntity
  8
Visible
100
AcDbLine
 10
-220.568138
 20
115.095615
 30
0.0
 11
-214.568138
 21
115.095615
 31
0.0
210
0.0
220
1.0
230
0.0
  0
LINE
  5
2A6
330
70
100
AcDbEntity
  8
Visible
100
AcDbLine
 10
-220.568138
 20
175.095615
 30
0.0
 11
-220.568138
 21
115.095615
 31
0.0
210
0.0
220
1.0
230
0.0
  0
LINE
  5
2A7
330
70
100
AcDbEntity
  8
Visible
100
AcDbLine
 10
-214.568138
 20
175.095615
 30
0.0
 11
-220.568138
 21
175.095615
 31
0.0
210
0.0
220
1.0
230
0.0
  0
LINE
  5
2A8
330
70
100
AcDbEntity
  8
Visible
100
AcDbLine
 10
-214.568138
 20
181.095615
 30
0.0
 11
-214.568138
 21
175.095615
 31
0.0
210
0.0
220
1.0
230
0.0
  0
LINE
  5
2A9
330
70
100
AcDbEntity
  8
Visible
100
AcDbLine
 10
-184.568138
 20
181.095615
 30
0.0
 11
-214.568138
 21
181.095615
 31
0.0
210
0.0
220
1.0
230
0.0
  0
LINE
  5
2AA
330
70
100
AcDbEntity
  8
Visible
100
AcDbLine
 10
-184.568138
 20
175.095615
 30
0.0
 11
-184.568138
 21
181.095615
 31
0.0
210
0.0
220
1.0
230
0.0
  0
LINE
  5
2AB
330
70
100
AcDbEntity
  8
Visible
100
AcDbLine
 10
-154.568138
 20
175.095615
 30
0.0
 11
-184.568138
 21
175.095615
 31
0.0
210
0.0
220
1.0
230
0.0
  0
LINE
  5
2AC
330
70
100
AcDbEntity
  8
Visible
100
AcDbLine
 10
-154.568138
 20
181.095615
 30
0.0
 11
-154.568138
 21
175.095615
 31
0.0
210
0.0
220
1.0
230
0.0
  0
LINE
  5
2AD
330
70
100
AcDbEntity
  8
Visible
100
AcDbLine
 10
-124.568138
 20
181.095615
 30
0.0
 11
-154.568138
 21
181.095615
 31
0.0
210
0.0
220
1.0
230
0.0
  0
LINE
  5
2AE
330
70
100
AcDbEntity
  8
Visible
100
AcDbLine
 10
-124.568138
 20
175.095615
 30
0.0
 11
-124.568138
 21
181.095615
 31
0.0
210
0.0
220
1.0
230
0.0
  0
LINE
  5
2AF
330
70
100
AcDbEntity
  8
Visible
100
AcDbLine
 10
-94.568138
 20
175.095615
 30
0.0
 11
-124.568138
 21
175.095615
 31
0.0
210
0.0
220
1.0
230
0.0
  0
LINE
  5
2B0
330
70
100
AcDbEntity
  8
Visible
100
AcDbLine
 10
-94.568138
 20
181.095615
 30
0.0
 11
-94.568138
 21
175.095615
 31
0.0
210
0.0
220
1.0
230
0.0
  0
LINE
  5
2B1
330
70
100
AcDbEntity
  8
Visible
100
AcDbLine
 10
-64.568138
 20
181.095615
 30
0.0
 11
-94.568138
 21
181.095615
 31
0.0
210
0.0
220
1.0
230
0.0
  0
LINE
  5
2B2
330
70
100
AcDbEntity
  8
Visible
100
AcDbLine
 10
-64.568138
 20
175.095615
 30
0.0
 11
-64.568138
 21
181.095615
 31
0.0
210
0.0
220
1.0
230
0.0
  0
LINE
  5
2B3
330
70
100
AcDbEntity
  8
Visible
100
AcDbLine
 10
-34.568138
 20
175.095615
 30
0.0
 11
-64.568138
 21
175.095615
 31
0.0
210
0.0
220
1.0
230
0.0
  0
LINE
  5
2B4
330
70
100
AcDbEntity
  8
Visible
100
AcDbLine
 10
-34.568138
 20
181.095615
 30
0.0
 11
-34.568138
 21
175.095615
 31
0.0
210
0.0
220
1.0
230
0.0
  0
LINE
  5
2B5
330
70
100
AcDbEntity
  8
Visible
100
AcDbLine
 10
-4.568138
 20
181.095615
 30
0.0
 11
-34.568138
 21
181.095615
 31
0.0
210
0.0
220
1.0
230
0.0
  0
LINE
  5
2B6
330
70
100
AcDbEntity
  8
Visible
100
AcDbLine
 10
-4.568138
 20
175.095615
 30
0.0
 11
-4.568138
 21
181.095615
 31
0.0
210
0.0
220
1.0
230
0.0
  0
LINE
  5
2B7
330
70
100
AcDbEntity
  8
Visible
100
AcDbLine
 10
25.431862
 20
175.095615
 30
0.0
 11
-4.568138
 21
175.095615
 31
0.0
210
0.0
220
1.0
230
0.0
  0
LINE
  5
2B8
330
70
100
AcDbEntity
  8
Visible
100
AcDbLine
 10
25.431862
 20
181.095615
 30
0.0
 11
25.431862
 21
175.095615
 31
0.0
210
0.0
220
1.0
230
0.0
  0
LINE
  5
2B9
330
70
100
AcDbEntity
  8
Visible
100
AcDbLine
 10
55.431862
 20
181.095615
 30
0.0
 11
25.431862
 21
181.095615
 31
0.0
210
0.0
220
1.0
230
0.0
  0
LINE
  5
2BA
330
70
100
AcDbEntity
  8
Visible
100
AcDbLine
 10
55.431862
 20
175.095615
 30
0.0
 11
55.431862
 21
181.095615
 31
0.0
210
0.0
220
1.0
230
0.0
  0
LINE
  5
2BB
330
70
100
AcDbEntity
  8
Visible
100
AcDbLine
 10
85.431862
 20
175.095615
 30
0.0
 11
55.431862
 21
175.095615
 31
0.0
210
0.0
220
1.0
230
0.0
  0
LINE
  5
2BC
330
70
100
AcDbEntity
  8
Visible
100
AcDbLine
 10
85.431862
 20
181.095615
 30
0.0
 11
85.431862
 21
175.095615
 31
0.0
210
0.0
220
1.0
230
0.0
  0
LINE
  5
2BD
330
70
100
AcDbEntity
  8
Visible
100
AcDbLine
 10
115.431862
 20
181.095615
 30
0.0
 11
85.431862
 21
181.095615
 31
0.0
210
0.0
220
1.0
230
0.0
  0
LINE
  5
2BE
330
70
100
AcDbEntity
  8
Visible
100
AcDbLine
 10
115.431862
 20
175.095615
 30
0.0
 11
115.431862
 21
181.095615
 31
0.0
210
0.0
220
1.0
230
0.0
  0
LINE
  5
2BF
330
70
100
AcDbEntity
  8
Visible
100
AcDbLine
 10
121.431862
 20
175.095615
 30
0.0
 11
115.431862
 21
175.095615
 31
0.0
210
0.0
220
1.0
230
0.0
  0
LINE
  5
2C0
330
70
100
AcDbEntity
  8
Visible
100
AcDbLine
 10
121.431862
 20
115.095615
 30
0.0
 11
121.431862
 21
175.095615
 31
0.0
210
0.0
220
1.0
230
0.0
  0
LINE
  5
2C1
330
70
100
AcDbEntity
  8
Visible
100
AcDbLine
 10
115.431862
 20
115.095615
 30
0.0
 11
121.431862
 21
115.095615
 31
0.0
210
0.0
220
1.0
230
0.0
  0
LINE
  5
2C2
330
70
100
AcDbEntity
  8
Visible
100
AcDbLine
 10
115.431862
 20
75.095615
 30
0.0
 11
115.431862
 21
115.095615
 31
0.0
210
0.0
220
1.0
230
0.0
  0
LINE
  5
2C3
330
70
100
AcDbEntity
  8
Visible
100
AcDbLine
 10
121.431862
 20
75.095615
 30
0.0
 11
115.431862
 21
75.095615
 31
0.0
210
0.0
220
1.0
230
0.0
  0
LINE
  5
2C4
330
70
100
AcDbEntity
  8
Visible
100
AcDbLine
 10
121.431862
 20
5.732615
 30
0.0
 11
121.431862
 21
75.095615
 31
0.0
210
0.0
220
1.0
230
0.0
  0
LINE
  5
2C5
330
70
100
AcDbEntity
  8
Visible
100
AcDbLine
 10
115.431862
 20
5.732615
 30
0.0
 11
121.431862
 21
5.732615
 31
0.0
210
0.0
220
1.0
230
0.0
  0
LINE
  5
2C6
330
70
100
AcDbEntity
  8
Visible
100
AcDbLine
 10
115.431862
 20
-34.267385
 30
0.0
 11
115.431862
 21
5.732615
 31
0.0
210
0.0
220
1.0
230
0.0
  0
LINE
  5
2C7
330
70
100
AcDbEntity
  8
Visible
100
AcDbLine
 10
121.431862
 20
-34.267385
 30
0.0
 11
115.431862
 21
-34.267385
 31
0.0
210
0.0
220
1.0
230
0.0
  0
LINE
  5
2C8
330
70
100
AcDbEntity
  8
Visible
100
AcDbLine
 10
121.431862
 20
-94.267385
 30
0.0
 11
121.431862
 21
-34.267385
 31
0.0
210
0.0
220
1.0
230
0.0
  0
LINE
  5
2C9
330
70
100
AcDbEntity
  8
Visible
100
AcDbLine
 10
115.431862
 20
-94.267385
 30
0.0
 11
121.431862
 21
-94.267385
 31
0.0
210
0.0
220
1.0
230
0.0
  0
LINE
  5
2CA
330
70
100
AcDbEntity
  8
Visible
100
AcDbLine
 10
115.431862
 20
-100.267385
 30
0.0
 11
115.431862
 21
-94.267385
 31
0.0
210
0.0
220
1.0
230
0.0
  0
LINE
  5
2CB
330
70
100
AcDbEntity
  8
Visible
100
AcDbLine
 10
85.431862
 20
-100.267385
 30
0.0
 11
115.431862
 21
-100.267385
 31
0.0
210
0.0
220
1.0
230
0.0
  0
LINE
  5
2CC
330
70
100
AcDbEntity
  8
Visible
100
AcDbLine
 10
85.431862
 20
-94.267385
 30
0.0
 11
85.431862
 21
-100.267385
 31
0.0
210
0.0
220
1.0
230
0.0
  0
LINE
  5
2CD
330
70
100
AcDbEntity
  8
Visible
100
AcDbLine
 10
55.431862
 20
-94.267385
 30
0.0
 11
85.431862
 21
-94.267385
 31
0.0
210
0.0
220
1.0
230
0.0
  0
LINE
  5
2CE
330
70
100
AcDbEntity
  8
Visible
100
AcDbLine
 10
55.431862
 20
-100.267385
 30
0.0
 11
55.431862
 21
-94.267385
 31
0.0
210
0.0
220
1.0
230
0.0
  0
LINE
  5
2CF
330
70
100
AcDbEntity
  8
Visible
100
AcDbLine
 10
25.431862
 20
-100.267385
 30
0.0
 11
55.431862
 21
-100.267385
 31
0.0
210
0.0
220
1.0
230
0.0
  0
LINE
  5
2D0
330
70
100
AcDbEntity
  8
Visible
100
AcDbLine
 10
25.431862
 20
-94.267385
 30
0.0
 11
25.431862
 21
-100.267385
 31
0.0
210
0.0
220
1.0
230
0.0
  0
LINE
  5
2D1
330
70
100
AcDbEntity
  8
Visible
100
AcDbLine
 10
-4.568138
 20
-94.267385
 30
0.0
 11
25.431862
 21
-94.267385
 31
0.0
210
0.0
220
1.0
230
0.0
  0
LINE
  5
2D2
330
70
100
AcDbEntity
  8
Visible
100
AcDbLine
 10
-4.568138
 20
-100.267385
 30
0.0
 11
-4.568138
 21
-94.267385
 31
0.0
210
0.0
220
1.0
230
0.0
  0
LINE
  5
2D3
330
70
100
AcDbEntity
  8
Visible
100
AcDbLine
 10
-34.568138
 20
-100.267385
 30
0.0
 11
-4.568138
 21
-100.267385
 31
0.0
210
0.0
220
1.0
230
0.0
  0
LINE
  5
2D4
330
70
100
AcDbEntity
  8
Visible
100
AcDbLine
 10
-34.568138
 20
-94.267385
 30
0.0
 11
-34.568138
 21
-100.267385
 31
0.0
210
0.0
220
1.0
230
0.0
  0
LINE
  5
2D5
330
70
100
AcDbEntity
  8
Visible
100
AcDbLine
 10
-64.568138
 20
-94.267385
 30
0.0
 11
-34.568138
 21
-94.267385
 31
0.0
210
0.0
220
1.0
230
0.0
  0
LINE
  5
2D6
330
70
100
AcDbEntity
  8
Visible
100
AcDbLine
 10
-64.568138
 20
-100.267385
 30
0.0
 11
-64.568138
 21
-94.267385
 31
0.0
210
0.0
220
1.0
230
0.0
  0
LINE
  5
2D7
330
70
100
AcDbEntity
  8
Visible
100
AcDbLine
 10
-94.568138
 20
-100.267385
 30
0.0
 11
-64.568138
 21
-100.267385
 31
0.0
210
0.0
220
1.0
230
0.0
  0
LINE
  5
2D8
330
70
100
AcDbEntity
  8
Visible
100
AcDbLine
 10
-94.568138
 20
-94.267385
 30
0.0
 11
-94.568138
 21
-100.267385
 31
0.0
210
0.0
220
1.0
230
0.0
  0
LINE
  5
2D9
330
70
100
AcDbEntity
  8
Visible
100
AcDbLine
 10
-124.568138
 20
-94.267385
 30
0.0
 11
-94.568138
 21
-94.267385
 31
0.0
210
0.0
220
1.0
230
0.0
  0
LINE
  5
2DA
330
70
100
AcDbEntity
  8
Visible
100
AcDbLine
 10
-124.568138
 20
-100.267385
 30
0.0
 11
-124.568138
 21
-94.267385
 31
0.0
210
0.0
220
1.0
230
0.0
  0
LINE
  5
2DB
330
70
100
AcDbEntity
  8
Visible
100
AcDbLine
 10
-154.568138
 20
-100.267385
 30
0.0
 11
-124.568138
 21
-100.267385
 31
0.0
210
0.0
220
1.0
230
0.0
  0
LINE
  5
2DC
330
70
100
AcDbEntity
  8
Visible
100
AcDbLine
 10
-154.568138
 20
-94.267385
 30
0.0
 11
-154.568138
 21
-100.267385
 31
0.0
210
0.0
220
1.0
230
0.0
  0
LINE
  5
2DD
330
70
100
AcDbEntity
  8
Visible
100
AcDbLine
 10
-184.568138
 20
-94.267385
 30
0.0
 11
-154.568138
 21
-94.267385
 31
0.0
210
0.0
220
1.0
230
0.0
  0
LINE
  5
2DE
330
70
100
AcDbEntity
  8
Visible
100
AcDbLine
 10
-184.568138
 20
-100.267385
 30
0.0
 11
-184.568138
 21
-94.267385
 31
0.0
210
0.0
220
1.0
230
0.0
  0
LINE
  5
2DF
330
70
100
AcDbEntity
  8
Visible
100
AcDbLine
 10
-214.568138
 20
-100.267385
 30
0.0
 11
-184.568138
 21
-100.267385
 31
0.0
210
0.0
220
1.0
230
0.0
  0
LINE
  5
2E0
330
70
100
AcDbEntity
  8
Visible
100
AcDbLine
 10
-214.568138
 20
-94.267385
 30
0.0
 11
-214.568138
 21
-100.267385
 31
0.0
210
0.0
220
1.0
230
0.0
  0
LINE
  5
2E1
330
70
100
AcDbEntity
  8
Visible
100
AcDbLine
 10
-220.568138
 20
-94.267385
 30
0.0
 11
-214.568138
 21
-94.267385
 31
0.0
210
0.0
220
1.0
230
0.0
  0
LINE
  5
2E2
330
70
100
AcDbEntity
  8
Visible
100
AcDbLine
 10
-220.568138
 20
-34.267385
 30
0.0
 11
-220.568138
 21
-94.267385
 31
0.0
210
0.0
220
1.0
230
0.0
  0
LINE
  5
2E3
330
70
100
AcDbEntity
  8
Visible
100
AcDbLine
 10
-214.568138
 20
-34.267385
 30
0.0
 11
-220.568138
 21
-34.267385
 31
0.0
210
0.0
220
1.0
230
0.0
  0
LINE
  5
2E4
330
70
100
AcDbEntity
  8
Visible
100
AcDbLine
 10
477.58167
 20
117.258242
 30
0.0
 11
327.58167
 21
117.258242
 31
0.0
210
0.0
220
1.0
230
0.0
  0
LINE
  5
2E5
330
70
100
AcDbEntity
  8
Visible
100
AcDbLine
 10
477.58167
 20
122.258242
 30
0.0
 11
477.58167
 21
117.258242
 31
0.0
210
0.0
220
1.0
230
0.0
  0
LINE
  5
2E6
330
70
100
AcDbEntity
  8
Visible
100
AcDbLine
 10
327.58167
 20
122.258242
 30
0.0
 11
477.58167
 21
122.258242
 31
0.0
210
0.0
220
1.0
230
0.0
  0
LINE
  5
2E7
330
70
100
AcDbEntity
  8
Visible
100
AcDbLine
 10
327.58167
 20
117.258242
 30
0.0
 11
327.58167
 21
122.258242
 31
0.0
210
0.0
220
1.0
230
0.0
  0
LINE
  5
2E8
330
70
100
AcDbEntity
  8
Visible
100
AcDbLine
 10
477.58167
 20
82.258242
 30
0.0
 11
477.58167
 21
77.258242
 31
0.0
210
0.0
220
1.0
230
0.0
  0
LINE
  5
2E9
330
70
100
AcDbEntity
  8
Visible
100
AcDbLine
 10
327.58167
 20
82.258242
 30
0.0
 11
477.58167
 21
82.258242
 31
0.0
210
0.0
220
1.0
230
0.0
  0
LINE
  5
2EA
330
70
100
AcDbEntity
  8
Visible
100
AcDbLine
 10
327.58167
 20
77.258242
 30
0.0
 11
327.58167
 21
82.258242
 31
0.0
210
0.0
220
1.0
230
0.0
  0
LINE
  5
2EB
330
70
100
AcDbEntity
  8
Visible
100
AcDbLine
 10
477.58167
 20
77.258242
 30
0.0
 11
327.58167
 21
77.258242
 31
0.0
210
0.0
220
1.0
230
0.0
  0
LINE
  5
2EC
330
70
100
AcDbEntity
  8
Visible
100
AcDbLine
 10
477.58167
 20
108.924909
 30
0.0
 11
477.58167
 21
103.924909
 31
0.0
210
0.0
220
1.0
230
0.0
  0
LINE
  5
2ED
330
70
100
AcDbEntity
  8
Visible
100
AcDbLine
 10
327.58167
 20
108.924909
 30
0.0
 11
477.58167
 21
108.924909
 31
0.0
210
0.0
220
1.0
230
0.0
  0
LINE
  5
2EE
330
70
100
AcDbEntity
  8
Visible
100
AcDbLine
 10
327.58167
 20
103.924909
 30
0.0
 11
327.58167
 21
108.924909
 31
0.0
210
0.0
220
1.0
230
0.0
  0
LINE
  5
2EF
330
70
100
AcDbEntity
  8
Visible
100
AcDbLine
 10
477.58167
 20
103.924909
 30
0.0
 11
327.58167
 21
103.924909
 31
0.0
210
0.0
220
1.0
230
0.0
  0
LINE
  5
2F0
330
70
100
AcDbEntity
  8
Visible
100
AcDbLine
 10
327.58167
 20
90.591576
 30
0.0
 11
327.58167
 21
95.591576
 31
0.0
210
0.0
220
1.0
230
0.0
  0
LINE
  5
2F1
330
70
100
AcDbEntity
  8
Visible
100
AcDbLine
 10
477.58167
 20
90.591576
 30
0.0
 11
327.58167
 21
90.591576
 31
0.0
210
0.0
220
1.0
230
0.0
  0
LINE
  5
2F2
330
70
100
AcDbEntity
  8
Visible
100
AcDbLine
 10
477.58167
 20
95.591576
 30
0.0
 11
477.58167
 21
90.591576
 31
0.0
210
0.0
220
1.0
230
0.0
  0
LINE
  5
2F3
330
70
100
AcDbEntity
  8
Visible
100
AcDbLine
 10
327.58167
 20
95.591576
 30
0.0
 11
477.58167
 21
95.591576
 31
0.0
210
0.0
220
1.0
230
0.0
  0
LINE
  5
2F4
330
70
100
AcDbEntity
  8
Visible
100
AcDbLine
 10
486.08167
 20
266.28368
 30
0.0
 11
486.08167
 21
247.28368
 31
0.0
210
0.0
220
1.0
230
0.0
  0
LINE
  5
2F5
330
70
100
AcDbEntity
  8
Visible
100
AcDbLine
 10
474.08167
 20
266.28368
 30
0.0
 11
486.08167
 21
266.28368
 31
0.0
210
0.0
220
1.0
230
0.0
  0
LINE
  5
2F6
330
70
100
AcDbEntity
  8
Visible
100
AcDbLine
 10
474.08167
 20
247.28368
 30
0.0
 11
474.08167
 21
266.28368
 31
0.0
210
0.0
220
1.0
230
0.0
  0
LINE
  5
2F7
330
70
100
AcDbEntity
  8
Visible
100
AcDbLine
 10
486.08167
 20
247.28368
 30
0.0
 11
474.08167
 21
247.28368
 31
0.0
210
0.0
220
1.0
230
0.0
  0
LINE
  5
2F8
330
70
100
AcDbEntity
  8
Visible
100
AcDbLine
 10
497.58167
 20
46.447311
 30
0.0
 11
497.58167
 21
83.906866
 31
0.0
210
0.0
220
1.0
230
0.0
  0
LINE
  5
2F9
330
70
100
AcDbEntity
  8
Visible
100
AcDbLine
 10
503.558287
 20
46.447311
 30
0.0
 11
497.58167
 21
46.447311
 31
0.0
210
0.0
220
1.0
230
0.0
  0
LINE
  5
2FA
330
70
100
AcDbEntity
  8
Visible
100
AcDbLine
 10
503.558287
 20
41.447311
 30
0.0
 11
503.558287
 21
46.447311
 31
0.0
210
0.0
220
1.0
230
0.0
  0
LINE
  5
2FB
330
70
100
AcDbEntity
  8
Visible
100
AcDbLine
 10
512.558287
 20
41.447311
 30
0.0
 11
503.558287
 21
41.447311
 31
0.0
210
0.0
220
1.0
230
0.0
  0
LINE
  5
2FC
330
70
100
AcDbEntity
  8
Visible
100
AcDbLine
 10
512.558287
 20
21.447311
 30
0.0
 11
512.558287
 21
41.447311
 31
0.0
210
0.0
220
1.0
230
0.0
  0
LINE
  5
2FD
330
70
100
AcDbEntity
  8
Visible
100
AcDbLine
 10
503.558287
 20
21.447311
 30
0.0
 11
512.558287
 21
21.447311
 31
0.0
210
0.0
220
1.0
230
0.0
  0
LINE
  5
2FE
330
70
100
AcDbEntity
  8
Visible
100
AcDbLine
 10
503.58167
 20
16.447366
 30
0.0
 11
503.558287
 21
21.447311
 31
0.0
210
0.0
220
1.0
230
0.0
  0
LINE
  5
2FF
330
70
100
AcDbEntity
  8
Visible
100
AcDbLine
 10
497.58167
 20
16.447366
 30
0.0
 11
503.58167
 21
16.447366
 31
0.0
210
0.0
220
1.0
230
0.0
  0
LINE
  5
300
330
70
100
AcDbEntity
  8
Visible
100
AcDbLine
 10
467.58167
 20
16.307064
 30
0.0
 11
497.58167
 21
16.447366
 31
0.0
210
0.0
220
1.0
230
0.0
  0
LINE
  5
301
330
70
100
AcDbEntity
  8
Visible
100
AcDbLine
 10
467.58167
 20
10.28368
 30
0.0
 11
467.58167
 21
16.307064
 31
0.0
210
0.0
220
1.0
230
0.0
  0
LINE
  5
302
330
70
100
AcDbEntity
  8
Visible
100
AcDbLine
 10
432.58167
 20
10.28368
 30
0.0
 11
467.58167
 21
10.28368
 31
0.0
210
0.0
220
1.0
230
0.0
  0
LINE
  5
303
330
70
100
AcDbEntity
  8
Visible
100
AcDbLine
 10
432.58167
 20
16.28368
 30
0.0
 11
432.58167
 21
10.28368
 31
0.0
210
0.0
220
1.0
230
0.0
  0
LINE
  5
304
330
70
100
AcDbEntity
  8
Visible
100
AcDbLine
 10
377.394442
 20
16.28368
 30
0.0
 11
432.58167
 21
16.28368
 31
0.0
210
0.0
220
1.0
230
0.0
  0
LINE
  5
305
330
70
100
AcDbEntity
  8
Visible
100
AcDbLine
 10
377.394442
 20
10.28368
 30
0.0
 11
377.394442
 21
16.28368
 31
0.0
210
0.0
220
1.0
230
0.0
  0
LINE
  5
306
330
70
100
AcDbEntity
  8
Visible
100
AcDbLine
 10
342.394442
 20
10.28368
 30
0.0
 11
377.394442
 21
10.28368
 31
0.0
210
0.0
220
1.0
230
0.0
  0
LINE
  5
307
330
70
100
AcDbEntity
  8
Visible
100
AcDbLine
 10
342.394442
 20
16.28368
 30
0.0
 11
342.394442
 21
10.28368
 31
0.0
210
0.0
220
1.0
230
0.0
  0
LINE
  5
308
330
70
100
AcDbEntity
  8
Visible
100
AcDbLine
 10
312.394442
 20
16.28368
 30
0.0
 11
342.394442
 21
16.28368
 31
0.0
210
0.0
220
1.0
230
0.0
  0
LINE
  5
309
330
70
100
AcDbEntity
  8
Visible
100
AcDbLine
 10
301.975551
 20
75.372145
 30
0.0
 11
312.394442
 21
16.28368
 31
0.0
210
0.0
220
1.0
230
0.0
  0
LINE
  5
30A
330
70
100
AcDbEntity
  8
Visible
100
AcDbLine
 10
296.066705
 20
74.330256
 30
0.0
 11
301.975551
 21
75.372145
 31
0.0
210
0.0
220
1.0
230
0.0
  0
LINE
  5
30B
330
70
100
AcDbEntity
  8
Visible
100
AcDbLine
 10
289.120778
 20
113.722566
 30
0.0
 11
296.066705
 21
74.330256
 31
0.0
210
0.0
220
1.0
230
0.0
  0
LINE
  5
30C
330
70
100
AcDbEntity
  8
Visible
100
AcDbLine
 10
295.029624
 20
114.764455
 30
0.0
 11
289.120778
 21
113.722566
 31
0.0
210
0.0
220
1.0
230
0.0
  0
LINE
  5
30D
330
70
100
AcDbEntity
  8
Visible
100
AcDbLine
 10
282.984937
 20
183.073269
 30
0.0
 11
295.029624
 21
114.764455
 31
0.0
210
0.0
220
1.0
230
0.0
  0
LINE
  5
30E
330
70
100
AcDbEntity
  8
Visible
100
AcDbLine
 10
277.076091
 20
182.03138
 30
0.0
 11
282.984937
 21
183.073269
 31
0.0
210
0.0
220
1.0
230
0.0
  0
LINE
  5
30F
330
70
100
AcDbEntity
  8
Visible
100
AcDbLine
 10
270.130164
 20
221.42369
 30
0.0
 11
277.076091
 21
182.03138
 31
0.0
210
0.0
220
1.0
230
0.0
  0
LINE
  5
310
330
70
100
AcDbEntity
  8
Visible
100
AcDbLine
 10
276.03901
 20
222.465579
 30
0.0
 11
270.130164
 21
221.42369
 31
0.0
210
0.0
220
1.0
230
0.0
  0
LINE
  5
311
330
70
100
AcDbEntity
  8
Visible
100
AcDbLine
 10
264.57823
 20
287.462891
 30
0.0
 11
276.03901
 21
222.465579
 31
0.0
210
0.0
220
1.0
230
0.0
  0
LINE
  5
312
330
70
100
AcDbEntity
  8
Visible
100
AcDbLine
 10
286.244001
 20
291.283151
 30
0.0
 11
264.57823
 21
287.462891
 31
0.0
210
0.0
220
1.0
230
0.0
  0
LINE
  5
313
330
70
100
AcDbEntity
  8
Visible
100
AcDbLine
 10
287.28589
 20
285.374304
 30
0.0
 11
286.244001
 21
291.283151
 31
0.0
210
0.0
220
1.0
230
0.0
  0
LINE
  5
314
330
70
100
AcDbEntity
  8
Visible
100
AcDbLine
 10
309.444064
 20
289.281388
 30
0.0
 11
287.28589
 21
285.374304
 31
0.0
210
0.0
220
1.0
230
0.0
  0
LINE
  5
315
330
70
100
AcDbEntity
  8
Visible
100
AcDbLine
 10
308.402175
 20
295.190235
 30
0.0
 11
309.444064
 21
289.281388
 31
0.0
210
0.0
220
1.0
230
0.0
  0
LINE
  5
316
330
70
100
AcDbEntity
  8
Visible
100
AcDbLine
 10
330.067946
 20
299.010495
 30
0.0
 11
308.402175
 21
295.190235
 31
0.0
210
0.0
220
1.0
230
0.0
  0
LINE
  5
317
330
70
100
AcDbEntity
  8
Visible
100
AcDbLine
 10
331.109835
 20
293.101648
 30
0.0
 11
330.067946
 21
299.010495
 31
0.0
210
0.0
220
1.0
230
0.0
  0
LINE
  5
318
330
70
100
AcDbEntity
  8
Visible
100
AcDbLine
 10
353.268009
 20
297.008732
 30
0.0
 11
331.109835
 21
293.101648
 31
0.0
210
0.0
220
1.0
230
0.0
  0
LINE
  5
319
330
70
100
AcDbEntity
  8
Visible
100
AcDbLine
 10
352.22612
 20
302.917579
 30
0.0
 11
353.268009
 21
297.008732
 31
0.0
210
0.0
220
1.0
230
0.0
  0
LINE
  5
31A
330
70
100
AcDbEntity
  8
Visible
100
AcDbLine
 10
373.891891
 20
306.737839
 30
0.0
 11
352.22612
 21
302.917579
 31
0.0
210
0.0
220
1.0
230
0.0
  0
LINE
  5
31B
330
70
100
AcDbEntity
  8
Visible
100
AcDbLine
 10
374.93378
 20
300.828992
 30
0.0
 11
373.891891
 21
306.737839
 31
0.0
210
0.0
220
1.0
230
0.0
  0
LINE
  5
31C
330
70
100
AcDbEntity
  8
Visible
100
AcDbLine
 10
397.091954
 20
304.736076
 30
0.0
 11
374.93378
 21
300.828992
 31
0.0
210
0.0
220
1.0
230
0.0
  0
LINE
  5
31D
330
70
100
AcDbEntity
  8
Visible
100
AcDbLine
 10
396.050065
 20
310.644923
 30
0.0
 11
397.091954
 21
304.736076
 31
0.0
210
0.0
220
1.0
230
0.0
  0
LINE
  5
31E
330
70
100
AcDbEntity
  8
Visible
100
AcDbLine
 10
417.715836
 20
314.465183
 30
0.0
 11
396.050065
 21
310.644923
 31
0.0
210
0.0
220
1.0
230
0.0
  0
LINE
  5
31F
330
70
100
AcDbEntity
  8
Visible
100
AcDbLine
 10
418.757725
 20
308.556336
 30
0.0
 11
417.715836
 21
314.465183
 31
0.0
210
0.0
220
1.0
230
0.0
  0
LINE
  5
320
330
70
100
AcDbEntity
  8
Visible
100
AcDbLine
 10
440.915899
 20
312.46342
 30
0.0
 11
418.757725
 21
308.556336
 31
0.0
210
0.0
220
1.0
230
0.0
  0
LINE
  5
321
330
70
100
AcDbEntity
  8
Visible
100
AcDbLine
 10
439.87401
 20
318.372267
 30
0.0
 11
440.915899
 21
312.46342
 31
0.0
210
0.0
220
1.0
230
0.0
  0
LINE
  5
322
330
70
100
AcDbEntity
  8
Visible
100
AcDbLine
 10
461.539781
 20
322.192526
 30
0.0
 11
439.87401
 21
318.372267
 31
0.0
210
0.0
220
1.0
230
0.0
  0
LINE
  5
323
330
70
100
AcDbEntity
  8
Visible
100
AcDbLine
 10
462.58167
 20
316.28368
 30
0.0
 11
461.539781
 21
322.192526
 31
0.0
210
0.0
220
1.0
230
0.0
  0
LINE
  5
324
330
70
100
AcDbEntity
  8
Visible
100
AcDbLine
 10
472.58167
 20
316.28368
 30
0.0
 11
462.58167
 21
316.28368
 31
0.0
210
0.0
220
1.0
230
0.0
  0
LINE
  5
325
330
70
100
AcDbEntity
  8
Visible
100
AcDbLine
 10
472.58167
 20
322.28368
 30
0.0
 11
472.58167
 21
316.28368
 31
0.0
210
0.0
220
1.0
230
0.0
  0
LINE
  5
326
330
70
100
AcDbEntity
  8
Visible
100
AcDbLine
 10
487.58167
 20
322.28368
 30
0.0
 11
472.58167
 21
322.28368
 31
0.0
210
0.0
220
1.0
230
0.0
  0
LINE
  5
327
330
70
100
AcDbEntity
  8
Visible
100
AcDbLine
 10
487.58167
 20
316.28368
 30
0.0
 11
487.58167
 21
322.28368
 31
0.0
210
0.0
220
1.0
230
0.0
  0
LINE
  5
328
330
70
100
AcDbEntity
  8
Visible
100
AcDbLine
 10
503.58167
 20
316.28368
 30
0.0
 11
487.58167
 21
316.28368
 31
0.0
210
0.0
220
1.0
230
0.0
  0
LINE
  5
329
330
70
100
AcDbEntity
  8
Visible
100
AcDbLine
 10
503.58167
 20
311.28368
 30
0.0
 11
503.58167
 21
316.28368
 31
0.0
210
0.0
220
1.0
230
0.0
  0
LINE
  5
32A
330
70
100
AcDbEntity
  8
Visible
100
AcDbLine
 10
512.58167
 20
311.28368
 30
0.0
 11
503.58167
 21
311.28368
 31
0.0
210
0.0
220
1.0
230
0.0
  0
LINE
  5
32B
330
70
100
AcDbEntity
  8
Visible
100
AcDbLine
 10
512.58167
 20
291.28368
 30
0.0
 11
512.58167
 21
311.28368
 31
0.0
210
0.0
220
1.0
230
0.0
  0
LINE
  5
32C
330
70
100
AcDbEntity
  8
Visible
100
AcDbLine
 10
503.58167
 20
291.28368
 30
0.0
 11
512.58167
 21
291.28368
 31
0.0
210
0.0
220
1.0
230
0.0
  0
LINE
  5
32D
330
70
100
AcDbEntity
  8
Visible
100
AcDbLine
 10
503.58167
 20
286.28368
 30
0.0
 11
503.58167
 21
291.28368
 31
0.0
210
0.0
220
1.0
230
0.0
  0
LINE
  5
32E
330
70
100
AcDbEntity
  8
Visible
100
AcDbLine
 10
497.58167
 20
286.28368
 30
0.0
 11
503.58167
 21
286.28368
 31
0.0
210
0.0
220
1.0
230
0.0
  0
LINE
  5
32F
330
70
100
AcDbEntity
  8
Visible
100
AcDbLine
 10
497.58167
 20
248.825811
 30
0.0
 11
497.58167
 21
286.28368
 31
0.0
210
0.0
220
1.0
230
0.0
  0
LINE
  5
330
330
70
100
AcDbEntity
  8
Visible
100
AcDbLine
 10
503.558287
 20
248.825811
 30
0.0
 11
497.58167
 21
248.825811
 31
0.0
210
0.0
220
1.0
230
0.0
  0
LINE
  5
331
330
70
100
AcDbEntity
  8
Visible
100
AcDbLine
 10
503.558287
 20
243.825811
 30
0.0
 11
503.558287
 21
248.825811
 31
0.0
210
0.0
220
1.0
230
0.0
  0
LINE
  5
332
330
70
100
AcDbEntity
  8
Visible
100
AcDbLine
 10
512.558287
 20
243.825811
 30
0.0
 11
503.558287
 21
243.825811
 31
0.0
210
0.0
220
1.0
230
0.0
  0
LINE
  5
333
330
70
100
AcDbEntity
  8
Visible
100
AcDbLine
 10
512.558287
 20
223.825811
 30
0.0
 11
512.558287
 21
243.825811
 31
0.0
210
0.0
220
1.0
230
0.0
  0
LINE
  5
334
330
70
100
AcDbEntity
  8
Visible
100
AcDbLine
 10
503.558287
 20
223.825811
 30
0.0
 11
512.558287
 21
223.825811
 31
0.0
210
0.0
220
1.0
230
0.0
  0
LINE
  5
335
330
70
100
AcDbEntity
  8
Visible
100
AcDbLine
 10
503.58167
 20
218.825866
 30
0.0
 11
503.558287
 21
223.825811
 31
0.0
210
0.0
220
1.0
230
0.0
  0
LINE
  5
336
330
70
100
AcDbEntity
  8
Visible
100
AcDbLine
 10
497.58167
 20
218.825866
 30
0.0
 11
503.58167
 21
218.825866
 31
0.0
210
0.0
220
1.0
230
0.0
  0
LINE
  5
337
330
70
100
AcDbEntity
  8
Visible
100
AcDbLine
 10
497.58167
 20
181.366311
 30
0.0
 11
497.58167
 21
218.825866
 31
0.0
210
0.0
220
1.0
230
0.0
  0
LINE
  5
338
330
70
100
AcDbEntity
  8
Visible
100
AcDbLine
 10
503.558287
 20
181.366311
 30
0.0
 11
497.58167
 21
181.366311
 31
0.0
210
0.0
220
1.0
230
0.0
  0
LINE
  5
339
330
70
100
AcDbEntity
  8
Visible
100
AcDbLine
 10
503.558287
 20
176.366311
 30
0.0
 11
503.558287
 21
181.366311
 31
0.0
210
0.0
220
1.0
230
0.0
  0
LINE
  5
33A
330
70
100
AcDbEntity
  8
Visible
100
AcDbLine
 10
512.558287
 20
176.366311
 30
0.0
 11
503.558287
 21
176.366311
 31
0.0
210
0.0
220
1.0
230
0.0
  0
LINE
  5
33B
330
70
100
AcDbEntity
  8
Visible
100
AcDbLine
 10
512.558287
 20
156.366311
 30
0.0
 11
512.558287
 21
176.366311
 31
0.0
210
0.0
220
1.0
230
0.0
  0
LINE
  5
33C
330
70
100
AcDbEntity
  8
Visible
100
AcDbLine
 10
503.558287
 20
156.366311
 30
0.0
 11
512.558287
 21
156.366311
 31
0.0
210
0.0
220
1.0
230
0.0
  0
LINE
  5
33D
330
70
100
AcDbEntity
  8
Visible
100
AcDbLine
 10
503.58167
 20
151.366366
 30
0.0
 11
503.558287
 21
156.366311
 31
0.0
210
0.0
220
1.0
230
0.0
  0
LINE
  5
33E
330
70
100
AcDbEntity
  8
Visible
100
AcDbLine
 10
497.58167
 20
151.366366
 30
0.0
 11
503.58167
 21
151.366366
 31
0.0
210
0.0
220
1.0
230
0.0
  0
LINE
  5
33F
330
70
100
AcDbEntity
  8
Visible
100
AcDbLine
 10
497.58167
 20
113.906811
 30
0.0
 11
497.58167
 21
151.366366
 31
0.0
210
0.0
220
1.0
230
0.0
  0
LINE
  5
340
330
70
100
AcDbEntity
  8
Visible
100
AcDbLine
 10
503.558287
 20
113.906811
 30
0.0
 11
497.58167
 21
113.906811
 31
0.0
210
0.0
220
1.0
230
0.0
  0
LINE
  5
341
330
70
100
AcDbEntity
  8
Visible
100
AcDbLine
 10
503.558287
 20
108.906811
 30
0.0
 11
503.558287
 21
113.906811
 31
0.0
210
0.0
220
1.0
230
0.0
  0
LINE
  5
342
330
70
100
AcDbEntity
  8
Visible
100
AcDbLine
 10
512.558287
 20
108.906811
 30
0.0
 11
503.558287
 21
108.906811
 31
0.0
210
0.0
220
1.0
230
0.0
  0
LINE
  5
343
330
70
100
AcDbEntity
  8
Visible
100
AcDbLine
 10
512.558287
 20
88.906811
 30
0.0
 11
512.558287
 21
108.906811
 31
0.0
210
0.0
220
1.0
230
0.0
  0
LINE
  5
344
330
70
100
AcDbEntity
  8
Visible
100
AcDbLine
 10
503.558287
 20
88.906811
 30
0.0
 11
512.558287
 21
88.906811
 31
0.0
210
0.0
220
1.0
230
0.0
  0
LINE
  5
345
330
70
100
AcDbEntity
  8
Visible
100
AcDbLine
 10
503.58167
 20
83.906866
 30
0.0
 11
503.558287
 21
88.906811
 31
0.0
210
0.0
220
1.0
230
0.0
  0
LINE
  5
346
330
70
100
AcDbEntity
  8
Visible
100
AcDbLine
 10
497.58167
 20
83.906866
 30
0.0
 11
503.58167
 21
83.906866
 31
0.0
210
0.0
220
1.0
230
0.0
  0
LINE
  5
347
330
70
100
AcDbEntity
  8
Visible
100
AcDbLine
 10
466.977953
 20
-39.724462
 30
0.0
 11
431.977953
 21
-39.724462
 31
0.0
210
0.0
220
1.0
230
0.0
  0
LINE
  5
348
330
70
100
AcDbEntity
  8
Visible
100
AcDbLine
 10
466.977953
 20
-33.724462
 30
0.0
 11
466.977953
 21
-39.724462
 31
0.0
210
0.0
220
1.0
230
0.0
  0
LINE
  5
349
330
70
100
AcDbEntity
  8
Visible
100
AcDbLine
 10
496.977953
 20
-33.724462
 30
0.0
 11
466.977953
 21
-33.724462
 31
0.0
210
0.0
220
1.0
230
0.0
  0
LINE
  5
34A
330
70
100
AcDbEntity
  8
Visible
100
AcDbLine
 10
496.977953
 20
-40.195506
 30
0.0
 11
496.977953
 21
-33.724462
 31
0.0
210
0.0
220
1.0
230
0.0
  0
LINE
  5
34B
330
70
100
AcDbEntity
  8
Visible
100
AcDbLine
 10
503.034741
 20
-40.195506
 30
0.0
 11
496.977953
 21
-40.195506
 31
0.0
210
0.0
220
1.0
230
0.0
  0
LINE
  5
34C
330
70
100
AcDbEntity
  8
Visible
100
AcDbLine
 10
502.977953
 20
-44.724476
 30
0.0
 11
503.034741
 21
-40.195506
 31
0.0
210
0.0
220
1.0
230
0.0
  0
LINE
  5
34D
330
70
100
AcDbEntity
  8
Visible
100
AcDbLine
 10
511.977953
 20
-44.724476
 30
0.0
 11
502.977953
 21
-44.724476
 31
0.0
210
0.0
220
1.0
230
0.0
  0
LINE
  5
34E
330
70
100
AcDbEntity
  8
Visible
100
AcDbLine
 10
511.977953
 20
-64.724472
 30
0.0
 11
511.977953
 21
-44.724476
 31
0.0
210
0.0
220
1.0
230
0.0
  0
LINE
  5
34F
330
70
100
AcDbEntity
  8
Visible
100
AcDbLine
 10
502.977953
 20
-64.724472
 30
0.0
 11
511.977953
 21
-64.724472
 31
0.0
210
0.0
220
1.0
230
0.0
  0
LINE
  5
350
330
70
100
AcDbEntity
  8
Visible
100
AcDbLine
 10
502.917437
 20
-70.162409
 30
0.0
 11
502.977953
 21
-64.724472
 31
0.0
210
0.0
220
1.0
230
0.0
  0
LINE
  5
351
330
70
100
AcDbEntity
  8
Visible
100
AcDbLine
 10
496.977953
 20
-70.096716
 30
0.0
 11
502.917437
 21
-70.162409
 31
0.0
210
0.0
220
1.0
230
0.0
  0
LINE
  5
352
330
70
100
AcDbEntity
  8
Visible
100
AcDbLine
 10
496.977953
 20
-100.107076
 30
0.0
 11
496.977953
 21
-70.096716
 31
0.0
210
0.0
220
1.0
230
0.0
  0
LINE
  5
353
330
70
100
AcDbEntity
  8
Visible
100
AcDbLine
 10
503.02424
 20
-100.107076
 30
0.0
 11
496.977953
 21
-100.107076
 31
0.0
210
0.0
220
1.0
230
0.0
  0
LINE
  5
354
330
70
100
AcDbEntity
  8
Visible
100
AcDbLine
 10
502.977953
 20
-104.724469
 30
0.0
 11
503.02424
 21
-100.107076
 31
0.0
210
0.0
220
1.0
230
0.0
  0
LINE
  5
355
330
70
100
AcDbEntity
  8
Visible
100
AcDbLine
 10
511.977953
 20
-104.724469
 30
0.0
 11
502.977953
 21
-104.724469
 31
0.0
210
0.0
220
1.0
230
0.0
  0
LINE
  5
356
330
70
100
AcDbEntity
  8
Visible
100
AcDbLine
 10
511.977953
 20
-124.724468
 30
0.0
 11
511.977953
 21
-104.724469
 31
0.0
210
0.0
220
1.0
230
0.0
  0
LINE
  5
357
330
70
100
AcDbEntity
  8
Visible
100
AcDbLine
 10
502.977953
 20
-124.724468
 30
0.0
 11
511.977953
 21
-124.724468
 31
0.0
210
0.0
220
1.0
230
0.0
  0
LINE
  5
358
330
70
100
AcDbEntity
  8
Visible
100
AcDbLine
 10
502.929149
 20
-130.0845
 30
0.0
 11
502.977953
 21
-124.724468
 31
0.0
210
0.0
220
1.0
230
0.0
  0
LINE
  5
359
330
70
100
AcDbEntity
  8
Visible
100
AcDbLine
 10
496.977953
 20
-130.030394
 30
0.0
 11
502.929149
 21
-130.0845
 31
0.0
210
0.0
220
1.0
230
0.0
  0
LINE
  5
35A
330
70
100
AcDbEntity
  8
Visible
100
AcDbLine
 10
496.977953
 20
-160.046105
 30
0.0
 11
496.977953
 21
-130.030394
 31
0.0
210
0.0
220
1.0
230
0.0
  0
LINE
  5
35B
330
70
100
AcDbEntity
  8
Visible
100
AcDbLine
 10
503.017019
 20
-160.046105
 30
0.0
 11
496.977953
 21
-160.046105
 31
0.0
210
0.0
220
1.0
230
0.0
  0
LINE
  5
35C
330
70
100
AcDbEntity
  8
Visible
100
AcDbLine
 10
502.977953
 20
-164.724466
 30
0.0
 11
503.017019
 21
-160.046105
 31
0.0
210
0.0
220
1.0
230
0.0
  0
LINE
  5
35D
330
70
100
AcDbEntity
  8
Visible
100
AcDbLine
 10
511.977953
 20
-164.724466
 30
0.0
 11
502.977953
 21
-164.724466
 31
0.0
210
0.0
220
1.0
230
0.0
  0
LINE
  5
35E
330
70
100
AcDbEntity
  8
Visible
100
AcDbLine
 10
511.977953
 20
-184.724465
 30
0.0
 11
511.977953
 21
-164.724466
 31
0.0
210
0.0
220
1.0
230
0.0
  0
LINE
  5
35F
330
70
100
AcDbEntity
  8
Visible
100
AcDbLine
 10
502.977953
 20
-184.724465
 30
0.0
 11
511.977953
 21
-184.724465
 31
0.0
210
0.0
220
1.0
230
0.0
  0
LINE
  5
360
330
70
100
AcDbEntity
  8
Visible
100
AcDbLine
 10
502.937082
 20
-190.02982
 30
0.0
 11
502.977953
 21
-184.724465
 31
0.0
210
0.0
220
1.0
230
0.0
  0
LINE
  5
361
330
70
100
AcDbEntity
  8
Visible
100
AcDbLine
 10
496.977953
 20
-189.983873
 30
0.0
 11
502.937082
 21
-190.02982
 31
0.0
210
0.0
220
1.0
230
0.0
  0
LINE
  5
362
330
70
100
AcDbEntity
  8
Visible
100
AcDbLine
 10
496.977953
 20
-220.001686
 30
0.0
 11
496.977953
 21
-189.983873
 31
0.0
210
0.0
220
1.0
230
0.0
  0
LINE
  5
363
330
70
100
AcDbEntity
  8
Visible
100
AcDbLine
 10
503.011747
 20
-220.001686
 30
0.0
 11
496.977953
 21
-220.001686
 31
0.0
210
0.0
220
1.0
230
0.0
  0
LINE
  5
364
330
70
100
AcDbEntity
  8
Visible
100
AcDbLine
 10
502.977953
 20
-224.724465
 30
0.0
 11
503.011747
 21
-220.001686
 31
0.0
210
0.0
220
1.0
230
0.0
  0
LINE
  5
365
330
70
100
AcDbEntity
  8
Visible
100
AcDbLine
 10
511.977953
 20
-224.724465
 30
0.0
 11
502.977953
 21
-224.724465
 31
0.0
210
0.0
220
1.0
230
0.0
  0
LINE
  5
366
330
70
100
AcDbEntity
  8
Visible
100
AcDbLine
 10
511.977953
 20
-244.724464
 30
0.0
 11
511.977953
 21
-224.724465
 31
0.0
210
0.0
220
1.0
230
0.0
  0
LINE
  5
367
330
70
100
AcDbEntity
  8
Visible
100
AcDbLine
 10
502.977953
 20
-244.724464
 30
0.0
 11
511.977953
 21
-244.724464
 31
0.0
210
0.0
220
1.0
230
0.0
  0
LINE
  5
368
330
70
100
AcDbEntity
  8
Visible
100
AcDbLine
 10
502.942805
 20
-249.98942
 30
0.0
 11
502.977953
 21
-244.724464
 31
0.0
210
0.0
220
1.0
230
0.0
  0
LINE
  5
369
330
70
100
AcDbEntity
  8
Visible
100
AcDbLine
 10
496.977953
 20
-249.949516
 30
0.0
 11
502.942805
 21
-249.98942
 31
0.0
210
0.0
220
1.0
230
0.0
  0
LINE
  5
36A
330
70
100
AcDbEntity
  8
Visible
100
AcDbLine
 10
496.977953
 20
-279.967947
 30
0.0
 11
496.977953
 21
-249.949516
 31
0.0
210
0.0
220
1.0
230
0.0
  0
LINE
  5
36B
330
70
100
AcDbEntity
  8
Visible
100
AcDbLine
 10
503.007728
 20
-279.967947
 30
0.0
 11
496.977953
 21
-279.967947
 31
0.0
210
0.0
220
1.0
230
0.0
  0
LINE
  5
36C
330
70
100
AcDbEntity
  8
Visible
100
AcDbLine
 10
502.977953
 20
-284.724464
 30
0.0
 11
503.007728
 21
-279.967947
 31
0.0
210
0.0
220
1.0
230
0.0
  0
LINE
  5
36D
330
70
100
AcDbEntity
  8
Visible
100
AcDbLine
 10
511.977953
 20
-284.724464
 30
0.0
 11
502.977953
 21
-284.724464
 31
0.0
210
0.0
220
1.0
230
0.0
  0
LINE
  5
36E
330
70
100
AcDbEntity
  8
Visible
100
AcDbLine
 10
511.977953
 20
-304.724464
 30
0.0
 11
511.977953
 21
-284.724464
 31
0.0
210
0.0
220
1.0
230
0.0
  0
LINE
  5
36F
330
70
100
AcDbEntity
  8
Visible
100
AcDbLine
 10
502.977953
 20
-304.724464
 30
0.0
 11
511.977953
 21
-304.724464
 31
0.0
210
0.0
220
1.0
230
0.0
  0
LINE
  5
370
330
70
100
AcDbEntity
  8
Visible
100
AcDbLine
 10
502.947126
 20
-309.958392
 30
0.0
 11
502.977953
 21
-304.724464
 31
0.0
210
0.0
220
1.0
230
0.0
  0
LINE
  5
371
330
70
100
AcDbEntity
  8
Visible
100
AcDbLine
 10
496.977953
 20
-309.923137
 30
0.0
 11
502.947126
 21
-309.958392
 31
0.0
210
0.0
220
1.0
230
0.0
  0
LINE
  5
372
330
70
100
AcDbEntity
  8
Visible
100
AcDbLine
 10
496.977953
 20
-339.724462
 30
0.0
 11
496.977953
 21
-309.923137
 31
0.0
210
0.0
220
1.0
230
0.0
  0
LINE
  5
373
330
70
100
AcDbEntity
  8
Visible
100
AcDbLine
 10
502.977953
 20
-339.724462
 30
0.0
 11
496.977953
 21
-339.724462
 31
0.0
210
0.0
220
1.0
230
0.0
  0
LINE
  5
374
330
70
100
AcDbEntity
  8
Visible
100
AcDbLine
 10
502.977953
 20
-344.724462
 30
0.0
 11
502.977953
 21
-339.724462
 31
0.0
210
0.0
220
1.0
230
0.0
  0
LINE
  5
375
330
70
100
AcDbEntity
  8
Visible
100
AcDbLine
 10
511.977953
 20
-344.724462
 30
0.0
 11
502.977953
 21
-344.724462
 31
0.0
210
0.0
220
1.0
230
0.0
  0
LINE
  5
376
330
70
100
AcDbEntity
  8
Visible
100
AcDbLine
 10
511.977953
 20
-364.724462
 30
0.0
 11
511.977953
 21
-344.724462
 31
0.0
210
0.0
220
1.0
230
0.0
  0
LINE
  5
377
330
70
100
AcDbEntity
  8
Visible
100
AcDbLine
 10
505.977953
 20
-364.724462
 30
0.0
 11
511.977953
 21
-364.724462
 31
0.0
210
0.0
220
1.0
230
0.0
  0
LINE
  5
378
330
70
100
AcDbEntity
  8
Visible
100
AcDbLine
 10
505.977953
 20
-369.724462
 30
0.0
 11
505.977953
 21
-364.724462
 31
0.0
210
0.0
220
1.0
230
0.0
  0
LINE
  5
379
330
70
100
AcDbEntity
  8
Visible
100
AcDbLine
 10
496.977953
 20
-369.724462
 30
0.0
 11
505.977953
 21
-369.724462
 31
0.0
210
0.0
220
1.0
230
0.0
  0
LINE
  5
37A
330
70
100
AcDbEntity
  8
Visible
100
AcDbLine
 10
496.977953
 20
-375.724462
 30
0.0
 11
496.977953
 21
-369.724462
 31
0.0
210
0.0
220
1.0
230
0.0
  0
LINE
  5
37B
330
70
100
AcDbEntity
  8
Visible
100
AcDbLine
 10
466.977953
 20
-375.724462
 30
0.0
 11
496.977953
 21
-375.724462
 31
0.0
210
0.0
220
1.0
230
0.0
  0
LINE
  5
37C
330
70
100
AcDbEntity
  8
Visible
100
AcDbLine
 10
466.977953
 20
-369.724462
 30
0.0
 11
466.977953
 21
-375.724462
 31
0.0
210
0.0
220
1.0
230
0.0
  0
LINE
  5
37D
330
70
100
AcDbEntity
  8
Visible
100
AcDbLine
 10
431.977953
 20
-369.724462
 30
0.0
 11
466.977953
 21
-369.724462
 31
0.0
210
0.0
220
1.0
230
0.0
  0
LINE
  5
37E
330
70
100
AcDbEntity
  8
Visible
100
AcDbLine
 10
431.977953
 20
-375.724462
 30
0.0
 11
431.977953
 21
-369.724462
 31
0.0
210
0.0
220
1.0
230
0.0
  0
LINE
  5
37F
330
70
100
AcDbEntity
  8
Visible
100
AcDbLine
 10
376.790953
 20
-375.724462
 30
0.0
 11
431.977953
 21
-375.724462
 31
0.0
210
0.0
220
1.0
230
0.0
  0
LINE
  5
380
330
70
100
AcDbEntity
  8
Visible
100
AcDbLine
 10
376.790953
 20
-369.724462
 30
0.0
 11
376.790953
 21
-375.724462
 31
0.0
210
0.0
220
1.0
230
0.0
  0
LINE
  5
381
330
70
100
AcDbEntity
  8
Visible
100
AcDbLine
 10
341.790953
 20
-369.724462
 30
0.0
 11
376.790953
 21
-369.724462
 31
0.0
210
0.0
220
1.0
230
0.0
  0
LINE
  5
382
330
70
100
AcDbEntity
  8
Visible
100
AcDbLine
 10
341.790953
 20
-375.724462
 30
0.0
 11
341.790953
 21
-369.724462
 31
0.0
210
0.0
220
1.0
230
0.0
  0
LINE
  5
383
330
70
100
AcDbEntity
  8
Visible
100
AcDbLine
 10
311.790953
 20
-375.724462
 30
0.0
 11
341.790953
 21
-375.724462
 31
0.0
210
0.0
220
1.0
230
0.0
  0
LINE
  5
384
330
70
100
AcDbEntity
  8
Visible
100
AcDbLine
 10
311.790953
 20
-339.724462
 30
0.0
 11
311.790953
 21
-375.724462
 31
0.0
210
0.0
220
1.0
230
0.0
  0
LINE
  5
385
330
70
100
AcDbEntity
  8
Visible
100
AcDbLine
 10
305.790953
 20
-339.724462
 30
0.0
 11
311.790953
 21
-339.724462
 31
0.0
210
0.0
220
1.0
230
0.0
  0
LINE
  5
386
330
70
100
AcDbEntity
  8
Visible
100
AcDbLine
 10
305.790953
 20
-309.724462
 30
0.0
 11
305.790953
 21
-339.724462
 31
0.0
210
0.0
220
1.0
230
0.0
  0
LINE
  5
387
330
70
100
AcDbEntity
  8
Visible
100
AcDbLine
 10
311.790953
 20
-309.724462
 30
0.0
 11
305.790953
 21
-309.724462
 31
0.0
210
0.0
220
1.0
230
0.0
  0
LINE
  5
388
330
70
100
AcDbEntity
  8
Visible
100
AcDbLine
 10
311.790953
 20
-279.724462
 30
0.0
 11
311.790953
 21
-309.724462
 31
0.0
210
0.0
220
1.0
230
0.0
  0
LINE
  5
389
330
70
100
AcDbEntity
  8
Visible
100
AcDbLine
 10
305.790953
 20
-279.724462
 30
0.0
 11
311.790953
 21
-279.724462
 31
0.0
210
0.0
220
1.0
230
0.0
  0
LINE
  5
38A
330
70
100
AcDbEntity
  8
Visible
100
AcDbLine
 10
305.790953
 20
-249.724462
 30
0.0
 11
305.790953
 21
-279.724462
 31
0.0
210
0.0
220
1.0
230
0.0
  0
LINE
  5
38B
330
70
100
AcDbEntity
  8
Visible
100
AcDbLine
 10
311.790953
 20
-249.724462
 30
0.0
 11
305.790953
 21
-249.724462
 31
0.0
210
0.0
220
1.0
230
0.0
  0
LINE
  5
38C
330
70
100
AcDbEntity
  8
Visible
100
AcDbLine
 10
311.790953
 20
-219.724462
 30
0.0
 11
311.790953
 21
-249.724462
 31
0.0
210
0.0
220
1.0
230
0.0
  0
LINE
  5
38D
330
70
100
AcDbEntity
  8
Visible
100
AcDbLine
 10
305.790953
 20
-219.724462
 30
0.0
 11
311.790953
 21
-219.724462
 31
0.0
210
0.0
220
1.0
230
0.0
  0
LINE
  5
38E
330
70
100
AcDbEntity
  8
Visible
100
AcDbLine
 10
305.790953
 20
-189.724462
 30
0.0
 11
305.790953
 21
-219.724462
 31
0.0
210
0.0
220
1.0
230
0.0
  0
LINE
  5
38F
330
70
100
AcDbEntity
  8
Visible
100
AcDbLine
 10
311.790953
 20
-189.724462
 30
0.0
 11
305.790953
 21
-189.724462
 31
0.0
210
0.0
220
1.0
230
0.0
  0
LINE
  5
390
330
70
100
AcDbEntity
  8
Visible
100
AcDbLine
 10
311.790953
 20
-159.724462
 30
0.0
 11
311.790953
 21
-189.724462
 31
0.0
210
0.0
220
1.0
230
0.0
  0
LINE
  5
391
330
70
100
AcDbEntity
  8
Visible
100
AcDbLine
 10
305.790953
 20
-159.724462
 30
0.0
 11
311.790953
 21
-159.724462
 31
0.0
210
0.0
220
1.0
230
0.0
  0
LINE
  5
392
330
70
100
AcDbEntity
  8
Visible
100
AcDbLine
 10
305.790953
 20
-129.724462
 30
0.0
 11
305.790953
 21
-159.724462
 31
0.0
210
0.0
220
1.0
230
0.0
  0
LINE
  5
393
330
70
100
AcDbEntity
  8
Visible
100
AcDbLine
 10
311.790953
 20
-129.724462
 30
0.0
 11
305.790953
 21
-129.724462
 31
0.0
210
0.0
220
1.0
230
0.0
  0
LINE
  5
394
330
70
100
AcDbEntity
  8
Visible
100
AcDbLine
 10
311.790953
 20
-99.724462
 30
0.0
 11
311.790953
 21
-129.724462
 31
0.0
210
0.0
220
1.0
230
0.0
  0
LINE
  5
395
330
70
100
AcDbEntity
  8
Visible
100
AcDbLine
 10
305.790953
 20
-99.724462
 30
0.0
 11
311.790953
 21
-99.724462
 31
0.0
210
0.0
220
1.0
230
0.0
  0
LINE
  5
396
330
70
100
AcDbEntity
  8
Visible
100
AcDbLine
 10
305.790953
 20
-69.724462
 30
0.0
 11
305.790953
 21
-99.724462
 31
0.0
210
0.0
220
1.0
230
0.0
  0
LINE
  5
397
330
70
100
AcDbEntity
  8
Visible
100
AcDbLine
 10
311.790953
 20
-69.724462
 30
0.0
 11
305.790953
 21
-69.724462
 31
0.0
210
0.0
220
1.0
230
0.0
  0
LINE
  5
398
330
70
100
AcDbEntity
  8
Visible
100
AcDbLine
 10
311.790953
 20
-33.724462
 30
0.0
 11
311.790953
 21
-69.724462
 31
0.0
210
0.0
220
1.0
230
0.0
  0
LINE
  5
399
330
70
100
AcDbEntity
  8
Visible
100
AcDbLine
 10
341.790953
 20
-33.724462
 30
0.0
 11
311.790953
 21
-33.724462
 31
0.0
210
0.0
220
1.0
230
0.0
  0
LINE
  5
39A
330
70
100
AcDbEntity
  8
Visible
100
AcDbLine
 10
341.790953
 20
-39.724462
 30
0.0
 11
341.790953
 21
-33.724462
 31
0.0
210
0.0
220
1.0
230
0.0
  0
LINE
  5
39B
330
70
100
AcDbEntity
  8
Visible
100
AcDbLine
 10
376.790953
 20
-39.724462
 30
0.0
 11
341.790953
 21
-39.724462
 31
0.0
210
0.0
220
1.0
230
0.0
  0
LINE
  5
39C
330
70
100
AcDbEntity
  8
Visible
100
AcDbLine
 10
376.790953
 20
-33.724462
 30
0.0
 11
376.790953
 21
-39.724462
 31
0.0
210
0.0
220
1.0
230
0.0
  0
LINE
  5
39D
330
70
100
AcDbEntity
  8
Visible
100
AcDbLine
 10
431.977953
 20
-33.724462
 30
0.0
 11
376.790953
 21
-33.724462
 31
0.0
210
0.0
220
1.0
230
0.0
  0
LINE
  5
39E
330
70
100
AcDbEntity
  8
Visible
100
AcDbLine
 10
431.977953
 20
-39.724462
 30
0.0
 11
431.977953
 21
-33.724462
 31
0.0
210
0.0
220
1.0
230
0.0
  0
LINE
  5
39F
330
70
100
AcDbEntity
  8
Visible
100
AcDbLine
 10
55.7952
 20
466.952263
 30
0.0
 11
-94.2048
 21
466.952263
 31
0.0
210
0.0
220
1.0
230
0.0
  0
LINE
  5
3A0
330
70
100
AcDbEntity
  8
Visible
100
AcDbLine
 10
55.7952
 20
471.952263
 30
0.0
 11
55.7952
 21
466.952263
 31
0.0
210
0.0
220
1.0
230
0.0
  0
LINE
  5
3A1
330
70
100
AcDbEntity
  8
Visible
100
AcDbLine
 10
-94.2048
 20
471.952263
 30
0.0
 11
55.7952
 21
471.952263
 31
0.0
210
0.0
220
1.0
230
0.0
  0
LINE
  5
3A2
330
70
100
AcDbEntity
  8
Visible
100
AcDbLine
 10
-94.2048
 20
466.952263
 30
0.0
 11
-94.2048
 21
471.952263
 31
0.0
210
0.0
220
1.0
230
0.0
  0
LINE
  5
3A3
330
70
100
AcDbEntity
  8
Visible
100
AcDbLine
 10
55.7952
 20
480.285597
 30
0.0
 11
-94.2048
 21
480.285597
 31
0.0
210
0.0
220
1.0
230
0.0
  0
LINE
  5
3A4
330
70
100
AcDbEntity
  8
Visible
100
AcDbLine
 10
55.7952
 20
485.285597
 30
0.0
 11
55.7952
 21
480.285597
 31
0.0
210
0.0
220
1.0
230
0.0
  0
LINE
  5
3A5
330
70
100
AcDbEntity
  8
Visible
100
AcDbLine
 10
-94.2048
 20
485.285597
 30
0.0
 11
55.7952
 21
485.285597
 31
0.0
210
0.0
220
1.0
230
0.0
  0
LINE
  5
3A6
330
70
100
AcDbEntity
  8
Visible
100
AcDbLine
 10
-94.2048
 20
480.285597
 30
0.0
 11
-94.2048
 21
485.285597
 31
0.0
210
0.0
220
1.0
230
0.0
  0
LINE
  5
3A7
330
70
100
AcDbEntity
  8
Visible
100
AcDbLine
 10
-94.2048
 20
506.952263
 30
0.0
 11
-94.2048
 21
511.952263
 31
0.0
210
0.0
220
1.0
230
0.0
  0
LINE
  5
3A8
330
70
100
AcDbEntity
  8
Visible
100
AcDbLine
 10
55.7952
 20
506.952263
 30
0.0
 11
-94.2048
 21
506.952263
 31
0.0
210
0.0
220
1.0
230
0.0
  0
LINE
  5
3A9
330
70
100
AcDbEntity
  8
Visible
100
AcDbLine
 10
55.7952
 20
511.952263
 30
0.0
 11
55.7952
 21
506.952263
 31
0.0
210
0.0
220
1.0
230
0.0
  0
LINE
  5
3AA
330
70
100
AcDbEntity
  8
Visible
100
AcDbLine
 10
-94.2048
 20
511.952263
 30
0.0
 11
55.7952
 21
511.952263
 31
0.0
210
0.0
220
1.0
230
0.0
  0
LINE
  5
3AB
330
70
100
AcDbEntity
  8
Visible
100
AcDbLine
 10
-94.2048
 20
493.61893
 30
0.0
 11
-94.2048
 21
498.61893
 31
0.0
210
0.0
220
1.0
230
0.0
  0
LINE
  5
3AC
330
70
100
AcDbEntity
  8
Visible
100
AcDbLine
 10
55.7952
 20
493.61893
 30
0.0
 11
-94.2048
 21
493.61893
 31
0.0
210
0.0
220
1.0
230
0.0
  0
LINE
  5
3AD
330
70
100
AcDbEntity
  8
Visible
100
AcDbLine
 10
55.7952
 20
498.61893
 30
0.0
 11
55.7952
 21
493.61893
 31
0.0
210
0.0
220
1.0
230
0.0
  0
LINE
  5
3AE
330
70
100
AcDbEntity
  8
Visible
100
AcDbLine
 10
-94.2048
 20
498.61893
 30
0.0
 11
55.7952
 21
498.61893
 31
0.0
210
0.0
220
1.0
230
0.0
  0
LINE
  5
3AF
330
70
100
AcDbEntity
  8
Visible
100
AcDbLine
 10
-125.719765
 20
464.024277
 30
0.0
 11
-119.810919
 21
465.066166
 31
0.0
210
0.0
220
1.0
230
0.0
  0
LINE
  5
3B0
330
70
100
AcDbEntity
  8
Visible
100
AcDbLine
 10
-132.665692
 20
503.416587
 30
0.0
 11
-125.719765
 21
464.024277
 31
0.0
210
0.0
220
1.0
230
0.0
  0
LINE
  5
3B1
330
70
100
AcDbEntity
  8
Visible
100
AcDbLine
 10
-126.756846
 20
504.458476
 30
0.0
 11
-132.665692
 21
503.416587
 31
0.0
210
0.0
220
1.0
230
0.0
  0
LINE
  5
3B2
330
70
100
AcDbEntity
  8
Visible
100
AcDbLine
 10
-138.801533
 20
572.76729
 30
0.0
 11
-126.756846
 21
504.458476
 31
0.0
210
0.0
220
1.0
230
0.0
  0
LINE
  5
3B3
330
70
100
AcDbEntity
  8
Visible
100
AcDbLine
 10
-144.710379
 20
571.725401
 30
0.0
 11
-138.801533
 21
572.76729
 31
0.0
210
0.0
220
1.0
230
0.0
  0
LINE
  5
3B4
330
70
100
AcDbEntity
  8
Visible
100
AcDbLine
 10
-151.656306
 20
611.117711
 30
0.0
 11
-144.710379
 21
571.725401
 31
0.0
210
0.0
220
1.0
230
0.0
  0
LINE
  5
3B5
330
70
100
AcDbEntity
  8
Visible
100
AcDbLine
 10
-145.74746
 20
612.1596
 30
0.0
 11
-151.656306
 21
611.117711
 31
0.0
210
0.0
220
1.0
230
0.0
  0
LINE
  5
3B6
330
70
100
AcDbEntity
  8
Visible
100
AcDbLine
 10
-157.20824
 20
677.156912
 30
0.0
 11
-145.74746
 21
612.1596
 31
0.0
210
0.0
220
1.0
230
0.0
  0
LINE
  5
3B7
330
70
100
AcDbEntity
  8
Visible
100
AcDbLine
 10
-135.542469
 20
680.977172
 30
0.0
 11
-157.20824
 21
677.156912
 31
0.0
210
0.0
220
1.0
230
0.0
  0
LINE
  5
3B8
330
70
100
AcDbEntity
  8
Visible
100
AcDbLine
 10
-134.50058
 20
675.068325
 30
0.0
 11
-135.542469
 21
680.977172
 31
0.0
210
0.0
220
1.0
230
0.0
  0
LINE
  5
3B9
330
70
100
AcDbEntity
  8
Visible
100
AcDbLine
 10
-112.342405
 20
678.975409
 30
0.0
 11
-134.50058
 21
675.068325
 31
0.0
210
0.0
220
1.0
230
0.0
  0
LINE
  5
3BA
330
70
100
AcDbEntity
  8
Visible
100
AcDbLine
 10
-113.384295
 20
684.884256
 30
0.0
 11
-112.342405
 21
678.975409
 31
0.0
210
0.0
220
1.0
230
0.0
  0
LINE
  5
3BB
330
70
100
AcDbEntity
  8
Visible
100
AcDbLine
 10
-91.718524
 20
688.704516
 30
0.0
 11
-113.384295
 21
684.884256
 31
0.0
210
0.0
220
1.0
230
0.0
  0
LINE
  5
3BC
330
70
100
AcDbEntity
  8
Visible
100
AcDbLine
 10
-90.676635
 20
682.795669
 30
0.0
 11
-91.718524
 21
688.704516
 31
0.0
210
0.0
220
1.0
230
0.0
  0
LINE
  5
3BD
330
70
100
AcDbEntity
  8
Visible
100
AcDbLine
 10
-68.51846
 20
686.702753
 30
0.0
 11
-90.676635
 21
682.795669
 31
0.0
210
0.0
220
1.0
230
0.0
  0
LINE
  5
3BE
330
70
100
AcDbEntity
  8
Visible
100
AcDbLine
 10
-69.56035
 20
692.6116
 30
0.0
 11
-68.51846
 21
686.702753
 31
0.0
210
0.0
220
1.0
230
0.0
  0
LINE
  5
3BF
330
70
100
AcDbEntity
  8
Visible
100
AcDbLine
 10
-47.894579
 20
696.43186
 30
0.0
 11
-69.56035
 21
692.6116
 31
0.0
210
0.0
220
1.0
230
0.0
  0
LINE
  5
3C0
330
70
100
AcDbEntity
  8
Visible
100
AcDbLine
 10
-46.85269
 20
690.523013
 30
0.0
 11
-47.894579
 21
696.43186
 31
0.0
210
0.0
220
1.0
230
0.0
  0
LINE
  5
3C1
330
70
100
AcDbEntity
  8
Visible
100
AcDbLine
 10
-24.694515
 20
694.430097
 30
0.0
 11
-46.85269
 21
690.523013
 31
0.0
210
0.0
220
1.0
230
0.0
  0
LINE
  5
3C2
330
70
100
AcDbEntity
  8
Visible
100
AcDbLine
 10
-25.736404
 20
700.338944
 30
0.0
 11
-24.694515
 21
694.430097
 31
0.0
210
0.0
220
1.0
230
0.0
  0
LINE
  5
3C3
330
70
100
AcDbEntity
  8
Visible
100
AcDbLine
 10
-4.070634
 20
704.159204
 30
0.0
 11
-25.736404
 21
700.338944
 31
0.0
210
0.0
220
1.0
230
0.0
  0
LINE
  5
3C4
330
70
100
AcDbEntity
  8
Visible
100
AcDbLine
 10
-3.028745
 20
698.250357
 30
0.0
 11
-4.070634
 21
704.159204
 31
0.0
210
0.0
220
1.0
230
0.0
  0
LINE
  5
3C5
330
70
100
AcDbEntity
  8
Visible
100
AcDbLine
 10
19.12943
 20
702.157441
 30
0.0
 11
-3.028745
 21
698.250357
 31
0.0
210
0.0
220
1.0
230
0.0
  0
LINE
  5
3C6
330
70
100
AcDbEntity
  8
Visible
100
AcDbLine
 10
18.087541
 20
708.066288
 30
0.0
 11
19.12943
 21
702.157441
 31
0.0
210
0.0
220
1.0
230
0.0
  0
LINE
  5
3C7
330
70
100
AcDbEntity
  8
Visible
100
AcDbLine
 10
39.753311
 20
711.886548
 30
0.0
 11
18.087541
 21
708.066288
 31
0.0
210
0.0
220
1.0
230
0.0
  0
LINE
  5
3C8
330
70
100
AcDbEntity
  8
Visible
100
AcDbLine
 10
40.7952
 20
705.977701
 30
0.0
 11
39.753311
 21
711.886548
 31
0.0
210
0.0
220
1.0
230
0.0
  0
LINE
  5
3C9
330
70
100
AcDbEntity
  8
Visible
100
AcDbLine
 10
50.7952
 20
705.977701
 30
0.0
 11
40.7952
 21
705.977701
 31
0.0
210
0.0
220
1.0
230
0.0
  0
LINE
  5
3CA
330
70
100
AcDbEntity
  8
Visible
100
AcDbLine
 10
50.7952
 20
711.977701
 30
0.0
 11
50.7952
 21
705.977701
 31
0.0
210
0.0
220
1.0
230
0.0
  0
LINE
  5
3CB
330
70
100
AcDbEntity
  8
Visible
100
AcDbLine
 10
65.7952
 20
711.977701
 30
0.0
 11
50.7952
 21
711.977701
 31
0.0
210
0.0
220
1.0
230
0.0
  0
LINE
  5
3CC
330
70
100
AcDbEntity
  8
Visible
100
AcDbLine
 10
65.7952
 20
705.977701
 30
0.0
 11
65.7952
 21
711.977701
 31
0.0
210
0.0
220
1.0
230
0.0
  0
LINE
  5
3CD
330
70
100
AcDbEntity
  8
Visible
100
AcDbLine
 10
81.7952
 20
705.977701
 30
0.0
 11
65.7952
 21
705.977701
 31
0.0
210
0.0
220
1.0
230
0.0
  0
LINE
  5
3CE
330
70
100
AcDbEntity
  8
Visible
100
AcDbLine
 10
81.7952
 20
700.977701
 30
0.0
 11
81.7952
 21
705.977701
 31
0.0
210
0.0
220
1.0
230
0.0
  0
LINE
  5
3CF
330
70
100
AcDbEntity
  8
Visible
100
AcDbLine
 10
90.7952
 20
700.977701
 30
0.0
 11
81.7952
 21
700.977701
 31
0.0
210
0.0
220
1.0
230
0.0
  0
LINE
  5
3D0
330
70
100
AcDbEntity
  8
Visible
100
AcDbLine
 10
90.7952
 20
680.977701
 30
0.0
 11
90.7952
 21
700.977701
 31
0.0
210
0.0
220
1.0
230
0.0
  0
LINE
  5
3D1
330
70
100
AcDbEntity
  8
Visible
100
AcDbLine
 10
81.7952
 20
680.977701
 30
0.0
 11
90.7952
 21
680.977701
 31
0.0
210
0.0
220
1.0
230
0.0
  0
LINE
  5
3D2
330
70
100
AcDbEntity
  8
Visible
100
AcDbLine
 10
81.7952
 20
675.977701
 30
0.0
 11
81.7952
 21
680.977701
 31
0.0
210
0.0
220
1.0
230
0.0
  0
LINE
  5
3D3
330
70
100
AcDbEntity
  8
Visible
100
AcDbLine
 10
75.7952
 20
675.977701
 30
0.0
 11
81.7952
 21
675.977701
 31
0.0
210
0.0
220
1.0
230
0.0
  0
LINE
  5
3D4
330
70
100
AcDbEntity
  8
Visible
100
AcDbLine
 10
75.7952
 20
638.518201
 30
0.0
 11
75.7952
 21
675.977701
 31
0.0
210
0.0
220
1.0
230
0.0
  0
LINE
  5
3D5
330
70
100
AcDbEntity
  8
Visible
100
AcDbLine
 10
81.7952
 20
638.518201
 30
0.0
 11
75.7952
 21
638.518201
 31
0.0
210
0.0
220
1.0
230
0.0
  0
LINE
  5
3D6
330
70
100
AcDbEntity
  8
Visible
100
AcDbLine
 10
81.7952
 20
633.518201
 30
0.0
 11
81.7952
 21
638.518201
 31
0.0
210
0.0
220
1.0
230
0.0
  0
LINE
  5
3D7
330
70
100
AcDbEntity
  8
Visible
100
AcDbLine
 10
90.7952
 20
633.518201
 30
0.0
 11
81.7952
 21
633.518201
 31
0.0
210
0.0
220
1.0
230
0.0
  0
LINE
  5
3D8
330
70
100
AcDbEntity
  8
Visible
100
AcDbLine
 10
90.7952
 20
613.518201
 30
0.0
 11
90.7952
 21
633.518201
 31
0.0
210
0.0
220
1.0
230
0.0
  0
LINE
  5
3D9
330
70
100
AcDbEntity
  8
Visible
100
AcDbLine
 10
81.7952
 20
613.518201
 30
0.0
 11
90.7952
 21
613.518201
 31
0.0
210
0.0
220
1.0
230
0.0
  0
LINE
  5
3DA
330
70
100
AcDbEntity
  8
Visible
100
AcDbLine
 10
81.7952
 20
608.518201
 30
0.0
 11
81.7952
 21
613.518201
 31
0.0
210
0.0
220
1.0
230
0.0
  0
LINE
  5
3DB
330
70
100
AcDbEntity
  8
Visible
100
AcDbLine
 10
75.7952
 20
608.518201
 30
0.0
 11
81.7952
 21
608.518201
 31
0.0
210
0.0
220
1.0
230
0.0
  0
LINE
  5
3DC
330
70
100
AcDbEntity
  8
Visible
100
AcDbLine
 10
75.7952
 20
571.058701
 30
0.0
 11
75.7952
 21
608.518201
 31
0.0
210
0.0
220
1.0
230
0.0
  0
LINE
  5
3DD
330
70
100
AcDbEntity
  8
Visible
100
AcDbLine
 10
81.7952
 20
571.058701
 30
0.0
 11
75.7952
 21
571.058701
 31
0.0
210
0.0
220
1.0
230
0.0
  0
LINE
  5
3DE
330
70
100
AcDbEntity
  8
Visible
100
AcDbLine
 10
81.7952
 20
566.058701
 30
0.0
 11
81.7952
 21
571.058701
 31
0.0
210
0.0
220
1.0
230
0.0
  0
LINE
  5
3DF
330
70
100
AcDbEntity
  8
Visible
100
AcDbLine
 10
90.7952
 20
566.058701
 30
0.0
 11
81.7952
 21
566.058701
 31
0.0
210
0.0
220
1.0
230
0.0
  0
LINE
  5
3E0
330
70
100
AcDbEntity
  8
Visible
100
AcDbLine
 10
90.7952
 20
546.058701
 30
0.0
 11
90.7952
 21
566.058701
 31
0.0
210
0.0
220
1.0
230
0.0
  0
LINE
  5
3E1
330
70
100
AcDbEntity
  8
Visible
100
AcDbLine
 10
81.7952
 20
546.058701
 30
0.0
 11
90.7952
 21
546.058701
 31
0.0
210
0.0
220
1.0
230
0.0
  0
LINE
  5
3E2
330
70
100
AcDbEntity
  8
Visible
100
AcDbLine
 10
81.7952
 20
541.058701
 30
0.0
 11
81.7952
 21
546.058701
 31
0.0
210
0.0
220
1.0
230
0.0
  0
LINE
  5
3E3
330
70
100
AcDbEntity
  8
Visible
100
AcDbLine
 10
75.7952
 20
541.058701
 30
0.0
 11
81.7952
 21
541.058701
 31
0.0
210
0.0
220
1.0
230
0.0
  0
LINE
  5
3E4
330
70
100
AcDbEntity
  8
Visible
100
AcDbLine
 10
75.7952
 20
503.599201
 30
0.0
 11
75.7952
 21
541.058701
 31
0.0
210
0.0
220
1.0
230
0.0
  0
LINE
  5
3E5
330
70
100
AcDbEntity
  8
Visible
100
AcDbLine
 10
81.7952
 20
503.599201
 30
0.0
 11
75.7952
 21
503.599201
 31
0.0
210
0.0
220
1.0
230
0.0
  0
LINE
  5
3E6
330
70
100
AcDbEntity
  8
Visible
100
AcDbLine
 10
81.7952
 20
498.599201
 30
0.0
 11
81.7952
 21
503.599201
 31
0.0
210
0.0
220
1.0
230
0.0
  0
LINE
  5
3E7
330
70
100
AcDbEntity
  8
Visible
100
AcDbLine
 10
90.7952
 20
498.599201
 30
0.0
 11
81.7952
 21
498.599201
 31
0.0
210
0.0
220
1.0
230
0.0
  0
LINE
  5
3E8
330
70
100
AcDbEntity
  8
Visible
100
AcDbLine
 10
90.7952
 20
478.599201
 30
0.0
 11
90.7952
 21
498.599201
 31
0.0
210
0.0
220
1.0
230
0.0
  0
LINE
  5
3E9
330
70
100
AcDbEntity
  8
Visible
100
AcDbLine
 10
81.7952
 20
478.599201
 30
0.0
 11
90.7952
 21
478.599201
 31
0.0
210
0.0
220
1.0
230
0.0
  0
LINE
  5
3EA
330
70
100
AcDbEntity
  8
Visible
100
AcDbLine
 10
81.7952
 20
473.599201
 30
0.0
 11
81.7952
 21
478.599201
 31
0.0
210
0.0
220
1.0
230
0.0
  0
LINE
  5
3EB
330
70
100
AcDbEntity
  8
Visible
100
AcDbLine
 10
75.7952
 20
473.599201
 30
0.0
 11
81.7952
 21
473.599201
 31
0.0
210
0.0
220
1.0
230
0.0
  0
LINE
  5
3EC
330
70
100
AcDbEntity
  8
Visible
100
AcDbLine
 10
75.7952
 20
436.139701
 30
0.0
 11
75.7952
 21
473.599201
 31
0.0
210
0.0
220
1.0
230
0.0
  0
LINE
  5
3ED
330
70
100
AcDbEntity
  8
Visible
100
AcDbLine
 10
81.7952
 20
436.139701
 30
0.0
 11
75.7952
 21
436.139701
 31
0.0
210
0.0
220
1.0
230
0.0
  0
LINE
  5
3EE
330
70
100
AcDbEntity
  8
Visible
100
AcDbLine
 10
81.7952
 20
431.139701
 30
0.0
 11
81.7952
 21
436.139701
 31
0.0
210
0.0
220
1.0
230
0.0
  0
LINE
  5
3EF
330
70
100
AcDbEntity
  8
Visible
100
AcDbLine
 10
90.7952
 20
431.139701
 30
0.0
 11
81.7952
 21
431.139701
 31
0.0
210
0.0
220
1.0
230
0.0
  0
LINE
  5
3F0
330
70
100
AcDbEntity
  8
Visible
100
AcDbLine
 10
90.7952
 20
411.139701
 30
0.0
 11
90.7952
 21
431.139701
 31
0.0
210
0.0
220
1.0
230
0.0
  0
LINE
  5
3F1
330
70
100
AcDbEntity
  8
Visible
100
AcDbLine
 10
81.7952
 20
411.139701
 30
0.0
 11
90.7952
 21
411.139701
 31
0.0
210
0.0
220
1.0
230
0.0
  0
LINE
  5
3F2
330
70
100
AcDbEntity
  8
Visible
100
AcDbLine
 10
81.7952
 20
406.139701
 30
0.0
 11
81.7952
 21
411.139701
 31
0.0
210
0.0
220
1.0
230
0.0
  0
LINE
  5
3F3
330
70
100
AcDbEntity
  8
Visible
100
AcDbLine
 10
75.7952
 20
406.141387
 30
0.0
 11
81.7952
 21
406.139701
 31
0.0
210
0.0
220
1.0
230
0.0
  0
LINE
  5
3F4
330
70
100
AcDbEntity
  8
Visible
100
AcDbLine
 10
45.7952
 20
406.001085
 30
0.0
 11
75.7952
 21
406.141387
 31
0.0
210
0.0
220
1.0
230
0.0
  0
LINE
  5
3F5
330
70
100
AcDbEntity
  8
Visible
100
AcDbLine
 10
45.7952
 20
399.977701
 30
0.0
 11
45.7952
 21
406.001085
 31
0.0
210
0.0
220
1.0
230
0.0
  0
LINE
  5
3F6
330
70
100
AcDbEntity
  8
Visible
100
AcDbLine
 10
10.7952
 20
399.977701
 30
0.0
 11
45.7952
 21
399.977701
 31
0.0
210
0.0
220
1.0
230
0.0
  0
LINE
  5
3F7
330
70
100
AcDbEntity
  8
Visible
100
AcDbLine
 10
10.7952
 20
405.977701
 30
0.0
 11
10.7952
 21
399.977701
 31
0.0
210
0.0
220
1.0
230
0.0
  0
LINE
  5
3F8
330
70
100
AcDbEntity
  8
Visible
100
AcDbLine
 10
-44.392028
 20
405.977701
 30
0.0
 11
10.7952
 21
405.977701
 31
0.0
210
0.0
220
1.0
230
0.0
  0
LINE
  5
3F9
330
70
100
AcDbEntity
  8
Visible
100
AcDbLine
 10
-44.392028
 20
399.977701
 30
0.0
 11
-44.392028
 21
405.977701
 31
0.0
210
0.0
220
1.0
230
0.0
  0
LINE
  5
3FA
330
70
100
AcDbEntity
  8
Visible
100
AcDbLine
 10
-79.392028
 20
399.977701
 30
0.0
 11
-44.392028
 21
399.977701
 31
0.0
210
0.0
220
1.0
230
0.0
  0
LINE
  5
3FB
330
70
100
AcDbEntity
  8
Visible
100
AcDbLine
 10
-79.392028
 20
405.977701
 30
0.0
 11
-79.392028
 21
399.977701
 31
0.0
210
0.0
220
1.0
230
0.0
  0
LINE
  5
3FC
330
70
100
AcDbEntity
  8
Visible
100
AcDbLine
 10
-109.392028
 20
405.977701
 30
0.0
 11
-79.392028
 21
405.977701
 31
0.0
210
0.0
220
1.0
230
0.0
  0
LINE
  5
3FD
330
70
100
AcDbEntity
  8
Visible
100
AcDbLine
 10
-119.810919
 20
465.066166
 30
0.0
 11
-109.392028
 21
405.977701
 31
0.0
210
0.0
220
1.0
230
0.0
  0
ENDSEC
  0
SECTION
  2
OBJECTS
  0
DICTIONARY
  5
C
330
0
100
AcDbDictionary
281
     1
  3
ACAD_COLOR
350
63
  3
ACAD_DETAILVIEWSTYLE
350
6A
  3
ACAD_GROUP
350
D
  3
ACAD_LAYOUT
350
62
  3
ACAD_MATERIAL
350
10
  3
ACAD_MLEADERSTYLE
350
66
  3
ACAD_MLINESTYLE
350
5F
  3
ACAD_PLOTSETTINGS
350
61
  3
ACAD_PLOTSTYLENAME
350
E
  3
ACAD_SCALELIST
350
42
  3
ACAD_SECTIONVIEWSTYLE
350
68
  3
ACAD_TABLESTYLE
350
64
  3
ACAD_VISUALSTYLE
350
29
  3
ACDB_RECOMPOSE_DATA
350
407
  3
AcDbVariableDictionary
350
3FE
  0
DICTIONARY
  5
A4
330
70
100
AcDbDictionary
280
     1
281
     1
  3
ACAD_SORTENTS
360
A5
  0
DICTIONARY
  5
63
102
{ACAD_REACTORS
330
C
102
}
330
C
100
AcDbDictionary
281
     1
  0
DICTIONARY
  5
6A
102
{ACAD_REACTORS
330
C
102
}
330
C
100
AcDbDictionary
281
     1
  3
Imperial24
350
6B
  0
DICTIONARY
  5
D
102
{ACAD_REACTORS
330
C
102
}
330
C
100
AcDbDictionary
281
     1
  0
DICTIONARY
  5
62
102
{ACAD_REACTORS
330
C
102
}
330
C
100
AcDbDictionary
281
     1
  3
Model
350
73
  3
Sheet1
350
6F
  3
Sheet2
350
77
  0
DICTIONARY
  5
10
102
{ACAD_REACTORS
330
C
102
}
330
C
100
AcDbDictionary
281
     1
  3
ByBlock
350
19
  3
ByLayer
350
11
  3
Global
350
21
  0
DICTIONARY
  5
66
102
{ACAD_REACTORS
330
C
102
}
330
C
100
AcDbDictionary
281
     1
  3
Standard
350
67
  0
DICTIONARY
  5
5F
102
{ACAD_REACTORS
330
C
102
}
330
C
100
AcDbDictionary
281
     1
  3
Standard
350
60
  0
DICTIONARY
  5
61
102
{ACAD_REACTORS
330
C
102
}
330
C
100
AcDbDictionary
281
     1
  0
ACDBDICTIONARYWDFLT
  5
E
102
{ACAD_REACTORS
330
C
102
}
330
C
100
AcDbDictionary
281
     1
  3
Normal
350
F
100
AcDbDictionaryWithDefault
340
F
  0
DICTIONARY
  5
42
102
{ACAD_REACTORS
330
C
102
}
330
C
100
AcDbDictionary
281
     1
  3
A0
350
43
  3
A1
350
44
  3
A2
350
45
  3
A3
350
46
  3
A4
350
47
  3
A5
350
48
  3
A6
350
49
  3
A7
350
4A
  3
A8
350
4B
  3
A9
350
4C
  3
B0
350
4D
  3
B1
350
4E
  3
B2
350
4F
  3
B3
350
50
  3
B4
350
51
  3
B5
350
52
  3
B6
350
53
  0
DICTIONARY
  5
68
102
{ACAD_REACTORS
330
C
102
}
330
C
100
AcDbDictionary
281
     1
  3
Imperial24
350
69
  0
DICTIONARY
  5
64
102
{ACAD_REACTORS
330
C
102
}
330
C
100
AcDbDictionary
281
     1
  3
Standard
350
65
  0
DICTIONARY
  5
29
102
{ACAD_REACTORS
330
C
102
}
330
C
100
AcDbDictionary
281
     1
  3
2dWireframe
350
2F
  3
Basic
350
2E
  3
Brighten
350
35
  3
ColorChange
350
39
  3
Conceptual
350
32
  3
Dim
350
34
  3
EdgeColorOff
350
41
  3
Facepattern
350
38
  3
Flat
350
2A
  3
FlatWithEdges
350
2B
  3
Gouraud
350
2C
  3
GouraudWithEdges
350
2D
  3
Hidden
350
31
  3
JitterOff
350
3F
  3
Linepattern
350
37
  3
OverhangOff
350
40
  3
Realistic
350
33
  3
Shaded
350
3E
  3
Shaded with edges
350
3D
  3
Shades of Gray
350
3A
  3
Sketchy
350
3B
  3
Thicken
350
36
  3
Wireframe
350
30
  3
X-Ray
350
3C
  0
XRECORD
  5
407
102
{ACAD_REACTORS
330
C
102
}
330
C
100
AcDbXrecord
280
     1
 90
        1
330
65
  0
DICTIONARY
  5
3FE
102
{ACAD_REACTORS
330
C
102
}
330
C
100
AcDbDictionary
281
     1
  3
ANNOALLVISIBLE
350
403
  3
CANNOSCALE
350
404
  3
CMLEADERSTYLE
350
400
  3
CTABLESTYLE
350
3FF
  3
CVIEWDETAILSTYLE
350
401
  3
CVIEWSECTIONSTYLE
350
402
  0
SORTENTSTABLE
  5
A5
102
{ACAD_REACTORS
330
A4
102
}
330
A4
100
AcDbSortentsTable
330
70
  0
ACDBDETAILVIEWSTYLE
  5
6B
102
{ACAD_XDICTIONARY
360
40A
102
}
102
{ACAD_REACTORS
330
6A
102
}
330
6A
100
AcDbModelDocViewStyle
 70
     0
  3
Imperial24
290
     0
100
AcDbDetailViewStyle
 70
     0
 71
     0
 90
        3
 71
     1
340
55
 62
   256
 40
0.24
340
0
 62
   256
 40
0.24
300

 40
0.36
280
     3
 71
     2
340
5D
 90
       25
 62
   256
 71
     3
340
55
 62
   256
 40
0.24
 90
        1
 40
0.75
 90
        1
300
%<\AcVar ViewType \f "%tc1">% %<\AcVar ViewDetailId>%\PSCALE %<\AcVar ViewScale \f "%sn">%
 71
     4
340
5D
 90
       25
 62
   256
340
5D
 90
       25
 62
   256
280
     0
  0
LAYOUT
  5
73
102
{ACAD_REACTORS
330
62
102
}
330
62
100
AcDbPlotSettings
  1

  2
AutoCAD PDF (High Quality Print).pc3
  4
ISO_full_bleed_A3_(420.00_x_297.00_MM)
  6

 40
0.0
 41
0.0
 42
0.0
 43
0.0
 44
420.0
 45
297.0
 46
0.0
 47
0.0
 48
0.0
 49
0.0
140
0.0
141
0.0
142
1.0
143
5.209864
 70
 11952
 72
     1
 73
     0
 74
     0
  7

 75
     0
147
0.191944
 76
     0
 77
     2
 78
   300
148
1032.226413
149
657.342004
100
AcDbLayout
  1
Model
 70
     1
 71
     0
 10
0.0
 20
0.0
 11
12.0
 21
9.0
 12
0.0
 22
0.0
 32
0.0
 14
0.0
 24
0.0
 34
0.0
 15
0.0
 25
0.0
 35
0.0
146
0.0
 13
0.0
 23
0.0
 33
0.0
 16
1.0
 26
0.0
 36
0.0
 17
0.0
 27
1.0
 37
0.0
 76
     0
330
70
1001
ACAD_PSEXT
1000
AutoCAD PDF (High Quality Print).pc3
1000
DWG To PDF
1000
File
1000

1070
     0
  0
LAYOUT
  5
6F
102
{ACAD_REACTORS
330
62
102
}
330
62
100
AcDbPlotSettings
  1

  2
None
  4

  6

 40
0.0
 41
0.0
 42
0.0
 43
0.0
 44
0.0
 45
0.0
 46
0.0
 47
0.0
 48
0.0
 49
0.0
140
0.0
141
0.0
142
1.0
143
1.0
 70
   688
 72
     0
 73
     0
 74
     5
  7

 75
    16
147
1.0
 76
     0
 77
     2
 78
   300
148
0.0
149
0.0
100
AcDbLayout
  1
Sheet1
 70
     1
 71
     1
 10
0.0
 20
0.0
 11
12.0
 21
9.0
 12
0.0
 22
0.0
 32
0.0
 14
0.0
 24
0.0
 34
0.0
 15
0.0
 25
0.0
 35
0.0
146
0.0
 13
0.0
 23
0.0
 33
0.0
 16
1.0
 26
0.0
 36
0.0
 17
0.0
 27
1.0
 37
0.0
 76
     0
330
6C
  0
LAYOUT
  5
77
102
{ACAD_REACTORS
330
62
102
}
330
62
100
AcDbPlotSettings
  1

  2
None
  4

  6

 40
0.0
 41
0.0
 42
0.0
 43
0.0
 44
0.0
 45
0.0
 46
0.0
 47
0.0
 48
0.0
 49
0.0
140
0.0
141
0.0
142
1.0
143
1.0
 70
   688
 72
     0
 73
     0
 74
     5
  7

 75
    16
147
1.0
 76
     0
 77
     2
 78
   300
148
0.0
149
0.0
100
AcDbLayout
  1
Sheet2
 70
     1
 71
     2
 10
0.0
 20
0.0
 11
12.0
 21
9.0
 12
0.0
 22
0.0
 32
0.0
 14
0.0
 24
0.0
 34
0.0
 15
0.0
 25
0.0
 35
0.0
146
0.0
 13
0.0
 23
0.0
 33
0.0
 16
1.0
 26
0.0
 36
0.0
 17
0.0
 27
1.0
 37
0.0
 76
     0
330
74
  0
MATERIAL
  5
19
102
{ACAD_XDICTIONARY
360
1A
102
}
102
{ACAD_REACTORS
330
10
102
}
330
10
100
AcDbMaterial
  1
ByBlock
 72
     0
 43
0.020833
 43
0.0
 43
0.0
 43
0.0
 43
0.0
 43
0.020833
 43
0.0
 43
0.0
 43
0.0
 43
0.0
 43
1.0
 43
0.0
 43
0.0
 43
0.0
 43
0.0
 43
1.0
 77
     0
 47
0.020833
 47
0.0
 47
0.0
 47
0.0
 47
0.0
 47
0.020833
 47
0.0
 47
0.0
 47
0.0
 47
0.0
 47
1.0
 47
0.0
 47
0.0
 47
0.0
 47
0.0
 47
1.0
171
     0
 49
0.020833
 49
0.0
 49
0.0
 49
0.0
 49
0.0
 49
0.020833
 49
0.0
 49
0.0
 49
0.0
 49
0.0
 49
1.0
 49
0.0
 49
0.0
 49
0.0
 49
0.0
 49
1.0
175
     0
142
0.020833
142
0.0
142
0.0
142
0.0
142
0.0
142
0.020833
142
0.0
142
0.0
142
0.0
142
0.0
142
1.0
142
0.0
142
0.0
142
0.0
142
0.0
142
1.0
179
     0
144
0.020833
144
0.0
144
0.0
144
0.0
144
0.0
144
0.020833
144
0.0
144
0.0
144
0.0
144
0.0
144
1.0
144
0.0
144
0.0
144
0.0
144
0.0
144
1.0
147
0.020833
147
0.0
147
0.0
147
0.0
147
0.0
147
0.020833
147
0.0
147
0.0
147
0.0
147
0.0
147
1.0
147
0.0
147
0.0
147
0.0
147
0.0
147
1.0
  0
MATERIAL
  5
11
102
{ACAD_XDICTIONARY
360
12
102
}
102
{ACAD_REACTORS
330
10
102
}
330
10
100
AcDbMaterial
  1
ByLayer
 72
     0
 43
0.020833
 43
0.0
 43
0.0
 43
0.0
 43
0.0
 43
0.020833
 43
0.0
 43
0.0
 43
0.0
 43
0.0
 43
1.0
 43
0.0
 43
0.0
 43
0.0
 43
0.0
 43
1.0
 77
     0
 47
0.020833
 47
0.0
 47
0.0
 47
0.0
 47
0.0
 47
0.020833
 47
0.0
 47
0.0
 47
0.0
 47
0.0
 47
1.0
 47
0.0
 47
0.0
 47
0.0
 47
0.0
 47
1.0
171
     0
 49
0.020833
 49
0.0
 49
0.0
 49
0.0
 49
0.0
 49
0.020833
 49
0.0
 49
0.0
 49
0.0
 49
0.0
 49
1.0
 49
0.0
 49
0.0
 49
0.0
 49
0.0
 49
1.0
175
     0
142
0.020833
142
0.0
142
0.0
142
0.0
142
0.0
142
0.020833
142
0.0
142
0.0
142
0.0
142
0.0
142
1.0
142
0.0
142
0.0
142
0.0
142
0.0
142
1.0
179
     0
144
0.020833
144
0.0
144
0.0
144
0.0
144
0.0
144
0.020833
144
0.0
144
0.0
144
0.0
144
0.0
144
1.0
144
0.0
144
0.0
144
0.0
144
0.0
144
1.0
147
0.020833
147
0.0
147
0.0
147
0.0
147
0.0
147
0.020833
147
0.0
147
0.0
147
0.0
147
0.0
147
1.0
147
0.0
147
0.0
147
0.0
147
0.0
147
1.0
  0
MATERIAL
  5
21
102
{ACAD_XDICTIONARY
360
22
102
}
102
{ACAD_REACTORS
330
10
102
}
330
10
100
AcDbMaterial
  1
Global
 72
     0
 43
0.020833
 43
0.0
 43
0.0
 43
0.0
 43
0.0
 43
0.020833
 43
0.0
 43
0.0
 43
0.0
 43
0.0
 43
1.0
 43
0.0
 43
0.0
 43
0.0
 43
0.0
 43
1.0
 77
     0
 47
0.020833
 47
0.0
 47
0.0
 47
0.0
 47
0.0
 47
0.020833
 47
0.0
 47
0.0
 47
0.0
 47
0.0
 47
1.0
 47
0.0
 47
0.0
 47
0.0
 47
0.0
 47
1.0
171
     0
 49
0.020833
 49
0.0
 49
0.0
 49
0.0
 49
0.0
 49
0.020833
 49
0.0
 49
0.0
 49
0.0
 49
0.0
 49
1.0
 49
0.0
 49
0.0
 49
0.0
 49
0.0
 49
1.0
175
     0
142
0.020833
142
0.0
142
0.0
142
0.0
142
0.0
142
0.020833
142
0.0
142
0.0
142
0.0
142
0.0
142
1.0
142
0.0
142
0.0
142
0.0
142
0.0
142
1.0
179
     0
144
0.020833
144
0.0
144
0.0
144
0.0
144
0.0
144
0.020833
144
0.0
144
0.0
144
0.0
144
0.0
144
1.0
144
0.0
144
0.0
144
0.0
144
0.0
144
1.0
147
0.020833
147
0.0
147
0.0
147
0.0
147
0.0
147
0.020833
147
0.0
147
0.0
147
0.0
147
0.0
147
1.0
147
0.0
147
0.0
147
0.0
147
0.0
147
1.0
  0
MLEADERSTYLE
  5
67
102
{ACAD_REACTORS
330
66
102
}
330
66
100
AcDbMLeaderStyle
179
     2
170
     2
171
     1
172
     0
 90
        2
 40
0.0
 41
0.0
173
     1
 91
-1056964608
340
5B
 92
       -2
290
     1
 42
0.09
291
     1
 43
0.36
  3
Standard
 44
0.18
300

342
55
174
     1
178
     6
175
     1
176
     0
 93
-1056964608
 45
0.18
292
     0
297
     0
 46
0.18
 94
-1056964608
 47
1.0
 49
1.0
140
1.0
293
     1
141
0.0
294
     1
177
     0
142
1.0
295
     0
296
     0
143
0.125
271
     0
272
     9
273
     9
298
     1
  0
MLINESTYLE
  5
60
102
{ACAD_REACTORS
330
5F
102
}
330
5F
100
AcDbMlineStyle
  2
STANDARD
 70
     0
  3

 62
   256
 51
90.0
 52
90.0
 71
     0
  0
ACDBPLACEHOLDER
  5
F
102
{ACAD_REACTORS
330
E
102
}
330
E
  0
SCALE
  5
43
102
{ACAD_REACTORS
330
42
102
}
330
42
100
AcDbScale
 70
     0
300
1:1
140
1.0
141
1.0
290
     1
  0
SCALE
  5
44
102
{ACAD_REACTORS
330
42
102
}
330
42
100
AcDbScale
 70
     0
300
1:2
140
1.0
141
2.0
290
     0
  0
SCALE
  5
45
102
{ACAD_REACTORS
330
42
102
}
330
42
100
AcDbScale
 70
     0
300
1:4
140
1.0
141
4.0
290
     0
  0
SCALE
  5
46
102
{ACAD_REACTORS
330
42
102
}
330
42
100
AcDbScale
 70
     0
300
1:5
140
1.0
141
5.0
290
     0
  0
SCALE
  5
47
102
{ACAD_REACTORS
330
42
102
}
330
42
100
AcDbScale
 70
     0
300
1:8
140
1.0
141
8.0
290
     0
  0
SCALE
  5
48
102
{ACAD_REACTORS
330
42
102
}
330
42
100
AcDbScale
 70
     0
300
1:10
140
1.0
141
10.0
290
     0
  0
SCALE
  5
49
102
{ACAD_REACTORS
330
42
102
}
330
42
100
AcDbScale
 70
     0
300
1:16
140
1.0
141
16.0
290
     0
  0
SCALE
  5
4A
102
{ACAD_REACTORS
330
42
102
}
330
42
100
AcDbScale
 70
     0
300
1:20
140
1.0
141
20.0
290
     0
  0
SCALE
  5
4B
102
{ACAD_REACTORS
330
42
102
}
330
42
100
AcDbScale
 70
     0
300
1:30
140
1.0
141
30.0
290
     0
  0
SCALE
  5
4C
102
{ACAD_REACTORS
330
42
102
}
330
42
100
AcDbScale
 70
     0
300
1:40
140
1.0
141
40.0
290
     0
  0
SCALE
  5
4D
102
{ACAD_REACTORS
330
42
102
}
330
42
100
AcDbScale
 70
     0
300
1:50
140
1.0
141
50.0
290
     0
  0
SCALE
  5
4E
102
{ACAD_REACTORS
330
42
102
}
330
42
100
AcDbScale
 70
     0
300
1:100
140
1.0
141
100.0
290
     0
  0
SCALE
  5
4F
102
{ACAD_REACTORS
330
42
102
}
330
42
100
AcDbScale
 70
     0
300
2:1
140
2.0
141
1.0
290
     0
  0
SCALE
  5
50
102
{ACAD_REACTORS
330
42
102
}
330
42
100
AcDbScale
 70
     0
300
4:1
140
4.0
141
1.0
290
     0
  0
SCALE
  5
51
102
{ACAD_REACTORS
330
42
102
}
330
42
100
AcDbScale
 70
     0
300
8:1
140
8.0
141
1.0
290
     0
  0
SCALE
  5
52
102
{ACAD_REACTORS
330
42
102
}
330
42
100
AcDbScale
 70
     0
300
10:1
140
10.0
141
1.0
290
     0
  0
SCALE
  5
53
102
{ACAD_REACTORS
330
42
102
}
330
42
100
AcDbScale
 70
     0
300
100:1
140
100.0
141
1.0
290
     0
  0
ACDBSECTIONVIEWSTYLE
  5
69
102
{ACAD_XDICTIONARY
360
408
102
}
102
{ACAD_REACTORS
330
68
102
}
330
68
100
AcDbModelDocViewStyle
 70
     0
  3
Imperial24
290
     0
100
AcDbSectionViewStyle
 70
     0
 71
     0
 90
       78
 71
     1
340
55
 62
   256
 40
0.24
340
0
340
0
 62
   256
 40
0.24
300
I, O, Q, S, X, Z
 40
0.48
 90
        3
 40
0.18
 90
        1
 71
     2
340
5D
 90
       25
 62
   256
340
5D
 90
       50
 62
   256
 40
0.24
 40
0.0
 40
0.24
 71
     3
340
55
 62
   256
 40
0.24
 90
        1
 40
0.75
 90
        1
300
%<\AcVar ViewType \f "%tc1">% %<\AcVar ViewSectionStartId>%-%<\AcVar ViewSectionEndId>%\PSCALE %<\AcVar ViewScale \f "%sn">%
 71
     4
 62
   256
 62
   257
300
ANSI31
 40
1.0
 90
        0
290
     0
290
     0
 90
        6
 40
0.0
 40
1.570796
 40
0.261799
 40
1.308997
 40
-0.261799
 40
1.832596
  0
TABLESTYLE
  5
65
102
{ACAD_XDICTIONARY
360
405
102
}
102
{ACAD_REACTORS
330
64
102
}
330
64
100
AcDbTableStyle
280
     0
  3
Standard
 70
     0
 71
     0
 40
1.5
 41
1.5
280
     0
281
     0
  7
Standard
140
0.18
170
     2
 62
     0
 63
     7
283
     0
 90
      512
 91
        0
  1

274
    -2
284
     1
 64
     0
275
    -2
285
     1
 65
     0
276
    -2
286
     1
 66
     0
277
    -2
287
     1
 67
     0
278
    -2
288
     1
 68
     0
279
    -2
289
     1
 69
     0
  7
Standard
140
0.25
170
     5
 62
     0
 63
     7
283
     0
 90
      512
 91
        0
  1

274
    -2
284
     1
 64
     0
275
    -2
285
     1
 65
     0
276
    -2
286
     1
 66
     0
277
    -2
287
     1
 67
     0
278
    -2
288
     1
 68
     0
279
    -2
289
     1
 69
     0
  7
Standard
140
0.18
170
     5
 62
     0
 63
     7
283
     0
 90
      512
 91
        0
  1

274
    -2
284
     1
 64
     0
275
    -2
285
     1
 65
     0
276
    -2
286
     1
 66
     0
277
    -2
287
     1
 67
     0
278
    -2
288
     1
 68
     0
279
    -2
289
     1
 69
     0
  0
VISUALSTYLE
  5
2F
102
{ACAD_REACTORS
330
29
102
}
330
29
100
AcDbVisualStyle
  2
2dWireframe
 70
     4
177
     3
291
     0
 70
    58
 90
        0
176
     1
 90
        2
176
     1
 90
        0
176
     1
 90
        0
176
     1
 40
0.6
176
     1
 40
30.0
176
     1
 62
     7
420
 16777215
176
     1
 90
        1
176
     1
 90
        4
176
     1
 62
     7
176
     1
 62
   257
176
     1
 90
        1
176
     1
 90
        1
176
     1
 40
1.0
176
     1
 90
        0
176
     1
 62
   257
176
     1
 40
1.0
176
     1
 90
        1
176
     1
 90
        6
176
     1
 90
        2
176
     1
 62
     7
176
     1
 90
        5
176
     1
 90
        0
176
     1
 90
        0
176
     1
290
     0
176
     1
 90
        1
176
     1
 40
0.0
176
     1
 90
        0
176
     1
290
     1
176
     1
290
     1
176
     1
290
     0
176
     1
290
     0
176
     1
290
     0
176
     1
290
     0
176
     1
290
     0
176
     1
290
     0
176
     1
290
     0
176
     1
 90
       50
176
     1
 40
0.0
176
     1
 40
1.0
176
     1
 90
        0
176
     1
 62
    18
420
        0
176
     1
 90
       50
176
     1
 90
        3
176
     1
 62
     5
420
      255
176
     1
290
     0
176
     1
 90
       50
176
     1
 90
       50
176
     1
 90
       50
176
     1
290
     0
176
     1
 90
       50
176
     1
 62
   256
176
     0
 40
1.0
176
     0
 90
        2
176
     1
  1
strokes_ogs.tif
176
     1
290
     0
176
     1
 40
1.0
176
     1
 40
1.0
176
     1
1001
ACAD
1000
AcDbSavedByObjectVersion
1070
     0
  0
VISUALSTYLE
  5
2E
102
{ACAD_REACTORS
330
29
102
}
330
29
100
AcDbVisualStyle
  2
Basic
 70
     7
177
     3
291
     1
 70
    58
 90
        1
176
     1
 90
        0
176
     1
 90
        1
176
     1
 90
        0
176
     1
 40
0.6
176
     1
 40
30.0
176
     1
 62
     7
420
 16777215
176
     1
 90
        0
176
     1
 90
        4
176
     1
 62
     7
176
     1
 62
   257
176
     1
 90
        1
176
     1
 90
        1
176
     1
 40
1.0
176
     1
 90
        8
176
     1
 62
     7
176
     1
 40
1.0
176
     1
 90
        1
176
     1
 90
        6
176
     1
 90
        2
176
     1
 62
     7
176
     1
 90
        5
176
     1
 90
        0
176
     1
 90
        0
176
     1
290
     0
176
     1
 90
        1
176
     1
 40
0.0
176
     1
 90
        0
176
     1
290
     0
176
     1
290
     1
176
     1
290
     1
176
     1
290
     0
176
     1
290
     0
176
     1
290
     0
176
     1
290
     0
176
     1
290
     0
176
     1
290
     0
176
     1
 90
       50
176
     1
 40
0.0
176
     1
 40
1.0
176
     1
 90
        0
176
     1
 62
    18
420
        0
176
     1
 90
       50
176
     1
 90
        3
176
     1
 62
     5
420
      255
176
     1
290
     0
176
     1
 90
       50
176
     1
 90
       50
176
     1
 90
       50
176
     1
290
     0
176
     1
 90
       50
176
     1
 62
   256
176
     0
 40
1.0
176
     0
 90
        2
176
     1
  1
strokes_ogs.tif
176
     1
290
     0
176
     1
 40
1.0
176
     1
 40
1.0
176
     1
1001
ACAD
1000
AcDbSavedByObjectVersion
1070
     0
  0
VISUALSTYLE
  5
35
102
{ACAD_REACTORS
330
29
102
}
330
29
100
AcDbVisualStyle
  2
Brighten
 70
    12
177
     3
291
     1
 70
    58
 90
        2
176
     1
 90
        2
176
     1
 90
        0
176
     1
 90
        0
176
     1
 40
0.6
176
     1
 40
30.0
176
     1
 62
     7
420
 16777215
176
     1
 90
        1
176
     1
 90
        4
176
     1
 62
     7
176
     1
 62
   257
176
     1
 90
        1
176
     1
 90
        1
176
     1
 40
1.0
176
     1
 90
        8
176
     1
 62
     7
176
     1
 40
1.0
176
     1
 90
        1
176
     1
 90
        6
176
     1
 90
        2
176
     1
 62
     7
176
     1
 90
        5
176
     1
 90
        0
176
     1
 90
        0
176
     1
290
     0
176
     1
 90
        1
176
     1
 40
50.0
176
     1
 90
        0
176
     1
290
     0
176
     1
290
     1
176
     1
290
     1
176
     1
290
     0
176
     1
290
     0
176
     1
290
     0
176
     1
290
     0
176
     1
290
     0
176
     1
290
     0
176
     1
 90
       50
176
     1
 40
0.0
176
     1
 40
1.0
176
     1
 90
        0
176
     1
 62
    18
420
        0
176
     1
 90
       50
176
     1
 90
        3
176
     1
 62
     5
420
      255
176
     1
290
     0
176
     1
 90
       50
176
     1
 90
       50
176
     1
 90
       50
176
     1
290
     0
176
     1
 90
       50
176
     1
 62
   256
176
     0
 40
1.0
176
     0
 90
        2
176
     1
  1
strokes_ogs.tif
176
     1
290
     0
176
     1
 40
1.0
176
     1
 40
1.0
176
     1
1001
ACAD
1000
AcDbSavedByObjectVersion
1070
     0
  0
VISUALSTYLE
  5
39
102
{ACAD_REACTORS
330
29
102
}
330
29
100
AcDbVisualStyle
  2
ColorChange
 70
    16
177
     3
291
     1
 70
    58
 90
        2
176
     1
 90
        2
176
     1
 90
        3
176
     1
 90
        0
176
     1
 40
0.6
176
     1
 40
30.0
176
     1
 62
     8
420
  8421504
176
     1
 90
        1
176
     1
 90
        4
176
     1
 62
     7
176
     1
 62
   257
176
     1
 90
        1
176
     1
 90
        1
176
     1
 40
1.0
176
     1
 90
        8
176
     1
 62
     8
420
  8421504
176
     1
 40
1.0
176
     1
 90
        1
176
     1
 90
        6
176
     1
 90
        2
176
     1
 62
     7
176
     1
 90
        5
176
     1
 90
        0
176
     1
 90
        0
176
     1
290
     0
176
     1
 90
        1
176
     1
 40
0.0
176
     1
 90
        0
176
     1
290
     0
176
     1
290
     1
176
     1
290
     1
176
     1
290
     0
176
     1
290
     0
176
     1
290
     0
176
     1
290
     0
176
     1
290
     0
176
     1
290
     0
176
     1
 90
       50
176
     1
 40
0.0
176
     1
 40
1.0
176
     1
 90
        0
176
     1
 62
    18
420
        0
176
     1
 90
       50
176
     1
 90
        3
176
     1
 62
     5
420
      255
176
     1
290
     0
176
     1
 90
       50
176
     1
 90
       50
176
     1
 90
       50
176
     1
290
     0
176
     1
 90
       50
176
     1
 62
   256
176
     0
 40
1.0
176
     0
 90
        2
176
     1
  1
strokes_ogs.tif
176
     1
290
     0
176
     1
 40
1.0
176
     1
 40
1.0
176
     1
1001
ACAD
1000
AcDbSavedByObjectVersion
1070
     0
  0
VISUALSTYLE
  5
32
102
{ACAD_REACTORS
330
29
102
}
330
29
100
AcDbVisualStyle
  2
Conceptual
 70
     9
177
     3
291
     0
 70
    58
 90
        3
176
     1
 90
        2
176
     1
 90
        0
176
     1
 90
        0
176
     1
 40
0.6
176
     1
 40
30.0
176
     1
 62
     7
420
 16777215
176
     1
 90
        2
176
     1
 90
        2
176
     1
 62
     7
176
     1
 62
   257
176
     1
 90
        1
176
     1
 90
        1
176
     1
 40
179.0
176
     1
 90
        8
176
     1
 62
     7
176
     1
 40
1.0
176
     1
 90
        1
176
     1
 90
        6
176
     1
 90
        2
176
     1
 62
     7
176
     1
 90
        3
176
     1
 90
        0
176
     1
 90
        0
176
     1
290
     0
176
     1
 90
        1
176
     1
 40
0.0
176
     1
 90
        0
176
     1
290
     0
176
     1
290
     1
176
     1
290
     1
176
     1
290
     0
176
     1
290
     0
176
     1
290
     0
176
     1
290
     0
176
     1
290
     0
176
     1
290
     0
176
     1
 90
       50
176
     1
 40
0.0
176
     1
 40
1.0
176
     1
 90
        0
176
     1
 62
    18
420
        0
176
     1
 90
       50
176
     1
 90
        3
176
     1
 62
     5
420
      255
176
     1
290
     0
176
     1
 90
       50
176
     1
 90
       50
176
     1
 90
       50
176
     1
290
     0
176
     1
 90
       50
176
     1
 62
   256
176
     0
 40
1.0
176
     0
 90
        2
176
     1
  1
strokes_ogs.tif
176
     1
290
     0
176
     1
 40
1.0
176
     1
 40
1.0
176
     1
1001
ACAD
1000
AcDbSavedByObjectVersion
1070
     0
  0
VISUALSTYLE
  5
34
102
{ACAD_REACTORS
330
29
102
}
330
29
100
AcDbVisualStyle
  2
Dim
 70
    11
177
     3
291
     1
 70
    58
 90
        2
176
     1
 90
        2
176
     1
 90
        0
176
     1
 90
        0
176
     1
 40
0.6
176
     1
 40
30.0
176
     1
 62
     7
420
 16777215
176
     1
 90
        1
176
     1
 90
        4
176
     1
 62
     7
176
     1
 62
   257
176
     1
 90
        1
176
     1
 90
        1
176
     1
 40
1.0
176
     1
 90
        8
176
     1
 62
     7
176
     1
 40
1.0
176
     1
 90
        1
176
     1
 90
        6
176
     1
 90
        2
176
     1
 62
     7
176
     1
 90
        5
176
     1
 90
        0
176
     1
 90
        0
176
     1
290
     0
176
     1
 90
        1
176
     1
 40
-50.0
176
     1
 90
        0
176
     1
290
     0
176
     1
290
     1
176
     1
290
     1
176
     1
290
     0
176
     1
290
     0
176
     1
290
     0
176
     1
290
     0
176
     1
290
     0
176
     1
290
     0
176
     1
 90
       50
176
     1
 40
0.0
176
     1
 40
1.0
176
     1
 90
        0
176
     1
 62
    18
420
        0
176
     1
 90
       50
176
     1
 90
        3
176
     1
 62
     5
420
      255
176
     1
290
     0
176
     1
 90
       50
176
     1
 90
       50
176
     1
 90
       50
176
     1
290
     0
176
     1
 90
       50
176
     1
 62
   256
176
     0
 40
1.0
176
     0
 90
        2
176
     1
  1
strokes_ogs.tif
176
     1
290
     0
176
     1
 40
1.0
176
     1
 40
1.0
176
     1
1001
ACAD
1000
AcDbSavedByObjectVersion
1070
     0
  0
VISUALSTYLE
  5
41
102
{ACAD_REACTORS
330
29
102
}
330
29
100
AcDbVisualStyle
  2
EdgeColorOff
 70
    22
177
     3
291
     1
 70
    58
 90
        2
176
     0
 90
        2
176
     0
 90
        0
176
     0
 90
        0
176
     0
 40
0.6
176
     0
 40
30.0
176
     0
 62
     7
420
 16777215
176
     0
 90
        1
176
     0
 90
        4
176
     0
 62
     7
176
     0
 62
   257
176
     0
 90
        1
176
     0
 90
        1
176
     0
 40
1.0
176
     0
 90
        8
176
     2
 62
     7
176
     0
 40
1.0
176
     0
 90
        1
176
     0
 90
        6
176
     0
 90
        2
176
     0
 62
     7
176
     0
 90
        5
176
     0
 90
        0
176
     0
 90
        0
176
     0
290
     0
176
     0
 90
        1
176
     0
 40
0.0
176
     0
 90
        0
176
     0
290
     0
176
     0
290
     1
176
     0
290
     1
176
     0
290
     0
176
     0
290
     0
176
     0
290
     0
176
     0
290
     0
176
     0
290
     0
176
     0
290
     0
176
     0
 90
       50
176
     0
 40
0.0
176
     0
 40
1.0
176
     0
 90
        0
176
     0
 62
    18
420
        0
176
     0
 90
       50
176
     0
 90
        3
176
     0
 62
     5
420
      255
176
     0
290
     0
176
     0
 90
       50
176
     0
 90
       50
176
     0
 90
       50
176
     0
290
     0
176
     0
 90
       50
176
     0
 62
   256
176
     0
 40
1.0
176
     0
 90
        2
176
     0
  1
strokes_ogs.tif
176
     0
290
     0
176
     0
 40
1.0
176
     0
 40
1.0
176
     0
1001
ACAD
1000
AcDbSavedByObjectVersion
1070
     0
  0
VISUALSTYLE
  5
38
102
{ACAD_REACTORS
330
29
102
}
330
29
100
AcDbVisualStyle
  2
Facepattern
 70
    15
177
     3
291
     1
 70
    58
 90
        2
176
     1
 90
        2
176
     1
 90
        0
176
     1
 90
        0
176
     1
 40
0.6
176
     1
 40
30.0
176
     1
 62
     7
420
 16777215
176
     1
 90
        1
176
     1
 90
        4
176
     1
 62
     7
176
     1
 62
   257
176
     1
 90
        1
176
     1
 90
        1
176
     1
 40
1.0
176
     1
 90
        8
176
     1
 62
     7
176
     1
 40
1.0
176
     1
 90
        1
176
     1
 90
        6
176
     1
 90
        2
176
     1
 62
     7
176
     1
 90
        5
176
     1
 90
        0
176
     1
 90
        0
176
     1
290
     0
176
     1
 90
        1
176
     1
 40
0.0
176
     1
 90
        0
176
     1
290
     0
176
     1
290
     1
176
     1
290
     1
176
     1
290
     0
176
     1
290
     0
176
     1
290
     0
176
     1
290
     0
176
     1
290
     0
176
     1
290
     0
176
     1
 90
       50
176
     1
 40
0.0
176
     1
 40
1.0
176
     1
 90
        0
176
     1
 62
    18
420
        0
176
     1
 90
       50
176
     1
 90
        3
176
     1
 62
     5
420
      255
176
     1
290
     0
176
     1
 90
       50
176
     1
 90
       50
176
     1
 90
       50
176
     1
290
     0
176
     1
 90
       50
176
     1
 62
   256
176
     0
 40
1.0
176
     0
 90
        2
176
     1
  1
strokes_ogs.tif
176
     1
290
     0
176
     1
 40
1.0
176
     1
 40
1.0
176
     1
1001
ACAD
1000
AcDbSavedByObjectVersion
1070
     0
  0
VISUALSTYLE
  5
2A
102
{ACAD_REACTORS
330
29
102
}
330
29
100
AcDbVisualStyle
  2
Flat
 70
     0
177
     3
291
     1
 70
    58
 90
        2
176
     1
 90
        1
176
     1
 90
        1
176
     1
 90
        2
176
     1
 40
0.6
176
     1
 40
30.0
176
     1
 62
     7
420
 16777215
176
     1
 90
        0
176
     1
 90
        0
176
     1
 62
     7
176
     1
 62
   257
176
     1
 90
        1
176
     1
 90
        1
176
     1
 40
1.0
176
     1
 90
        8
176
     1
 62
     7
176
     1
 40
1.0
176
     1
 90
        1
176
     1
 90
        6
176
     1
 90
        2
176
     1
 62
     7
176
     1
 90
        5
176
     1
 90
        0
176
     1
 90
        0
176
     1
290
     0
176
     1
 90
       13
176
     1
 40
0.0
176
     1
 90
        0
176
     1
290
     0
176
     1
290
     1
176
     1
290
     1
176
     1
290
     0
176
     1
290
     0
176
     1
290
     0
176
     1
290
     0
176
     1
290
     0
176
     1
290
     0
176
     1
 90
       50
176
     1
 40
0.0
176
     1
 40
1.0
176
     1
 90
        0
176
     1
 62
    18
420
        0
176
     1
 90
       50
176
     1
 90
        3
176
     1
 62
     5
420
      255
176
     1
290
     0
176
     1
 90
       50
176
     1
 90
       50
176
     1
 90
       50
176
     1
290
     0
176
     1
 90
       50
176
     1
 62
   256
176
     0
 40
1.0
176
     0
 90
        2
176
     1
  1
strokes_ogs.tif
176
     1
290
     0
176
     1
 40
1.0
176
     1
 40
1.0
176
     1
1001
ACAD
1000
AcDbSavedByObjectVersion
1070
     0
  0
VISUALSTYLE
  5
2B
102
{ACAD_REACTORS
330
29
102
}
330
29
100
AcDbVisualStyle
  2
FlatWithEdges
 70
     1
177
     3
291
     1
 70
    58
 90
        2
176
     1
 90
        1
176
     1
 90
        1
176
     1
 90
        2
176
     1
 40
0.6
176
     1
 40
30.0
176
     1
 62
     7
420
 16777215
176
     1
 90
        1
176
     1
 90
        0
176
     1
 62
     7
176
     1
 62
   257
176
     1
 90
        1
176
     1
 90
        1
176
     1
 40
1.0
176
     1
 90
        0
176
     1
 62
   257
176
     1
 40
1.0
176
     1
 90
        1
176
     1
 90
        6
176
     1
 90
        2
176
     1
 62
     7
176
     1
 90
        5
176
     1
 90
        0
176
     1
 90
        0
176
     1
290
     0
176
     1
 90
       13
176
     1
 40
0.0
176
     1
 90
        0
176
     1
290
     0
176
     1
290
     1
176
     1
290
     1
176
     1
290
     0
176
     1
290
     0
176
     1
290
     0
176
     1
290
     0
176
     1
290
     0
176
     1
290
     0
176
     1
 90
       50
176
     1
 40
0.0
176
     1
 40
1.0
176
     1
 90
        0
176
     1
 62
    18
420
        0
176
     1
 90
       50
176
     1
 90
        3
176
     1
 62
     5
420
      255
176
     1
290
     0
176
     1
 90
       50
176
     1
 90
       50
176
     1
 90
       50
176
     1
290
     0
176
     1
 90
       50
176
     1
 62
   256
176
     0
 40
1.0
176
     0
 90
        2
176
     1
  1
strokes_ogs.tif
176
     1
290
     0
176
     1
 40
1.0
176
     1
 40
1.0
176
     1
1001
ACAD
1000
AcDbSavedByObjectVersion
1070
     0
  0
VISUALSTYLE
  5
2C
102
{ACAD_REACTORS
330
29
102
}
330
29
100
AcDbVisualStyle
  2
Gouraud
 70
     2
177
     3
291
     1
 70
    58
 90
        2
176
     1
 90
        2
176
     1
 90
        1
176
     1
 90
        2
176
     1
 40
0.6
176
     1
 40
30.0
176
     1
 62
     7
420
 16777215
176
     1
 90
        0
176
     1
 90
        0
176
     1
 62
     7
176
     1
 62
   257
176
     1
 90
        1
176
     1
 90
        1
176
     1
 40
1.0
176
     1
 90
        0
176
     1
 62
     7
176
     1
 40
1.0
176
     1
 90
        1
176
     1
 90
        6
176
     1
 90
        2
176
     1
 62
     7
176
     1
 90
        5
176
     1
 90
        0
176
     1
 90
        0
176
     1
290
     0
176
     1
 90
       13
176
     1
 40
0.0
176
     1
 90
        0
176
     1
290
     0
176
     1
290
     1
176
     1
290
     1
176
     1
290
     0
176
     1
290
     0
176
     1
290
     0
176
     1
290
     0
176
     1
290
     0
176
     1
290
     0
176
     1
 90
       50
176
     1
 40
0.0
176
     1
 40
1.0
176
     1
 90
        0
176
     1
 62
    18
420
        0
176
     1
 90
       50
176
     1
 90
        3
176
     1
 62
     5
420
      255
176
     1
290
     0
176
     1
 90
       50
176
     1
 90
       50
176
     1
 90
       50
176
     1
290
     0
176
     1
 90
       50
176
     1
 62
   256
176
     0
 40
1.0
176
     0
 90
        2
176
     1
  1
strokes_ogs.tif
176
     1
290
     0
176
     1
 40
1.0
176
     1
 40
1.0
176
     1
1001
ACAD
1000
AcDbSavedByObjectVersion
1070
     0
  0
VISUALSTYLE
  5
2D
102
{ACAD_REACTORS
330
29
102
}
330
29
100
AcDbVisualStyle
  2
GouraudWithEdges
 70
     3
177
     3
291
     1
 70
    58
 90
        2
176
     1
 90
        2
176
     1
 90
        1
176
     1
 90
        2
176
     1
 40
0.6
176
     1
 40
30.0
176
     1
 62
     7
420
 16777215
176
     1
 90
        1
176
     1
 90
        0
176
     1
 62
     7
176
     1
 62
   257
176
     1
 90
        1
176
     1
 90
        1
176
     1
 40
1.0
176
     1
 90
        0
176
     1
 62
   257
176
     1
 40
1.0
176
     1
 90
        1
176
     1
 90
        6
176
     1
 90
        2
176
     1
 62
     7
176
     1
 90
        5
176
     1
 90
        0
176
     1
 90
        0
176
     1
290
     0
176
     1
 90
       13
176
     1
 40
0.0
176
     1
 90
        0
176
     1
290
     0
176
     1
290
     1
176
     1
290
     1
176
     1
290
     0
176
     1
290
     0
176
     1
290
     0
176
     1
290
     0
176
     1
290
     0
176
     1
290
     0
176
     1
 90
       50
176
     1
 40
0.0
176
     1
 40
1.0
176
     1
 90
        0
176
     1
 62
    18
420
        0
176
     1
 90
       50
176
     1
 90
        3
176
     1
 62
     5
420
      255
176
     1
290
     0
176
     1
 90
       50
176
     1
 90
       50
176
     1
 90
       50
176
     1
290
     0
176
     1
 90
       50
176
     1
 62
   256
176
     0
 40
1.0
176
     0
 90
        2
176
     1
  1
strokes_ogs.tif
176
     1
290
     0
176
     1
 40
1.0
176
     1
 40
1.0
176
     1
1001
ACAD
1000
AcDbSavedByObjectVersion
1070
     0
  0
VISUALSTYLE
  5
31
102
{ACAD_REACTORS
330
29
102
}
330
29
100
AcDbVisualStyle
  2
Hidden
 70
     6
177
     3
291
     0
 70
    58
 90
        1
176
     1
 90
        2
176
     1
 90
        2
176
     1
 90
        0
176
     1
 40
0.6
176
     1
 40
30.0
176
     1
 62
     7
420
 16777215
176
     1
 90
        2
176
     1
 90
        2
176
     1
 62
     7
176
     1
 62
   257
176
     1
 90
        2
176
     1
 90
        1
176
     1
 40
40.0
176
     1
 90
        0
176
     1
 62
   257
176
     1
 40
1.0
176
     1
 90
        1
176
     1
 90
        6
176
     1
 90
        2
176
     1
 62
     7
176
     1
 90
        3
176
     1
 90
        0
176
     1
 90
        0
176
     1
290
     0
176
     1
 90
        1
176
     1
 40
0.0
176
     1
 90
        0
176
     1
290
     0
176
     1
290
     1
176
     1
290
     1
176
     1
290
     0
176
     1
290
     0
176
     1
290
     0
176
     1
290
     0
176
     1
290
     0
176
     1
290
     0
176
     1
 90
       50
176
     1
 40
0.0
176
     1
 40
1.0
176
     1
 90
        0
176
     1
 62
    18
420
        0
176
     1
 90
       50
176
     1
 90
        3
176
     1
 62
     5
420
      255
176
     1
290
     0
176
     1
 90
       50
176
     1
 90
       50
176
     1
 90
       50
176
     1
290
     0
176
     1
 90
       50
176
     1
 62
   256
176
     0
 40
1.0
176
     0
 90
        2
176
     1
  1
strokes_ogs.tif
176
     1
290
     0
176
     1
 40
1.0
176
     1
 40
1.0
176
     1
1001
ACAD
1000
AcDbSavedByObjectVersion
1070
     0
  0
VISUALSTYLE
  5
3F
102
{ACAD_REACTORS
330
29
102
}
330
29
100
AcDbVisualStyle
  2
JitterOff
 70
    20
177
     3
291
     1
 70
    58
 90
        2
176
     0
 90
        2
176
     0
 90
        0
176
     0
 90
        0
176
     0
 40
0.6
176
     0
 40
30.0
176
     0
 62
     7
420
 16777215
176
     0
 90
        1
176
     0
 90
        4
176
     0
 62
     7
176
     0
 62
   257
176
     0
 90
        1
176
     0
 90
        1
176
     0
 40
1.0
176
     0
 90
       10
176
     2
 62
     7
176
     0
 40
1.0
176
     0
 90
        1
176
     0
 90
        6
176
     0
 90
        2
176
     0
 62
     7
176
     0
 90
        5
176
     0
 90
        0
176
     0
 90
        0
176
     0
290
     0
176
     0
 90
        1
176
     0
 40
0.0
176
     0
 90
        0
176
     0
290
     0
176
     0
290
     1
176
     0
290
     1
176
     0
290
     0
176
     0
290
     0
176
     0
290
     0
176
     0
290
     0
176
     0
290
     0
176
     0
290
     0
176
     0
 90
       50
176
     0
 40
0.0
176
     0
 40
1.0
176
     0
 90
        0
176
     0
 62
    18
420
        0
176
     0
 90
       50
176
     0
 90
        3
176
     0
 62
     5
420
      255
176
     0
290
     0
176
     0
 90
       50
176
     0
 90
       50
176
     0
 90
       50
176
     0
290
     0
176
     0
 90
       50
176
     0
 62
   256
176
     0
 40
1.0
176
     0
 90
        2
176
     0
  1
strokes_ogs.tif
176
     0
290
     0
176
     0
 40
1.0
176
     0
 40
1.0
176
     0
1001
ACAD
1000
AcDbSavedByObjectVersion
1070
     0
  0
VISUALSTYLE
  5
37
102
{ACAD_REACTORS
330
29
102
}
330
29
100
AcDbVisualStyle
  2
Linepattern
 70
    14
177
     3
291
     1
 70
    58
 90
        2
176
     1
 90
        2
176
     1
 90
        0
176
     1
 90
        0
176
     1
 40
0.6
176
     1
 40
30.0
176
     1
 62
     7
420
 16777215
176
     1
 90
        1
176
     1
 90
        4
176
     1
 62
     7
176
     1
 62
   257
176
     1
 90
        7
176
     1
 90
        7
176
     1
 40
1.0
176
     1
 90
        8
176
     1
 62
     7
176
     1
 40
1.0
176
     1
 90
        1
176
     1
 90
        6
176
     1
 90
        2
176
     1
 62
     7
176
     1
 90
        5
176
     1
 90
        0
176
     1
 90
        0
176
     1
290
     0
176
     1
 90
        1
176
     1
 40
0.0
176
     1
 90
        0
176
     1
290
     0
176
     1
290
     1
176
     1
290
     1
176
     1
290
     0
176
     1
290
     0
176
     1
290
     0
176
     1
290
     0
176
     1
290
     0
176
     1
290
     0
176
     1
 90
       50
176
     1
 40
0.0
176
     1
 40
1.0
176
     1
 90
        0
176
     1
 62
    18
420
        0
176
     1
 90
       50
176
     1
 90
        3
176
     1
 62
     5
420
      255
176
     1
290
     0
176
     1
 90
       50
176
     1
 90
       50
176
     1
 90
       50
176
     1
290
     0
176
     1
 90
       50
176
     1
 62
   256
176
     0
 40
1.0
176
     0
 90
        2
176
     1
  1
strokes_ogs.tif
176
     1
290
     0
176
     1
 40
1.0
176
     1
 40
1.0
176
     1
1001
ACAD
1000
AcDbSavedByObjectVersion
1070
     0
  0
VISUALSTYLE
  5
40
102
{ACAD_REACTORS
330
29
102
}
330
29
100
AcDbVisualStyle
  2
OverhangOff
 70
    21
177
     3
291
     1
 70
    58
 90
        2
176
     0
 90
        2
176
     0
 90
        0
176
     0
 90
        0
176
     0
 40
0.6
176
     0
 40
30.0
176
     0
 62
     7
420
 16777215
176
     0
 90
        1
176
     0
 90
        4
176
     0
 62
     7
176
     0
 62
   257
176
     0
 90
        1
176
     0
 90
        1
176
     0
 40
1.0
176
     0
 90
        9
176
     2
 62
     7
176
     0
 40
1.0
176
     0
 90
        1
176
     0
 90
        6
176
     0
 90
        2
176
     0
 62
     7
176
     0
 90
        5
176
     0
 90
        0
176
     0
 90
        0
176
     0
290
     0
176
     0
 90
        1
176
     0
 40
0.0
176
     0
 90
        0
176
     0
290
     0
176
     0
290
     1
176
     0
290
     1
176
     0
290
     0
176
     0
290
     0
176
     0
290
     0
176
     0
290
     0
176
     0
290
     0
176
     0
290
     0
176
     0
 90
       50
176
     0
 40
0.0
176
     0
 40
1.0
176
     0
 90
        0
176
     0
 62
    18
420
        0
176
     0
 90
       50
176
     0
 90
        3
176
     0
 62
     5
420
      255
176
     0
290
     0
176
     0
 90
       50
176
     0
 90
       50
176
     0
 90
       50
176
     0
290
     0
176
     0
 90
       50
176
     0
 62
   256
176
     0
 40
1.0
176
     0
 90
        2
176
     0
  1
strokes_ogs.tif
176
     0
290
     0
176
     0
 40
1.0
176
     0
 40
1.0
176
     0
1001
ACAD
1000
AcDbSavedByObjectVersion
1070
     0
  0
VISUALSTYLE
  5
33
102
{ACAD_REACTORS
330
29
102
}
330
29
100
AcDbVisualStyle
  2
Realistic
 70
     8
177
     3
291
     0
 70
    58
 90
        2
176
     1
 90
        3
176
     1
 90
        0
176
     1
 90
        2
176
     1
 40
0.6
176
     1
 40
30.0
176
     1
 62
     7
420
 16777215
176
     1
 90
        0
176
     1
 90
        0
176
     1
 62
     7
176
     1
 62
   257
176
     1
 90
        1
176
     1
 90
        1
176
     1
 40
1.0
176
     1
 90
        8
176
     1
 62
   257
176
     1
 40
1.0
176
     1
 90
        1
176
     1
 90
        6
176
     1
 90
        2
176
     1
 62
     7
176
     1
 90
        3
176
     1
 90
        0
176
     1
 90
        0
176
     1
290
     0
176
     1
 90
       13
176
     1
 40
0.0
176
     1
 90
        0
176
     1
290
     0
176
     1
290
     1
176
     1
290
     1
176
     1
290
     0
176
     1
290
     0
176
     1
290
     0
176
     1
290
     0
176
     1
290
     0
176
     1
290
     0
176
     1
 90
       50
176
     1
 40
0.0
176
     1
 40
1.0
176
     1
 90
        0
176
     1
 62
    18
420
        0
176
     1
 90
       50
176
     1
 90
        3
176
     1
 62
     5
420
      255
176
     1
290
     0
176
     1
 90
       50
176
     1
 90
       50
176
     1
 90
       50
176
     1
290
     0
176
     1
 90
       50
176
     1
 62
   256
176
     0
 40
1.0
176
     0
 90
        2
176
     1
  1
strokes_ogs.tif
176
     1
290
     0
176
     1
 40
1.0
176
     1
 40
1.0
176
     1
1001
ACAD
1000
AcDbSavedByObjectVersion
1070
     0
  0
VISUALSTYLE
  5
3E
102
{ACAD_REACTORS
330
29
102
}
330
29
100
AcDbVisualStyle
  2
Shaded
 70
    27
177
     3
291
     0
 70
    58
 90
        2
176
     1
 90
        2
176
     1
 90
        1
176
     1
 90
        2
176
     1
 40
0.6
176
     1
 40
30.0
176
     1
 62
     7
420
 16777215
176
     1
 90
        0
176
     1
 90
        4
176
     1
 62
     7
176
     1
 62
   257
176
     1
 90
        1
176
     1
 90
        1
176
     1
 40
1.0
176
     1
 90
        8
176
     1
 62
   257
176
     1
 40
1.0
176
     1
 90
        1
176
     1
 90
        6
176
     1
 90
        2
176
     1
 62
     8
420
  7895160
176
     1
 90
        3
176
     1
 90
        0
176
     1
 90
        0
176
     1
290
     0
176
     1
 90
        5
176
     1
 40
0.0
176
     1
 90
        0
176
     1
290
     0
176
     1
290
     1
176
     1
290
     1
176
     1
290
     0
176
     1
290
     0
176
     1
290
     0
176
     1
290
     0
176
     1
290
     0
176
     1
290
     0
176
     1
 90
       50
176
     1
 40
0.0
176
     1
 40
1.0
176
     1
 90
        0
176
     1
 62
    18
420
        0
176
     1
 90
       50
176
     1
 90
        3
176
     1
 62
     5
420
      255
176
     1
290
     0
176
     1
 90
       50
176
     1
 90
       50
176
     1
 90
       50
176
     1
290
     0
176
     1
 90
       50
176
     1
 62
   256
176
     0
 40
1.0
176
     0
 90
        2
176
     1
  1
strokes_ogs.tif
176
     1
290
     0
176
     1
 40
1.0
176
     1
 40
1.0
176
     1
1001
ACAD
1000
AcDbSavedByObjectVersion
1070
     0
  0
VISUALSTYLE
  5
3D
102
{ACAD_REACTORS
330
29
102
}
330
29
100
AcDbVisualStyle
  2
Shaded with edges
 70
    26
177
     3
291
     0
 70
    58
 90
        2
176
     1
 90
        2
176
     1
 90
        1
176
     1
 90
        2
176
     1
 40
0.6
176
     1
 40
30.0
176
     1
 62
     7
420
 16777215
176
     1
 90
        1
176
     1
 90
        2
176
     1
 62
     7
176
     1
 62
   257
176
     1
 90
        2
176
     1
 90
        1
176
     1
 40
1.0
176
     1
 90
        8
176
     1
 62
   257
176
     1
 40
1.0
176
     1
 90
        1
176
     1
 90
        6
176
     1
 90
        2
176
     1
 62
     7
176
     1
 90
        3
176
     1
 90
        0
176
     1
 90
        0
176
     1
290
     0
176
     1
 90
        5
176
     1
 40
0.0
176
     1
 90
        0
176
     1
290
     0
176
     1
290
     1
176
     1
290
     1
176
     1
290
     0
176
     1
290
     0
176
     1
290
     0
176
     1
290
     0
176
     1
290
     0
176
     1
290
     0
176
     1
 90
       50
176
     1
 40
0.0
176
     1
 40
1.0
176
     1
 90
        0
176
     1
 62
    18
420
        0
176
     1
 90
       50
176
     1
 90
        3
176
     1
 62
     5
420
      255
176
     1
290
     0
176
     1
 90
       50
176
     1
 90
       50
176
     1
 90
       50
176
     1
290
     0
176
     1
 90
       50
176
     1
 62
   256
176
     0
 40
1.0
176
     0
 90
        2
176
     1
  1
strokes_ogs.tif
176
     1
290
     0
176
     1
 40
1.0
176
     1
 40
1.0
176
     1
1001
ACAD
1000
AcDbSavedByObjectVersion
1070
     0
  0
VISUALSTYLE
  5
3A
102
{ACAD_REACTORS
330
29
102
}
330
29
100
AcDbVisualStyle
  2
Shades of Gray
 70
    23
177
     3
291
     0
 70
    58
 90
        2
176
     1
 90
        2
176
     1
 90
        3
176
     1
 90
        0
176
     1
 40
0.6
176
     1
 40
30.0
176
     1
 62
     7
420
 16777215
176
     1
 90
        2
176
     1
 90
        2
176
     1
 62
     7
176
     1
 62
     7
176
     1
 90
        1
176
     1
 90
        1
176
     1
 40
40.0
176
     1
 90
        8
176
     1
 62
     7
176
     1
 40
1.0
176
     1
 90
        1
176
     1
 90
        6
176
     1
 90
        2
176
     1
 62
     7
176
     1
 90
        3
176
     1
 90
        0
176
     1
 90
        0
176
     1
290
     0
176
     1
 90
        1
176
     1
 40
0.0
176
     1
 90
        0
176
     1
290
     0
176
     1
290
     1
176
     1
290
     1
176
     1
290
     0
176
     1
290
     0
176
     1
290
     0
176
     1
290
     0
176
     1
290
     0
176
     1
290
     0
176
     1
 90
       50
176
     1
 40
0.0
176
     1
 40
1.0
176
     1
 90
        0
176
     1
 62
    18
420
        0
176
     1
 90
       50
176
     1
 90
        3
176
     1
 62
     5
420
      255
176
     1
290
     0
176
     1
 90
       50
176
     1
 90
       50
176
     1
 90
       50
176
     1
290
     0
176
     1
 90
       50
176
     1
 62
   256
176
     0
 40
1.0
176
     0
 90
        2
176
     1
  1
strokes_ogs.tif
176
     1
290
     0
176
     1
 40
1.0
176
     1
 40
1.0
176
     1
1001
ACAD
1000
AcDbSavedByObjectVersion
1070
     0
  0
VISUALSTYLE
  5
3B
102
{ACAD_REACTORS
330
29
102
}
330
29
100
AcDbVisualStyle
  2
Sketchy
 70
    24
177
     3
291
     0
 70
    58
 90
        1
176
     1
 90
        2
176
     1
 90
        2
176
     1
 90
        0
176
     1
 40
0.6
176
     1
 40
30.0
176
     1
 62
     7
420
 16777215
176
     1
 90
        2
176
     1
 90
        2
176
     1
 62
     7
176
     1
 62
     7
176
     1
 90
        1
176
     1
 90
        1
176
     1
 40
40.0
176
     1
 90
       11
176
     1
 62
     7
176
     1
 40
1.0
176
     1
 90
        1
176
     1
 90
        6
176
     1
 90
        2
176
     1
 62
     7
176
     1
 90
        6
176
     1
 90
        0
176
     1
 90
        0
176
     1
290
     0
176
     1
 90
        1
176
     1
 40
0.0
176
     1
 90
        0
176
     1
290
     0
176
     1
290
     1
176
     1
290
     1
176
     1
290
     0
176
     1
290
     0
176
     1
290
     0
176
     1
290
     0
176
     1
290
     0
176
     1
290
     0
176
     1
 90
       50
176
     1
 40
0.0
176
     1
 40
1.0
176
     1
 90
        0
176
     1
 62
    18
420
        0
176
     1
 90
       50
176
     1
 90
        3
176
     1
 62
     5
420
      255
176
     1
290
     0
176
     1
 90
       50
176
     1
 90
       50
176
     1
 90
       50
176
     1
290
     0
176
     1
 90
       50
176
     1
 62
   256
176
     0
 40
1.0
176
     0
 90
        2
176
     1
  1
strokes_ogs.tif
176
     1
290
     0
176
     1
 40
1.0
176
     1
 40
1.0
176
     1
1001
ACAD
1000
AcDbSavedByObjectVersion
1070
     0
  0
VISUALSTYLE
  5
36
102
{ACAD_REACTORS
330
29
102
}
330
29
100
AcDbVisualStyle
  2
Thicken
 70
    13
177
     3
291
     1
 70
    58
 90
        2
176
     1
 90
        2
176
     1
 90
        0
176
     1
 90
        0
176
     1
 40
0.6
176
     1
 40
30.0
176
     1
 62
     7
420
 16777215
176
     1
 90
        1
176
     1
 90
        4
176
     1
 62
     7
176
     1
 62
   257
176
     1
 90
        1
176
     1
 90
        1
176
     1
 40
1.0
176
     1
 90
       12
176
     1
 62
     7
176
     1
 40
1.0
176
     1
 90
        1
176
     1
 90
        6
176
     1
 90
        2
176
     1
 62
     7
176
     1
 90
        5
176
     1
 90
        0
176
     1
 90
        0
176
     1
290
     0
176
     1
 90
        1
176
     1
 40
0.0
176
     1
 90
        0
176
     1
290
     0
176
     1
290
     1
176
     1
290
     1
176
     1
290
     0
176
     1
290
     0
176
     1
290
     0
176
     1
290
     0
176
     1
290
     0
176
     1
290
     0
176
     1
 90
       50
176
     1
 40
0.0
176
     1
 40
1.0
176
     1
 90
        0
176
     1
 62
    18
420
        0
176
     1
 90
       50
176
     1
 90
        3
176
     1
 62
     5
420
      255
176
     1
290
     0
176
     1
 90
       50
176
     1
 90
       50
176
     1
 90
       50
176
     1
290
     0
176
     1
 90
       50
176
     1
 62
   256
176
     0
 40
1.0
176
     0
 90
        2
176
     1
  1
strokes_ogs.tif
176
     1
290
     0
176
     1
 40
1.0
176
     1
 40
1.0
176
     1
1001
ACAD
1000
AcDbSavedByObjectVersion
1070
     0
  0
VISUALSTYLE
  5
30
102
{ACAD_REACTORS
330
29
102
}
330
29
100
AcDbVisualStyle
  2
Wireframe
 70
     5
177
     3
291
     0
 70
    58
 90
        0
176
     1
 90
        2
176
     1
 90
        0
176
     1
 90
        0
176
     1
 40
0.6
176
     1
 40
30.0
176
     1
 62
     7
420
 16777215
176
     1
 90
        1
176
     1
 90
        4
176
     1
 62
     7
176
     1
 62
   257
176
     1
 90
        1
176
     1
 90
        1
176
     1
 40
1.0
176
     1
 90
        0
176
     1
 62
   257
176
     1
 40
1.0
176
     1
 90
        1
176
     1
 90
        6
176
     1
 90
        2
176
     1
 62
     7
176
     1
 90
        3
176
     1
 90
        0
176
     1
 90
        0
176
     1
290
     0
176
     1
 90
        1
176
     1
 40
0.0
176
     1
 90
        0
176
     1
290
     0
176
     1
290
     1
176
     1
290
     1
176
     1
290
     0
176
     1
290
     0
176
     1
290
     0
176
     1
290
     0
176
     1
290
     0
176
     1
290
     0
176
     1
 90
       50
176
     1
 40
0.0
176
     1
 40
1.0
176
     1
 90
        0
176
     1
 62
    18
420
        0
176
     1
 90
       50
176
     1
 90
        3
176
     1
 62
     5
420
      255
176
     1
290
     0
176
     1
 90
       50
176
     1
 90
       50
176
     1
 90
       50
176
     1
290
     0
176
     1
 90
       50
176
     1
 62
   256
176
     0
 40
1.0
176
     0
 90
        2
176
     1
  1
strokes_ogs.tif
176
     1
290
     0
176
     1
 40
1.0
176
     1
 40
1.0
176
     1
1001
ACAD
1000
AcDbSavedByObjectVersion
1070
     0
  0
VISUALSTYLE
  5
3C
102
{ACAD_REACTORS
330
29
102
}
330
29
100
AcDbVisualStyle
  2
X-Ray
 70
    25
177
     3
291
     0
 70
    58
 90
        2
176
     1
 90
        2
176
     1
 90
        1
176
     1
 90
        1
176
     1
 40
0.5
176
     1
 40
30.0
176
     1
 62
     7
420
 16777215
176
     1
 90
        1
176
     1
 90
        0
176
     1
 62
     7
176
     1
 62
   257
176
     1
 90
        1
176
     1
 90
        1
176
     1
 40
1.0
176
     1
 90
        8
176
     1
 62
     7
176
     1
 40
1.0
176
     1
 90
        1
176
     1
 90
        6
176
     1
 90
        2
176
     1
 62
     7
176
     1
 90
        3
176
     1
 90
        0
176
     1
 90
        0
176
     1
290
     0
176
     1
 90
       13
176
     1
 40
0.0
176
     1
 90
        0
176
     1
290
     0
176
     1
290
     1
176
     1
290
     1
176
     1
290
     0
176
     1
290
     0
176
     1
290
     0
176
     1
290
     0
176
     1
290
     0
176
     1
290
     0
176
     1
 90
       50
176
     1
 40
0.0
176
     1
 40
1.0
176
     1
 90
        0
176
     1
 62
    18
420
        0
176
     1
 90
       50
176
     1
 90
        3
176
     1
 62
     5
420
      255
176
     1
290
     0
176
     1
 90
       50
176
     1
 90
       50
176
     1
 90
       50
176
     1
290
     0
176
     1
 90
       50
176
     1
 62
   256
176
     0
 40
1.0
176
     0
 90
        2
176
     1
  1
strokes_ogs.tif
176
     1
290
     0
176
     1
 40
1.0
176
     1
 40
1.0
176
     1
1001
ACAD
1000
AcDbSavedByObjectVersion
1070
     0
  0
DICTIONARYVAR
  5
403
102
{ACAD_REACTORS
330
3FE
102
}
330
3FE
100
DictionaryVariables
280
     0
  1
0
  0
DICTIONARYVAR
  5
404
102
{ACAD_REACTORS
330
3FE
102
}
330
3FE
100
DictionaryVariables
280
     0
  1
1:1
  0
DICTIONARYVAR
  5
400
102
{ACAD_REACTORS
330
3FE
102
}
330
3FE
100
DictionaryVariables
280
     0
  1
STANDARD
  0
DICTIONARYVAR
  5
3FF
102
{ACAD_REACTORS
330
3FE
102
}
330
3FE
100
DictionaryVariables
280
     0
  1
STANDARD
  0
DICTIONARYVAR
  5
401
102
{ACAD_REACTORS
330
3FE
102
}
330
3FE
100
DictionaryVariables
280
     0
  1
Imperial24
  0
DICTIONARYVAR
  5
402
102
{ACAD_REACTORS
330
3FE
102
}
330
3FE
100
DictionaryVariables
280
     0
  1
Imperial24
  0
DICTIONARY
  5
40A
330
6B
100
AcDbDictionary
280
     1
281
     1
  3
ACAD_XREC_ROUNDTRIP
360
40B
  0
DICTIONARY
  5
1A
330
19
100
AcDbDictionary
280
     1
281
     1
  3
BUMPTILE
360
1C
  3
DIFFUSETILE
360
1B
  3
OPACITYTILE
360
1F
  3
REFLECTIONTILE
360
1E
  3
REFRACTIONTILE
360
20
  3
SPECULARTILE
360
1D
  0
DICTIONARY
  5
12
330
11
100
AcDbDictionary
280
     1
281
     1
  3
BUMPTILE
360
14
  3
DIFFUSETILE
360
13
  3
OPACITYTILE
360
17
  3
REFLECTIONTILE
360
16
  3
REFRACTIONTILE
360
18
  3
SPECULARTILE
360
15
  0
DICTIONARY
  5
22
330
21
100
AcDbDictionary
280
     1
281
     1
  3
BUMPTILE
360
24
  3
DIFFUSETILE
360
23
  3
OPACITYTILE
360
27
  3
REFLECTIONTILE
360
26
  3
REFRACTIONTILE
360
28
  3
SPECULARTILE
360
25
  0
DICTIONARY
  5
408
330
69
100
AcDbDictionary
280
     1
281
     1
  3
ACAD_XREC_ROUNDTRIP
360
409
  0
DICTIONARY
  5
405
330
65
100
AcDbDictionary
280
     1
281
     1
  3
ACAD_ROUNDTRIP_2008_TABLESTYLE_CELLSTYLEMAP
360
406
  0
XRECORD
  5
40B
102
{ACAD_REACTORS
330
40A
102
}
330
40A
100
AcDbXrecord
280
     1
102
DISPLAYNAME
  1
Imperial24
102
FLAGS
 90
        0
  0
XRECORD
  5
1C
102
{ACAD_REACTORS
330
1A
102
}
330
1A
100
AcDbXrecord
280
     1
270
     1
271
     1
  0
XRECORD
  5
1B
102
{ACAD_REACTORS
330
1A
102
}
330
1A
100
AcDbXrecord
280
     1
270
     1
271
     1
  0
XRECORD
  5
1F
102
{ACAD_REACTORS
330
1A
102
}
330
1A
100
AcDbXrecord
280
     1
270
     1
271
     1
  0
XRECORD
  5
1E
102
{ACAD_REACTORS
330
1A
102
}
330
1A
100
AcDbXrecord
280
     1
270
     1
271
     1
  0
XRECORD
  5
20
102
{ACAD_REACTORS
330
1A
102
}
330
1A
100
AcDbXrecord
280
     1
270
     1
271
     1
  0
XRECORD
  5
1D
102
{ACAD_REACTORS
330
1A
102
}
330
1A
100
AcDbXrecord
280
     1
270
     1
271
     1
  0
XRECORD
  5
14
102
{ACAD_REACTORS
330
12
102
}
330
12
100
AcDbXrecord
280
     1
270
     1
271
     1
  0
XRECORD
  5
13
102
{ACAD_REACTORS
330
12
102
}
330
12
100
AcDbXrecord
280
     1
270
     1
271
     1
  0
XRECORD
  5
17
102
{ACAD_REACTORS
330
12
102
}
330
12
100
AcDbXrecord
280
     1
270
     1
271
     1
  0
XRECORD
  5
16
102
{ACAD_REACTORS
330
12
102
}
330
12
100
AcDbXrecord
280
     1
270
     1
271
     1
  0
XRECORD
  5
18
102
{ACAD_REACTORS
330
12
102
}
330
12
100
AcDbXrecord
280
     1
270
     1
271
     1
  0
XRECORD
  5
15
102
{ACAD_REACTORS
330
12
102
}
330
12
100
AcDbXrecord
280
     1
270
     1
271
     1
  0
XRECORD
  5
24
102
{ACAD_REACTORS
330
22
102
}
330
22
100
AcDbXrecord
280
     1
270
     1
271
     1
  0
XRECORD
  5
23
102
{ACAD_REACTORS
330
22
102
}
330
22
100
AcDbXrecord
280
     1
270
     1
271
     1
  0
XRECORD
  5
27
102
{ACAD_REACTORS
330
22
102
}
330
22
100
AcDbXrecord
280
     1
270
     1
271
     1
  0
XRECORD
  5
26
102
{ACAD_REACTORS
330
22
102
}
330
22
100
AcDbXrecord
280
     1
270
     1
271
     1
  0
XRECORD
  5
28
102
{ACAD_REACTORS
330
22
102
}
330
22
100
AcDbXrecord
280
     1
270
     1
271
     1
  0
XRECORD
  5
25
102
{ACAD_REACTORS
330
22
102
}
330
22
100
AcDbXrecord
280
     1
270
     1
271
     1
  0
XRECORD
  5
409
102
{ACAD_REACTORS
330
408
102
}
330
408
100
AcDbXrecord
280
     1
102
DISPLAYNAME
  1
Imperial24
102
FLAGS
 90
        0
  0
CELLSTYLEMAP
  5
406
102
{ACAD_REACTORS
330
405
102
}
330
405
100
AcDbCellStyleMap
 90
        3
300
CELLSTYLE
  1
TABLEFORMAT_BEGIN
 90
        5
170
     1
 91
        0
 92
    32768
 62
   257
 93
        1
300
CONTENTFORMAT
  1
CONTENTFORMAT_BEGIN
 90
        0
 91
        0
 92
      512
 93
        0
300

 40
0.0
140
1.0
 94
        5
 62
     0
340
55
144
0.25
309
CONTENTFORMAT_END
171
     1
301
MARGIN
  1
CELLMARGIN_BEGIN
 40
1.5
 40
1.5
 40
1.5
 40
1.5
 40
0.18
 40
0.18
309
CELLMARGIN_END
 94
        0
309
TABLEFORMAT_END
  1
CELLSTYLE_BEGIN
 90
        1
 91
        1
300
_TITLE
309
CELLSTYLE_END
300
CELLSTYLE
  1
TABLEFORMAT_BEGIN
 90
        5
170
     1
 91
        0
 92
        0
 62
   257
 93
        1
300
CONTENTFORMAT
  1
CONTENTFORMAT_BEGIN
 90
        0
 91
        0
 92
      512
 93
        0
300

 40
0.0
140
1.0
 94
        5
 62
     0
340
55
144
0.18
309
CONTENTFORMAT_END
171
     1
301
MARGIN
  1
CELLMARGIN_BEGIN
 40
1.5
 40
1.5
 40
1.5
 40
1.5
 40
0.18
 40
0.18
309
CELLMARGIN_END
 94
        0
309
TABLEFORMAT_END
  1
CELLSTYLE_BEGIN
 90
        2
 91
        1
300
_HEADER
309
CELLSTYLE_END
300
CELLSTYLE
  1
TABLEFORMAT_BEGIN
 90
        5
170
     1
 91
        0
 92
        0
 62
   257
 93
        1
300
CONTENTFORMAT
  1
CONTENTFORMAT_BEGIN
 90
        0
 91
        0
 92
      512
 93
        0
300

 40
0.0
140
1.0
 94
        2
 62
     0
340
55
144
0.18
309
CONTENTFORMAT_END
171
     1
301
MARGIN
  1
CELLMARGIN_BEGIN
 40
1.5
 40
1.5
 40
1.5
 40
1.5
 40
0.18
 40
0.18
309
CELLMARGIN_END
 94
        0
309
TABLEFORMAT_END
  1
CELLSTYLE_BEGIN
 90
        3
 91
        2
300
_DATA
309
CELLSTYLE_END
  0
ENDSEC
  0
EOF
